<svg width="194" height="39" viewBox="0 0 194 39" fill="none" xmlns="http://www.w3.org/2000/svg">
<path fill-rule="evenodd" clip-rule="evenodd" d="M185.793 14.0529C185.887 14.0558 185.973 14.0347 186.073 13.9851C186.103 14.2196 186.068 14.3578 185.976 14.3091L185.793 14.2122V14.616C186.062 14.6215 186.277 14.6323 186.278 14.6407C186.279 14.6511 186.051 14.6506 185.793 14.644V14.8834C186.051 14.9086 186.264 14.9605 186.143 14.9942C186.07 15.0145 186.142 15.0368 186.303 15.0436C186.464 15.0505 186.597 15.0689 186.599 15.0844C186.6 15.1 186.472 15.1072 186.312 15.1003C186.112 15.0918 186.083 15.1146 186.218 15.1748C186.336 15.2274 186.311 15.2616 186.153 15.2617C186.04 15.2618 185.895 15.2316 185.793 15.1897V15.4353C185.854 15.4301 185.926 15.426 186.009 15.4237C186.25 15.417 186.488 15.4144 186.537 15.4178C186.587 15.4213 186.67 15.5077 186.723 15.6099C186.792 15.7456 186.728 15.798 186.485 15.8039C186.302 15.8083 186.154 15.8287 186.156 15.8492C186.159 15.8697 186.28 15.8812 186.427 15.8747C186.582 15.8678 186.695 15.8869 186.7 15.9206C186.703 15.9523 186.586 15.9783 186.439 15.9784C186.292 15.9785 186.176 16.01 186.18 16.0484C186.187 16.1023 185.975 16.1134 185.793 16.0872V18.2689C185.908 18.2748 185.91 18.2779 185.793 18.2793V21.9513L185.824 21.9498C185.97 21.9433 186.091 21.9513 186.093 21.9674C186.095 21.9836 185.976 21.9969 185.829 21.997L185.793 21.9968V23.3932V24.5638V24.964V24.9853V25.5255C185.887 25.5284 185.973 25.5074 186.072 25.4579C186.103 25.6935 186.068 25.8326 185.976 25.7837L185.793 25.6868V26.0907C186.062 26.0961 186.277 26.1069 186.278 26.1153C186.279 26.1257 186.051 26.1252 185.793 26.1186V26.358C186.051 26.3832 186.264 26.4351 186.143 26.4688C186.07 26.4891 186.142 26.5114 186.303 26.5182C186.464 26.5251 186.597 26.5435 186.599 26.559C186.6 26.5746 186.472 26.5818 186.312 26.575C186.112 26.5664 186.083 26.5892 186.218 26.6494C186.336 26.702 186.311 26.7362 186.153 26.7363C186.04 26.7364 185.895 26.7062 185.793 26.6643V26.9099C185.854 26.9047 185.926 26.9006 186.009 26.8983C186.25 26.8917 186.488 26.889 186.537 26.8924C186.587 26.8959 186.67 26.9823 186.723 27.0845C186.792 27.2202 186.728 27.2726 186.485 27.2785C186.302 27.2829 186.154 27.3033 186.156 27.3238C186.159 27.3443 186.28 27.3558 186.427 27.3493C186.582 27.3424 186.695 27.3615 186.7 27.3952C186.703 27.4269 186.586 27.453 186.439 27.453C186.292 27.4531 186.176 27.4846 186.18 27.523C186.187 27.5769 185.975 27.588 185.793 27.5618V29.7435C185.908 29.7494 185.91 29.7525 185.793 29.7539V33.4259L185.824 33.4244C185.97 33.4179 186.091 33.4259 186.093 33.442C186.095 33.4582 185.976 33.4715 185.829 33.4716L185.793 33.4715V37.0002C185.903 37.0035 186.002 36.9741 186.125 36.9047C186.32 36.7937 186.351 36.7893 186.446 36.8576C186.503 36.8991 186.664 36.941 186.802 36.9508C186.958 36.9618 187.052 36.8829 187.048 36.7431C187.043 36.569 187.105 36.5295 187.317 36.5694C187.476 36.5994 187.792 36.621 188.067 36.6208C188.454 36.6206 188.643 36.6535 189.066 36.7945C189.353 36.8902 189.63 36.9524 189.681 36.9329C189.755 36.9044 189.821 36.9026 190.013 36.9235C190.189 36.9428 190.253 36.9372 190.255 36.9025C190.256 36.8766 190.368 36.8428 190.503 36.8274C190.776 36.7964 190.844 36.8044 191.166 36.9046C191.254 36.932 191.497 36.9588 191.706 36.9643C192.024 36.9728 192.062 36.9401 191.938 36.7635C191.828 36.6076 191.867 36.5599 192.086 36.5807C192.336 36.6044 192.375 36.6029 192.335 36.5711C192.256 36.5081 192.34 36.4943 192.622 36.5238C192.804 36.5429 192.824 36.5158 192.685 36.4389L192.674 36.4325C192.572 36.3766 192.514 36.3444 192.506 36.3031C192.497 36.2468 192.582 36.1737 192.785 36.0007L192.802 35.986C193.032 35.7903 193.038 35.5037 192.828 34.8823C192.654 34.3666 192.634 33.8829 192.776 33.6278C193.246 32.7869 193.276 32.7033 193.102 32.7154C193.004 32.7222 192.869 32.8157 192.803 32.9231C192.736 33.0306 192.575 33.1266 192.445 33.1365C192.121 33.1613 191.95 31.5369 192.217 30.9638C192.37 30.6351 192.446 28.1527 192.331 27.2891C192.305 27.0965 191.865 26.2564 191.77 26.2179C191.691 26.1861 191.745 26.1697 191.904 26.1765C192.05 26.1827 192.168 26.1793 192.167 26.169C192.166 26.1586 192.044 26.1449 191.896 26.1386C191.543 26.1235 191.539 26.0539 191.89 26.0537C192.138 26.0536 192.159 25.7537 191.977 25.4664C192.025 25.4392 192.006 25.3856 191.938 25.2889C191.828 25.133 191.867 25.0853 192.086 25.1061C192.336 25.1298 192.375 25.1283 192.335 25.0965C192.256 25.0335 192.34 25.0196 192.622 25.0492C192.804 25.0683 192.824 25.0411 192.685 24.9642L192.674 24.9579C192.572 24.902 192.514 24.8698 192.506 24.8285C192.497 24.7722 192.582 24.6991 192.785 24.5261L192.802 24.5114C193.032 24.3157 193.038 24.0291 192.828 23.4077C192.654 22.8919 192.634 22.4083 192.776 22.1532C193.246 21.3123 193.276 21.2287 193.102 21.2408C193.004 21.2476 192.869 21.3411 192.803 21.4485C192.736 21.556 192.575 21.652 192.445 21.6619C192.121 21.6867 191.95 20.0623 192.217 19.4892C192.37 19.1605 192.446 16.6781 192.331 15.8145C192.305 15.6219 191.865 14.7818 191.77 14.7433C191.691 14.7115 191.745 14.6951 191.904 14.7019C192.05 14.7081 192.168 14.7047 192.167 14.6943C192.166 14.684 192.044 14.6703 191.896 14.664C191.543 14.6489 191.539 14.5793 191.89 14.5791C192.138 14.5789 192.159 14.2801 191.978 13.9933C192.025 13.9658 192.005 13.9123 191.938 13.8162C191.828 13.6604 191.867 13.6127 192.086 13.6334C192.336 13.6572 192.375 13.6556 192.335 13.6239C192.256 13.5609 192.34 13.547 192.622 13.5765C192.804 13.5957 192.824 13.5685 192.685 13.4916L192.674 13.4852C192.572 13.4294 192.514 13.3971 192.506 13.3559C192.497 13.2995 192.582 13.2264 192.785 13.0534L192.802 13.0387C193.032 12.8431 193.038 12.5564 192.828 11.9351C192.654 11.4193 192.634 10.9357 192.776 10.6805C193.246 9.83968 193.276 9.75605 193.102 9.76817C193.004 9.77497 192.869 9.86843 192.803 9.97588C192.736 10.0833 192.575 10.1793 192.445 10.1893C192.121 10.214 191.95 8.58964 192.217 8.01654C192.37 7.68781 192.446 5.20542 192.331 4.34189C192.305 4.14923 191.865 3.30915 191.77 3.27065C191.691 3.23887 191.745 3.2224 191.904 3.22923C192.05 3.23546 192.168 3.23207 192.167 3.2217C192.166 3.21132 192.044 3.19766 191.896 3.19134C191.543 3.17627 191.539 3.10665 191.89 3.10644C192.193 3.10626 192.157 2.66062 191.828 2.33536C191.678 2.18643 191.711 2.13753 191.966 2.13045C192.15 2.12532 192.3 2.10882 192.298 2.09375C192.296 2.07867 192.175 2.07167 192.029 2.07817C191.882 2.08468 191.74 2.07465 191.713 2.05589C191.685 2.03714 191.635 2.00908 191.6 1.99353C191.565 1.97799 191.517 1.91859 191.492 1.86154C191.465 1.79834 191.361 1.76752 191.228 1.78269C191.011 1.80729 190.79 1.6736 190.424 1.29621C190.241 1.10647 189.791 1.02084 189.739 1.1655C189.722 1.21167 189.681 1.25798 189.648 1.26837C189.615 1.27877 189.568 1.36794 189.543 1.46653L189.497 1.64578L189.274 1.52329C189.151 1.45591 189.003 1.31736 188.945 1.21539C188.887 1.11341 188.746 1.02598 188.631 1.02109C188.517 1.01619 188.422 0.995215 188.419 0.974464C188.417 0.953713 188.311 0.941363 188.183 0.947005C188.055 0.952723 188.054 0.993059 188.183 1.03773C188.441 1.12791 188.514 1.21395 188.32 1.20052C188.06 1.18251 187.058 0.792244 187.202 0.765104C187.286 0.749244 187.169 0.732128 186.934 0.725911C186.637 0.71809 186.5 0.686007 186.46 0.615284L186.405 0.515687L186.259 0.619536C186.145 0.701237 186.079 0.712577 185.948 0.672697C185.857 0.644812 185.867 0.581134 185.97 0.531191C186.073 0.481248 186.133 0.438462 186.103 0.436122C186.084 0.434666 185.962 0.438675 185.793 0.44594V1.61653C185.86 1.71533 185.959 1.99422 186.032 2.29873C186.118 2.65666 186.093 2.89862 185.976 2.83644L185.793 2.73954V3.1434C186.062 3.14889 186.277 3.15964 186.278 3.16801C186.279 3.17843 186.051 3.17792 185.793 3.17136V3.41077C186.051 3.43599 186.264 3.48782 186.143 3.52156C186.07 3.54187 186.142 3.56412 186.303 3.57099C186.464 3.57787 186.597 3.59623 186.599 3.61179C186.6 3.62735 186.472 3.6345 186.312 3.62769C186.112 3.61912 186.083 3.64198 186.218 3.7021C186.336 3.75476 186.311 3.78896 186.153 3.78905C186.04 3.78912 185.895 3.75894 185.793 3.71702V3.96265C185.854 3.95747 185.926 3.95337 186.009 3.95107C186.25 3.94439 186.488 3.94172 186.537 3.94516C186.587 3.94861 186.67 4.03506 186.723 4.13728C186.792 4.27298 186.728 4.32533 186.485 4.33123C186.302 4.33568 186.154 4.35609 186.156 4.37657C186.159 4.39708 186.28 4.40853 186.427 4.40203C186.582 4.39513 186.695 4.41424 186.7 4.44792C186.703 4.47965 186.586 4.50569 186.439 4.50578C186.292 4.50587 186.176 4.53735 186.18 4.57574C186.187 4.62964 185.975 4.64073 185.793 4.61452V6.7962C185.908 6.80219 185.91 6.80523 185.793 6.80664V10.4787L185.824 10.4772C185.97 10.4707 186.091 10.4786 186.093 10.4948C186.095 10.5109 185.976 10.5243 185.829 10.5243L185.793 10.5242V11.9186V13.0892V13.4894V13.5107V14.0529ZM185.793 4.17076C185.847 4.16996 185.914 4.17105 185.996 4.17322C186.291 4.18102 186.402 4.17703 186.32 4.16157C186.251 4.14863 186.059 4.14024 185.894 4.14294C185.859 4.14352 185.825 4.14308 185.793 4.14178V4.17076ZM185.793 4.06136C185.811 4.06146 185.831 4.06193 185.851 4.06279C185.999 4.06912 186.119 4.06529 186.117 4.05431C186.116 4.04333 185.994 4.03441 185.847 4.03449C185.828 4.03451 185.81 4.03438 185.793 4.03414V4.06136ZM185.793 2.038C185.804 2.03049 185.804 2.02323 185.793 2.01673V2.038ZM186.532 9.72222C186.807 9.71 186.544 9.63722 186.226 9.63741C185.973 9.63756 185.95 9.6698 186.176 9.7083C186.252 9.72129 186.412 9.72755 186.532 9.72222ZM186.497 9.40975C186.496 9.39997 186.374 9.39207 186.227 9.39215C186.08 9.39224 185.962 9.40556 185.964 9.42172C185.965 9.43789 186.087 9.44582 186.233 9.43931C186.379 9.43281 186.498 9.41952 186.497 9.40975ZM186.298 9.24068C186.664 9.19007 186.561 9.05237 186.157 9.05261C186.026 9.05269 185.926 9.1058 185.935 9.17066C185.95 9.27982 185.976 9.28501 186.298 9.24068ZM186.17 9.03091C186.514 9.02259 186.573 8.99669 186.253 8.99454C186.146 8.99383 186.012 9.00346 185.955 9.01594C185.897 9.02843 185.994 9.03516 186.17 9.03091ZM186.812 8.86081C187.092 8.84139 187.211 8.82619 187.075 8.82699C186.449 8.83072 185.932 8.8566 186.108 8.87538C186.239 8.88943 186.466 8.88473 186.812 8.86081ZM186.674 8.66667C186.67 8.62841 186.239 8.62897 186.035 8.66748L186.001 8.67385C185.932 8.68672 185.896 8.69351 185.896 8.69892C185.896 8.70498 185.942 8.70929 186.04 8.71842L186.04 8.71842L186.04 8.71843L186.04 8.71843L186.084 8.7225C186.455 8.75756 187.105 8.75108 187.142 8.71193C187.162 8.69099 187.065 8.67886 186.928 8.68496C186.791 8.69108 186.676 8.68283 186.674 8.66667ZM186.993 8.49483C186.882 8.52686 186.82 8.52433 186.533 8.47624C186.204 8.42111 186.202 8.42139 186.211 8.50838C186.22 8.58881 186.261 8.59436 186.708 8.5743C186.989 8.56166 187.18 8.53238 187.159 8.50507C187.129 8.46683 187.097 8.46487 186.993 8.49483ZM187.319 8.24772C187.445 8.21323 187.373 8.20881 186.81 8.21675C186.234 8.22486 186.152 8.23639 186.14 8.30988C186.132 8.35599 186.234 8.38892 186.366 8.38305C186.498 8.37718 186.732 8.38734 186.886 8.40562C187.112 8.43252 187.166 8.42447 187.168 8.3634C187.17 8.3219 187.237 8.26984 187.319 8.24772ZM186.867 7.61454C187.118 7.63191 187.081 7.64263 186.704 7.66246C186.296 7.68387 186.203 7.72228 186.128 7.90117C186.052 8.08141 186.098 8.11271 186.423 8.10369C186.634 8.09781 186.944 8.10245 187.11 8.11399C187.333 8.1295 187.412 8.1276 187.409 8.10668C187.407 8.09112 187.274 8.06924 187.112 8.05805C186.901 8.04341 186.9 8.03413 187.108 8.02487C187.271 8.01766 187.373 7.96493 187.342 7.90469C187.307 7.83794 187.248 7.82057 187.186 7.85873C187.022 7.9588 186.585 7.92888 186.572 7.81665C186.56 7.7205 186.863 7.68083 187.187 7.7361C187.263 7.74902 187.329 7.71079 187.333 7.65112C187.339 7.5666 187.252 7.54269 186.94 7.54288C186.459 7.54317 186.418 7.58339 186.867 7.61454ZM186.524 7.38254C186.827 7.36908 186.868 7.24101 186.569 7.24134C186.459 7.24146 186.345 7.27589 186.316 7.31784C186.284 7.36388 186.367 7.38954 186.524 7.38254ZM186.823 6.58074C186.731 6.57045 186.543 6.56209 186.404 6.56218C186.26 6.56226 186.182 6.64879 186.221 6.76509C186.284 6.95381 186.588 7.18732 186.742 7.16568C187.044 7.12313 187.115 6.61348 186.823 6.58074ZM186.996 5.92625C186.839 5.75038 186.739 5.71475 186.46 5.7348C186.222 5.75183 186.143 6.29821 186.378 6.29807C186.839 6.29779 187.157 6.10659 186.996 5.92625ZM186.292 5.24532C186.563 5.27545 186.665 5.18389 186.497 5.06229L186.34 4.94919L186.232 5.08797C186.174 5.1643 186.2 5.23511 186.292 5.24532ZM186.468 4.74048C186.467 4.73589 186.346 4.73223 186.199 4.73232C186.052 4.73241 185.933 4.74148 185.934 4.75246C185.935 4.76343 186.056 4.76712 186.203 4.76061C186.349 4.75411 186.468 4.74506 186.468 4.74048ZM186.413 4.28996C186.415 4.30612 186.296 4.31419 186.148 4.30787C186 4.30154 185.878 4.28839 185.877 4.27862C185.876 4.26885 185.995 4.2608 186.142 4.26071C186.289 4.26062 186.411 4.27379 186.413 4.28996ZM186.56 4.86418C186.634 4.8434 186.585 4.8217 186.452 4.81597C186.318 4.81024 186.211 4.82728 186.214 4.85382C186.221 4.91162 186.374 4.91621 186.56 4.86418ZM186.274 3.88803C186.347 3.875 186.344 3.85378 186.268 3.84087C186.193 3.82793 186.133 3.83859 186.137 3.86453C186.14 3.89047 186.202 3.90103 186.274 3.88803ZM186.169 3.02026C186.242 3.00724 186.239 2.98602 186.164 2.9731C186.088 2.96017 186.029 2.97083 186.032 2.99676C186.035 3.0227 186.097 3.03327 186.169 3.02026ZM187.294 0.51404C187.294 0.518624 187.175 0.527676 187.029 0.534178C186.883 0.54068 186.762 0.536999 186.761 0.52602C186.759 0.515041 186.878 0.50597 187.025 0.505881C187.173 0.505793 187.293 0.509456 187.294 0.51404ZM186.859 0.0017173C186.948 0.00792702 186.96 0.0242016 186.884 0.0378492C186.801 0.0529542 186.737 0.0485213 186.721 0.0265519C186.707 0.00667568 186.769 -0.00449242 186.859 0.0017173ZM191.373 8.12977C191.375 7.91966 191.286 7.74781 191.176 7.7479C190.941 7.74808 190.955 8.12135 191.199 8.35155C191.317 8.46249 191.371 8.39424 191.373 8.12977ZM191.333 7.64872C191.345 7.59942 191.308 7.55912 191.251 7.55916C191.02 7.55929 190.947 7.62909 191.123 7.68186C191.286 7.73044 191.315 7.7258 191.333 7.64872ZM191.387 8.58254C191.46 8.56952 191.457 8.5483 191.381 8.53538C191.306 8.52245 191.246 8.53311 191.25 8.55904C191.253 8.58498 191.315 8.59555 191.387 8.58254ZM192.419 10.4165C192.394 10.3065 192.278 10.2292 192.158 10.2423C191.908 10.2696 192.025 10.5955 192.288 10.6067C192.385 10.6109 192.444 10.5252 192.419 10.4165ZM191.328 1.58376C191.418 1.58997 191.429 1.60625 191.354 1.61989C191.27 1.635 191.206 1.63057 191.191 1.6086C191.177 1.58872 191.239 1.57755 191.328 1.58376ZM191.792 3.03457C191.868 3.02092 191.856 3.00464 191.767 2.99844C191.677 2.99223 191.615 3.00339 191.629 3.02327C191.645 3.04524 191.709 3.04967 191.792 3.03457ZM193.082 9.13911C193.143 9.25638 193.165 9.44314 193.131 9.55412C193.098 9.66511 193.047 9.56917 193.02 9.34091C192.993 9.11265 193.02 9.02184 193.082 9.13911ZM193.201 7.80996C193.261 7.82918 193.195 7.85322 193.053 7.86336C192.887 7.87527 192.848 7.8629 192.944 7.82841C193.053 7.78886 193.12 7.78407 193.201 7.80996ZM192.178 1.97943C192.268 1.98564 192.279 2.00192 192.204 2.01557C192.12 2.03067 192.056 2.02624 192.041 2.00427C192.027 1.98439 192.089 1.97322 192.178 1.97943ZM193.152 7.63797C193.221 7.65596 193.227 7.68992 193.166 7.71342C193.105 7.73693 193.048 7.72221 193.04 7.68071C193.032 7.63921 193.082 7.61997 193.152 7.63797ZM193.12 7.37387C193.189 7.39186 193.195 7.42582 193.134 7.44932C193.073 7.47283 193.016 7.45811 193.008 7.41661C193.001 7.37511 193.051 7.35587 193.12 7.37387ZM193.052 6.75122C193.116 6.77954 193.123 6.83047 193.068 6.86441C193.013 6.89834 192.96 6.87519 192.951 6.81294C192.942 6.75069 192.987 6.72291 193.052 6.75122ZM193.018 6.49663C193.084 6.5198 193.091 6.56224 193.033 6.59095C192.975 6.61966 192.921 6.60071 192.913 6.54884C192.905 6.49696 192.952 6.47347 193.018 6.49663ZM192.719 4.05395C192.789 4.07206 192.792 4.10179 192.727 4.11998C192.662 4.13817 192.605 4.12335 192.601 4.08704C192.596 4.05072 192.65 4.03585 192.719 4.05395ZM192.676 3.76156C192.752 3.77447 192.755 3.7957 192.682 3.80872C192.61 3.82172 192.548 3.81116 192.545 3.78522C192.541 3.75928 192.601 3.74862 192.676 3.76156ZM185.793 15.6434C185.847 15.6426 185.914 15.6437 185.996 15.6459C186.291 15.6537 186.402 15.6497 186.32 15.6342C186.251 15.6213 186.059 15.6129 185.894 15.6156C185.859 15.6162 185.825 15.6157 185.793 15.6144V15.6434ZM185.793 15.534C185.811 15.5341 185.831 15.5346 185.851 15.5354C185.999 15.5418 186.119 15.5379 186.117 15.527C186.116 15.516 185.994 15.5071 185.847 15.5071C185.828 15.5072 185.81 15.507 185.793 15.5068V15.534ZM186.532 21.1949C186.807 21.1826 186.544 21.1099 186.226 21.1101C185.973 21.1102 185.95 21.1424 186.176 21.181C186.252 21.1939 186.412 21.2002 186.532 21.1949ZM186.497 20.8824C186.496 20.8726 186.374 20.8647 186.227 20.8648C186.08 20.8649 185.962 20.8782 185.964 20.8944C185.965 20.9105 186.087 20.9185 186.233 20.912C186.379 20.9055 186.498 20.8922 186.497 20.8824ZM186.298 20.7133C186.664 20.6627 186.561 20.525 186.157 20.5253C186.026 20.5253 185.926 20.5784 185.935 20.6433C185.95 20.7525 185.976 20.7577 186.298 20.7133ZM186.17 20.5036C186.514 20.4952 186.573 20.4693 186.253 20.4672C186.146 20.4665 186.012 20.4761 185.955 20.4886C185.897 20.5011 185.994 20.5078 186.17 20.5036ZM186.812 20.3335C187.092 20.314 187.211 20.2988 187.075 20.2996C186.449 20.3034 185.932 20.3292 186.108 20.348C186.239 20.3621 186.466 20.3574 186.812 20.3335ZM186.674 20.1393C186.67 20.1011 186.239 20.1016 186.035 20.1401L186.001 20.1465H186.001H186.001H186.001C185.932 20.1594 185.896 20.1662 185.896 20.1716C185.896 20.1776 185.942 20.1819 186.04 20.1911L186.04 20.1911L186.084 20.1952C186.455 20.2302 187.105 20.2237 187.142 20.1846C187.162 20.1636 187.065 20.1515 186.928 20.1576C186.791 20.1637 186.676 20.1555 186.674 20.1393ZM186.993 19.9675C186.882 19.9995 186.82 19.997 186.533 19.9489C186.204 19.8938 186.202 19.894 186.211 19.981C186.22 20.0615 186.261 20.067 186.708 20.0469C186.989 20.0343 187.18 20.005 187.159 19.9777C187.129 19.9395 187.097 19.9375 186.993 19.9675ZM187.319 19.7204C187.445 19.6859 187.373 19.6815 186.81 19.6894C186.234 19.6975 186.152 19.709 186.14 19.7825C186.132 19.8286 186.234 19.8616 186.366 19.8557C186.498 19.8498 186.732 19.86 186.886 19.8783C187.112 19.9052 187.166 19.8971 187.168 19.8361C187.17 19.7945 187.237 19.7425 187.319 19.7204ZM186.867 19.0872C187.118 19.1046 187.081 19.1153 186.704 19.1351C186.296 19.1565 186.203 19.1949 186.128 19.3738C186.052 19.5541 186.098 19.5854 186.423 19.5763C186.634 19.5705 186.944 19.5751 187.11 19.5866C187.333 19.6021 187.412 19.6003 187.409 19.5793C187.407 19.5638 187.274 19.5419 187.112 19.5307C186.901 19.5161 186.9 19.5068 187.108 19.4975C187.271 19.4903 187.373 19.4376 187.342 19.3773C187.307 19.3106 187.248 19.2932 187.186 19.3314C187.022 19.4314 186.585 19.4015 186.572 19.2893C186.56 19.1931 186.863 19.1535 187.187 19.2088C187.263 19.2217 187.329 19.1834 187.333 19.1238C187.339 19.0392 187.252 19.0153 186.94 19.0155C186.459 19.0158 186.418 19.056 186.867 19.0872ZM186.524 18.8552C186.827 18.8417 186.868 18.7137 186.569 18.714C186.459 18.7141 186.345 18.7485 186.316 18.7905C186.284 18.8365 186.367 18.8622 186.524 18.8552ZM186.823 18.0534C186.731 18.0431 186.543 18.0347 186.404 18.0348C186.26 18.0349 186.182 18.1214 186.221 18.2377C186.284 18.4265 186.588 18.66 186.742 18.6383C187.044 18.5958 187.115 18.0861 186.823 18.0534ZM186.996 17.3989C186.839 17.223 186.739 17.1874 186.46 17.2075C186.222 17.2245 186.143 17.7709 186.378 17.7707C186.839 17.7704 187.157 17.5792 186.996 17.3989ZM186.292 16.718C186.563 16.7481 186.665 16.6565 186.497 16.5349L186.34 16.4218L186.232 16.5606C186.174 16.637 186.2 16.7078 186.292 16.718ZM186.468 16.2131C186.467 16.2085 186.346 16.2049 186.199 16.205C186.052 16.2051 185.933 16.2141 185.934 16.2251C185.935 16.2361 186.056 16.2398 186.203 16.2333C186.349 16.2268 186.468 16.2177 186.468 16.2131ZM186.413 15.7626C186.415 15.7788 186.296 15.7868 186.148 15.7805C186 15.7742 185.878 15.761 185.877 15.7513C185.876 15.7415 185.995 15.7334 186.142 15.7334C186.289 15.7333 186.411 15.7464 186.413 15.7626ZM186.56 16.3368C186.634 16.3161 186.585 16.2943 186.452 16.2886C186.318 16.2829 186.211 16.2999 186.214 16.3265C186.221 16.3843 186.374 16.3889 186.56 16.3368ZM186.274 15.3607C186.347 15.3477 186.344 15.3264 186.268 15.3135C186.193 15.3006 186.133 15.3112 186.137 15.3372C186.14 15.3631 186.202 15.3737 186.274 15.3607ZM186.169 14.4929C186.242 14.4799 186.239 14.4587 186.164 14.4458C186.088 14.4328 186.029 14.4435 186.032 14.4694C186.035 14.4954 186.097 14.5059 186.169 14.4929ZM191.373 19.6024C191.375 19.3923 191.286 19.2205 191.176 19.2205C190.941 19.2207 190.955 19.594 191.199 19.8242C191.317 19.9351 191.371 19.8669 191.373 19.6024ZM191.333 19.1214C191.345 19.0721 191.308 19.0318 191.251 19.0318C191.02 19.0319 190.947 19.1017 191.123 19.1545C191.286 19.2031 191.315 19.1984 191.333 19.1214ZM191.387 20.0552C191.46 20.0422 191.457 20.0209 191.381 20.008C191.306 19.9951 191.246 20.0058 191.25 20.0317C191.253 20.0576 191.315 20.0682 191.387 20.0552ZM192.419 21.8891C192.394 21.7792 192.278 21.7018 192.158 21.715C191.908 21.7423 192.025 22.0681 192.288 22.0794C192.385 22.0835 192.444 21.9979 192.419 21.8891ZM191.792 14.5072C191.868 14.4936 191.856 14.4773 191.767 14.4711C191.677 14.4649 191.615 14.476 191.629 14.4959C191.645 14.5179 191.709 14.5223 191.792 14.5072ZM193.082 20.6118C193.143 20.729 193.165 20.9158 193.131 21.0268C193.098 21.1378 193.047 21.0418 193.02 20.8136C192.993 20.5853 193.02 20.4945 193.082 20.6118ZM193.201 19.2826C193.261 19.3018 193.195 19.3259 193.053 19.336C192.887 19.3479 192.848 19.3355 192.944 19.3011C193.053 19.2615 193.12 19.2567 193.201 19.2826ZM193.152 19.1106C193.221 19.1286 193.227 19.1626 193.166 19.1861C193.105 19.2096 193.048 19.1949 193.04 19.1534C193.032 19.1119 193.082 19.0926 193.152 19.1106ZM193.12 18.8465C193.189 18.8645 193.195 18.8985 193.134 18.922C193.073 18.9455 193.016 18.9308 193.008 18.8893C193.001 18.8478 193.051 18.8285 193.12 18.8465ZM193.052 18.2239C193.116 18.2522 193.123 18.3031 193.068 18.3371C193.013 18.371 192.96 18.3478 192.951 18.2856C192.942 18.2233 192.987 18.1956 193.052 18.2239ZM193.018 17.9693C193.084 17.9924 193.091 18.0349 193.033 18.0636C192.975 18.0923 192.921 18.0734 192.913 18.0215C192.905 17.9696 192.952 17.9461 193.018 17.9693ZM192.719 15.5266C192.789 15.5447 192.792 15.5744 192.727 15.5926C192.662 15.6108 192.605 15.596 192.601 15.5597C192.596 15.5234 192.65 15.5085 192.719 15.5266ZM192.676 15.2342C192.752 15.2471 192.755 15.2683 192.682 15.2814C192.61 15.2944 192.548 15.2838 192.545 15.2579C192.541 15.2319 192.601 15.2213 192.676 15.2342ZM185.996 27.1205C185.914 27.1183 185.847 27.1172 185.793 27.118V27.089C185.825 27.0903 185.859 27.0908 185.894 27.0902C186.059 27.0875 186.251 27.0959 186.32 27.1088C186.402 27.1243 186.291 27.1283 185.996 27.1205ZM185.851 27.01C185.831 27.0092 185.811 27.0087 185.793 27.0086V26.9814C185.81 26.9816 185.828 26.9818 185.847 26.9818C185.994 26.9817 186.116 26.9906 186.117 27.0016C186.119 27.0126 185.999 27.0164 185.851 27.01ZM186.226 32.5847C186.544 32.5845 186.807 32.6573 186.532 32.6695C186.412 32.6748 186.252 32.6685 186.176 32.6556C185.95 32.6171 185.973 32.5848 186.226 32.5847ZM186.227 32.3394C186.374 32.3393 186.496 32.3472 186.497 32.357C186.498 32.3668 186.379 32.3801 186.233 32.3866C186.087 32.3931 185.965 32.3852 185.964 32.369C185.962 32.3528 186.08 32.3395 186.227 32.3394ZM186.157 31.9999C186.561 31.9996 186.664 32.1373 186.298 32.1879C185.976 32.2323 185.95 32.2271 185.935 32.1179C185.926 32.0531 186.026 31.9999 186.157 31.9999ZM186.253 31.9418C186.573 31.9439 186.514 31.9698 186.17 31.9782C185.994 31.9824 185.897 31.9757 185.955 31.9632C186.012 31.9507 186.146 31.9411 186.253 31.9418ZM187.075 31.7743C187.211 31.7735 187.092 31.7887 186.812 31.8081C186.466 31.832 186.239 31.8367 186.108 31.8226C185.932 31.8039 186.449 31.778 187.075 31.7743ZM186.035 31.6147C186.239 31.5762 186.67 31.5757 186.674 31.6139C186.676 31.6301 186.791 31.6383 186.928 31.6322C187.065 31.6261 187.162 31.6383 187.142 31.6592C187.105 31.6983 186.455 31.7048 186.084 31.6698L186.04 31.6657L186.04 31.6657C185.942 31.6566 185.896 31.6522 185.896 31.6462C185.896 31.6408 185.932 31.634 186.001 31.6211L186.035 31.6147ZM186.533 31.4235C186.82 31.4716 186.882 31.4741 186.993 31.4421C187.097 31.4121 187.129 31.4141 187.159 31.4523C187.18 31.4796 186.989 31.5089 186.708 31.5216C186.261 31.5416 186.22 31.5361 186.211 31.4556C186.202 31.3687 186.204 31.3684 186.533 31.4235ZM186.81 31.164C187.373 31.1561 187.445 31.1605 187.319 31.195C187.237 31.2171 187.17 31.2692 187.168 31.3107C187.166 31.3717 187.112 31.3798 186.886 31.3529C186.732 31.3346 186.498 31.3244 186.366 31.3303C186.234 31.3362 186.132 31.3032 186.14 31.2571C186.152 31.1836 186.234 31.1721 186.81 31.164ZM186.704 30.6097C187.081 30.5899 187.118 30.5792 186.867 30.5618C186.418 30.5307 186.459 30.4904 186.94 30.4901C187.252 30.49 187.339 30.5139 187.333 30.5984C187.329 30.6581 187.263 30.6963 187.187 30.6834C186.863 30.6281 186.56 30.6678 186.572 30.7639C186.585 30.8761 187.022 30.9061 187.186 30.806C187.248 30.7678 187.307 30.7852 187.342 30.8519C187.373 30.9122 187.271 30.9649 187.108 30.9721C186.9 30.9814 186.901 30.9907 187.112 31.0053C187.274 31.0165 187.407 31.0384 187.409 31.0539C187.412 31.0749 187.333 31.0768 187.11 31.0613C186.944 31.0497 186.634 31.0451 186.423 31.0509C186.098 31.06 186.052 31.0287 186.128 30.8484C186.203 30.6695 186.296 30.6311 186.704 30.6097ZM186.569 30.1886C186.868 30.1883 186.827 30.3163 186.524 30.3298C186.367 30.3368 186.284 30.3111 186.316 30.2651C186.345 30.2231 186.459 30.1887 186.569 30.1886ZM186.404 29.5094C186.543 29.5094 186.731 29.5177 186.823 29.528C187.115 29.5607 187.044 30.0704 186.742 30.1129C186.588 30.1346 186.284 29.9011 186.221 29.7124C186.182 29.5961 186.26 29.5095 186.404 29.5094ZM186.46 28.6821C186.739 28.662 186.839 28.6976 186.996 28.8735C187.157 29.0538 186.839 29.2451 186.378 29.2453C186.143 29.2455 186.222 28.6991 186.46 28.6821ZM186.497 28.0096C186.665 28.1312 186.563 28.2227 186.292 28.1926C186.2 28.1824 186.174 28.1116 186.232 28.0352L186.34 27.8964L186.497 28.0096ZM186.199 27.6796C186.346 27.6795 186.467 27.6832 186.468 27.6877C186.468 27.6923 186.349 27.7014 186.203 27.7079C186.056 27.7144 185.935 27.7107 185.934 27.6997C185.933 27.6887 186.052 27.6797 186.199 27.6796ZM186.148 27.2551C186.296 27.2615 186.415 27.2534 186.413 27.2372C186.411 27.221 186.289 27.2079 186.142 27.208C185.995 27.2081 185.876 27.2161 185.877 27.2259C185.878 27.2356 186 27.2488 186.148 27.2551ZM186.452 27.7632C186.585 27.769 186.634 27.7907 186.56 27.8114C186.374 27.8635 186.221 27.8589 186.214 27.8011C186.211 27.7745 186.318 27.7575 186.452 27.7632ZM186.268 26.7881C186.344 26.801 186.347 26.8223 186.274 26.8353C186.202 26.8483 186.14 26.8377 186.137 26.8118C186.133 26.7858 186.193 26.7752 186.268 26.7881ZM186.164 25.9204C186.239 25.9333 186.242 25.9545 186.169 25.9675C186.097 25.9805 186.035 25.97 186.032 25.944C186.029 25.9181 186.088 25.9074 186.164 25.9204ZM191.176 30.6952C191.286 30.6951 191.375 30.8669 191.373 31.077C191.371 31.3415 191.317 31.4097 191.199 31.2988C190.955 31.0686 190.941 30.6953 191.176 30.6952ZM191.251 30.5064C191.308 30.5064 191.345 30.5467 191.333 30.596C191.315 30.6731 191.286 30.6777 191.123 30.6291C190.947 30.5763 191.02 30.5066 191.251 30.5064ZM191.381 31.4826C191.457 31.4956 191.46 31.5168 191.387 31.5298C191.315 31.5428 191.253 31.5322 191.25 31.5063C191.246 31.4804 191.306 31.4697 191.381 31.4826ZM192.158 33.1896C192.278 33.1764 192.394 33.2538 192.419 33.3637C192.444 33.4725 192.385 33.5581 192.288 33.554C192.025 33.5427 191.908 33.2169 192.158 33.1896ZM191.767 25.9457C191.856 25.9519 191.868 25.9682 191.792 25.9818C191.709 25.9969 191.645 25.9925 191.629 25.9705C191.615 25.9507 191.677 25.9395 191.767 25.9457ZM193.131 32.5014C193.165 32.3904 193.143 32.2036 193.082 32.0864C193.02 31.9691 192.993 32.0599 193.02 32.2882C193.047 32.5164 193.098 32.6124 193.131 32.5014ZM193.053 30.8106C193.195 30.8005 193.261 30.7764 193.201 30.7572C193.12 30.7313 193.053 30.7361 192.944 30.7757C192.848 30.8102 192.887 30.8225 193.053 30.8106ZM193.166 30.6607C193.227 30.6372 193.221 30.6032 193.152 30.5852C193.082 30.5672 193.032 30.5865 193.04 30.628C193.048 30.6695 193.105 30.6842 193.166 30.6607ZM193.134 30.3966C193.195 30.3731 193.189 30.3391 193.12 30.3211C193.051 30.3031 193.001 30.3224 193.008 30.3639C193.016 30.4054 193.073 30.4201 193.134 30.3966ZM193.068 29.8117C193.123 29.7777 193.116 29.7268 193.052 29.6985C192.987 29.6702 192.942 29.6979 192.951 29.7602C192.96 29.8224 193.013 29.8456 193.068 29.8117ZM193.033 29.5382C193.091 29.5095 193.084 29.4671 193.018 29.4439C192.952 29.4207 192.905 29.4442 192.913 29.4961C192.921 29.548 192.975 29.5669 193.033 29.5382ZM192.727 27.0672C192.792 27.049 192.789 27.0193 192.719 27.0012C192.65 26.9831 192.596 26.998 192.601 27.0343C192.605 27.0706 192.662 27.0854 192.727 27.0672ZM192.682 26.756C192.755 26.743 192.752 26.7217 192.676 26.7088C192.601 26.6959 192.541 26.7065 192.545 26.7325C192.548 26.7584 192.61 26.769 192.682 26.756Z" fill="#42476D"/>
<path fill-rule="evenodd" clip-rule="evenodd" d="M0.5 16.0529C0.594372 16.0558 0.680103 16.0347 0.779623 15.9851C0.810206 16.2196 0.774766 16.3578 0.682705 16.3091L0.5 16.2122V16.616C0.769395 16.6215 0.983541 16.6323 0.984554 16.6407C0.985812 16.6511 0.758207 16.6506 0.5 16.644V16.8834C0.758109 16.9086 0.970668 16.9605 0.849986 16.9942C0.7773 17.0145 0.849243 17.0368 1.00998 17.0436C1.17072 17.0505 1.30369 17.0689 1.30557 17.0844C1.30745 17.1 1.17863 17.1072 1.01951 17.1003C0.818989 17.0918 0.789929 17.1146 0.92501 17.1748C1.04341 17.2274 1.01787 17.2616 0.859845 17.2617C0.747034 17.2618 0.602295 17.2316 0.5 17.1897V17.4353C0.560818 17.4301 0.633376 17.426 0.716305 17.4237C0.957229 17.417 1.19489 17.4144 1.24451 17.4178C1.29386 17.4213 1.37731 17.5077 1.42977 17.6099C1.49938 17.7456 1.43537 17.798 1.19195 17.8039C1.00878 17.8083 0.860703 17.8287 0.863178 17.8492C0.865656 17.8697 0.98737 17.8812 1.13365 17.8747C1.28871 17.8678 1.40253 17.8869 1.4066 17.9206C1.41043 17.9523 1.29325 17.9783 1.14619 17.9784C0.999131 17.9785 0.882604 18.01 0.887243 18.0484C0.893755 18.1023 0.681787 18.1134 0.5 18.0872V20.2689C0.614991 20.2748 0.617512 20.2779 0.5 20.2793V23.9513L0.530685 23.9498C0.67697 23.9433 0.798258 23.9513 0.800211 23.9674C0.802165 23.9836 0.683443 23.9969 0.536384 23.997L0.5 23.9968V25.3932V26.5638V26.964V26.9853V27.5255C0.594296 27.5284 0.679964 27.5074 0.779382 27.4579C0.810391 27.6935 0.775007 27.8326 0.682705 27.7837L0.5 27.6868V28.0907C0.769395 28.0961 0.983541 28.1069 0.984554 28.1153C0.985812 28.1257 0.758207 28.1252 0.5 28.1186V28.358C0.758109 28.3832 0.970668 28.4351 0.849986 28.4688C0.7773 28.4891 0.849243 28.5114 1.00998 28.5182C1.17072 28.5251 1.30369 28.5435 1.30557 28.559C1.30745 28.5746 1.17863 28.5818 1.01951 28.575C0.818989 28.5664 0.789929 28.5892 0.92501 28.6494C1.04341 28.702 1.01787 28.7362 0.859845 28.7363C0.747034 28.7364 0.602295 28.7062 0.5 28.6643V28.9099C0.560818 28.9047 0.633376 28.9006 0.716305 28.8983C0.957229 28.8917 1.19489 28.889 1.24451 28.8924C1.29386 28.8959 1.37731 28.9823 1.42977 29.0845C1.49938 29.2202 1.43537 29.2726 1.19195 29.2785C1.00878 29.2829 0.860703 29.3033 0.863178 29.3238C0.865656 29.3443 0.98737 29.3558 1.13365 29.3493C1.28871 29.3424 1.40253 29.3615 1.4066 29.3952C1.41043 29.4269 1.29325 29.453 1.14619 29.453C0.999131 29.4531 0.882604 29.4846 0.887243 29.523C0.893755 29.5769 0.681787 29.588 0.5 29.5618V31.7435C0.614991 31.7494 0.617512 31.7525 0.5 31.7539V35.4259L0.530685 35.4244C0.67697 35.4179 0.798258 35.4259 0.800211 35.442C0.802165 35.4582 0.683443 35.4715 0.536384 35.4716L0.5 35.4715V39.0002C0.610406 39.0035 0.708986 38.9741 0.831655 38.9047C1.02736 38.7937 1.05758 38.7893 1.15274 38.8576C1.21043 38.8991 1.37112 38.941 1.50948 38.9508C1.66537 38.9618 1.75878 38.8829 1.75499 38.7431C1.75027 38.569 1.81154 38.5295 2.0236 38.5694C2.18312 38.5994 2.49859 38.621 2.77453 38.6208C3.16062 38.6206 3.34963 38.6535 3.77312 38.7945C4.06037 38.8902 4.33717 38.9524 4.38802 38.9329C4.46213 38.9044 4.52848 38.9026 4.72007 38.9235C4.8962 38.9428 4.95998 38.9372 4.96194 38.9025C4.96335 38.8766 5.07505 38.8428 5.2101 38.8274C5.48284 38.7964 5.55146 38.8044 5.87349 38.9046C5.96129 38.932 6.20412 38.9588 6.41336 38.9643C6.73152 38.9728 6.76929 38.9401 6.64473 38.7635C6.53498 38.6076 6.57361 38.5599 6.79272 38.5807C7.04293 38.6044 7.08205 38.6029 7.04238 38.5711C6.9631 38.5081 7.047 38.4943 7.32866 38.5238C7.5112 38.5429 7.53145 38.5158 7.3922 38.4389L7.38062 38.4325C7.27926 38.3766 7.22074 38.3444 7.2135 38.3031C7.20361 38.2468 7.28935 38.1737 7.49222 38.0007L7.50942 37.986C7.73874 37.7903 7.74529 37.5037 7.53517 36.8823C7.36055 36.3666 7.34062 35.8829 7.48307 35.6278C7.95344 34.7869 7.98345 34.7033 7.80896 34.7154C7.71111 34.7222 7.57641 34.8157 7.5097 34.9231C7.44326 35.0306 7.28213 35.1266 7.1523 35.1365C6.82826 35.1613 6.6574 33.5369 6.92374 32.9638C7.07655 32.6351 7.15338 30.1527 7.03754 29.2891C7.01159 29.0965 6.57209 28.2564 6.47706 28.2179C6.39835 28.1861 6.45171 28.1697 6.61137 28.1765C6.75706 28.1827 6.8751 28.1793 6.87385 28.169C6.8726 28.1586 6.75062 28.1449 6.60278 28.1386C6.2504 28.1235 6.246 28.0539 6.59734 28.0537C6.84538 28.0536 6.8658 27.7537 6.68393 27.4664C6.73247 27.4392 6.71295 27.3856 6.64473 27.2889C6.53498 27.133 6.57361 27.0853 6.79272 27.1061C7.04293 27.1298 7.08205 27.1283 7.04238 27.0965C6.9631 27.0335 7.047 27.0196 7.32866 27.0492C7.5112 27.0683 7.53145 27.0411 7.3922 26.9642L7.38062 26.9579C7.27926 26.902 7.22074 26.8698 7.2135 26.8285C7.20361 26.7722 7.28936 26.6991 7.49223 26.5261L7.50942 26.5114C7.73874 26.3157 7.74529 26.0291 7.53517 25.4077C7.36055 24.8919 7.34062 24.4083 7.48307 24.1532C7.95344 23.3123 7.98345 23.2287 7.80896 23.2408C7.71111 23.2476 7.57641 23.3411 7.5097 23.4485C7.44326 23.556 7.28213 23.652 7.1523 23.6619C6.82826 23.6867 6.6574 22.0623 6.92374 21.4892C7.07655 21.1605 7.15338 18.6781 7.03754 17.8145C7.01159 17.6219 6.57209 16.7818 6.47706 16.7433C6.39835 16.7115 6.45171 16.6951 6.61137 16.7019C6.75706 16.7081 6.8751 16.7047 6.87385 16.6943C6.8726 16.684 6.75062 16.6703 6.60278 16.664C6.2504 16.6489 6.246 16.5793 6.59734 16.5791C6.84497 16.5789 6.86573 16.2801 6.68484 15.9933C6.73223 15.9658 6.71252 15.9123 6.64473 15.8162C6.53498 15.6604 6.57361 15.6127 6.79272 15.6334C7.04293 15.6572 7.08205 15.6556 7.04238 15.6239C6.9631 15.5609 7.047 15.547 7.32866 15.5765C7.5112 15.5957 7.53145 15.5685 7.3922 15.4916L7.38061 15.4852C7.27925 15.4294 7.22074 15.3971 7.2135 15.3559C7.20361 15.2995 7.28935 15.2264 7.49221 15.0534L7.50942 15.0387C7.73874 14.8431 7.74529 14.5564 7.53517 13.9351C7.36055 13.4193 7.34062 12.9357 7.48307 12.6805C7.95344 11.8397 7.98345 11.7561 7.80896 11.7682C7.71111 11.775 7.57641 11.8684 7.5097 11.9759C7.44326 12.0833 7.28213 12.1793 7.1523 12.1893C6.82826 12.214 6.6574 10.5896 6.92374 10.0165C7.07655 9.68781 7.15338 7.20542 7.03754 6.34189C7.01159 6.14923 6.57209 5.30915 6.47706 5.27065C6.39835 5.23887 6.45171 5.2224 6.61137 5.22923C6.75706 5.23546 6.8751 5.23207 6.87385 5.2217C6.8726 5.21132 6.75062 5.19766 6.60278 5.19134C6.2504 5.17627 6.246 5.10665 6.59734 5.10644C6.89975 5.10626 6.86381 4.66062 6.53546 4.33536C6.3851 4.18643 6.41796 4.13753 6.67301 4.13045C6.85743 4.12532 7.00679 4.10882 7.00497 4.09375C7.00314 4.07867 6.88197 4.07167 6.73568 4.07817C6.5894 4.08468 6.44727 4.07465 6.41986 4.05589C6.39246 4.03714 6.34174 4.00908 6.30697 3.99353C6.27247 3.97799 6.22385 3.91859 6.19904 3.86154C6.17162 3.79834 6.06815 3.76752 5.93468 3.78269C5.71758 3.80729 5.4966 3.6736 5.13119 3.29621C4.94756 3.10647 4.49814 3.02084 4.44556 3.1655C4.42868 3.21167 4.38801 3.25798 4.35504 3.26837C4.32207 3.27877 4.27455 3.36794 4.24956 3.46653L4.20357 3.64578L3.98073 3.52329C3.85814 3.45591 3.71011 3.31736 3.65206 3.21539C3.59375 3.11341 3.45269 3.02598 3.33845 3.02109C3.22422 3.01619 3.12863 2.99522 3.12612 2.97446C3.12361 2.95371 3.01757 2.94136 2.89017 2.94701C2.7617 2.95272 2.7615 2.99306 2.88963 3.03773C3.14814 3.12791 3.22084 3.21395 3.02722 3.20052C2.76727 3.18251 1.7655 2.79224 1.90929 2.7651C1.99321 2.74924 1.87589 2.73213 1.64063 2.72591C1.34421 2.71809 1.2069 2.68601 1.16733 2.61528L1.11171 2.51569L0.966494 2.61954C0.852025 2.70124 0.785744 2.71258 0.655514 2.6727C0.56417 2.64481 0.574126 2.58113 0.677191 2.53119C0.780256 2.48125 0.840063 2.43846 0.810099 2.43612C0.791292 2.43467 0.669452 2.43868 0.5 2.44594V3.61653C0.566558 3.71533 0.66572 3.99422 0.739138 4.29873C0.825436 4.65666 0.80012 4.89862 0.682705 4.83644L0.5 4.73954V5.1434C0.769395 5.14889 0.983541 5.15964 0.984554 5.16801C0.985812 5.17843 0.758207 5.17792 0.5 5.17136V5.41077C0.758109 5.43599 0.970668 5.48782 0.849986 5.52156C0.7773 5.54187 0.849243 5.56412 1.00998 5.57099C1.17072 5.57787 1.30369 5.59623 1.30557 5.61179C1.30745 5.62735 1.17863 5.6345 1.01951 5.62769C0.818989 5.61912 0.789929 5.64198 0.92501 5.7021C1.04341 5.75476 1.01787 5.78896 0.859845 5.78905C0.747034 5.78912 0.602295 5.75894 0.5 5.71702V5.96265C0.560818 5.95747 0.633376 5.95337 0.716305 5.95107C0.957229 5.94439 1.19489 5.94172 1.24451 5.94516C1.29386 5.94861 1.37731 6.03506 1.42977 6.13728C1.49938 6.27298 1.43537 6.32533 1.19195 6.33123C1.00878 6.33568 0.860703 6.35609 0.863178 6.37657C0.865656 6.39708 0.98737 6.40853 1.13365 6.40203C1.28871 6.39513 1.40253 6.41424 1.4066 6.44792C1.41043 6.47965 1.29325 6.50569 1.14619 6.50578C0.999131 6.50587 0.882604 6.53735 0.887243 6.57574C0.893755 6.62964 0.681787 6.64073 0.5 6.61452V8.7962C0.614991 8.80219 0.617512 8.80523 0.5 8.80664V12.4787L0.530685 12.4772C0.67697 12.4707 0.798258 12.4786 0.800211 12.4948C0.802165 12.5109 0.683443 12.5243 0.536384 12.5243L0.5 12.5242V13.9186V15.0892V15.4894V15.5107V16.0529ZM0.5 6.17076C0.553692 6.16996 0.620604 6.17105 0.702769 6.17322C0.998388 6.18102 1.10914 6.17703 1.02679 6.16157C0.957572 6.14863 0.766169 6.14024 0.600974 6.14294C0.565715 6.14352 0.531711 6.14308 0.5 6.14178V6.17076ZM0.5 6.06136C0.518505 6.06146 0.537852 6.06193 0.557865 6.06279C0.705699 6.06912 0.825567 6.06529 0.824241 6.05431C0.822914 6.04333 0.701505 6.03441 0.554446 6.03449C0.535217 6.03451 0.517075 6.03438 0.5 6.03414V6.06136ZM0.5 4.038C0.510596 4.03049 0.510882 4.02323 0.5 4.01673V4.038ZM1.23953 11.7222C1.51428 11.71 1.25118 11.6372 0.932734 11.6374C0.680059 11.6376 0.657215 11.6698 0.88274 11.7083C0.958914 11.7213 1.11931 11.7276 1.23953 11.7222ZM1.20391 11.4097C1.20273 11.4 1.08145 11.3921 0.934388 11.3922C0.787328 11.3922 0.668606 11.4056 0.67056 11.4217C0.672513 11.4379 0.793801 11.4458 0.940086 11.4393C1.08637 11.4328 1.20509 11.4195 1.20391 11.4097ZM1.00459 11.2407C1.37123 11.1901 1.2685 11.0524 0.864217 11.0526C0.7332 11.0527 0.633189 11.1058 0.641828 11.1707C0.656623 11.2798 0.683454 11.285 1.00459 11.2407ZM0.877369 11.0309C1.22104 11.0226 1.27995 10.9967 0.959879 10.9945C0.853101 10.9938 0.718959 11.0035 0.66164 11.0159C0.60432 11.0284 0.701399 11.0352 0.877369 11.0309ZM1.51863 10.8608C1.79947 10.8414 1.91796 10.8262 1.78195 10.827C1.15642 10.8307 0.639448 10.8566 0.814992 10.8754C0.945844 10.8894 1.17257 10.8847 1.51863 10.8608ZM1.38153 10.6667C1.37691 10.6284 0.945925 10.629 0.741739 10.6675L0.707771 10.6739C0.638951 10.6867 0.602579 10.6935 0.602785 10.6989C0.603016 10.705 0.649172 10.7093 0.747064 10.7184L0.747087 10.7184L0.747149 10.7184L0.747185 10.7184L0.790637 10.7225C1.16228 10.7576 1.81182 10.7511 1.8488 10.7119C1.86873 10.691 1.77234 10.6789 1.63483 10.685C1.49759 10.6911 1.38348 10.6828 1.38153 10.6667ZM1.70037 10.4948C1.58926 10.5269 1.52665 10.5243 1.24007 10.4762C0.911454 10.4211 0.908545 10.4214 0.917985 10.5084C0.926635 10.5888 0.968219 10.5944 1.41503 10.5743C1.69614 10.5617 1.887 10.5324 1.86579 10.5051C1.83603 10.4668 1.80451 10.4649 1.70037 10.4948ZM2.02562 10.2477C2.15248 10.2132 2.07975 10.2088 1.51703 10.2167C0.941491 10.2249 0.858649 10.2364 0.846671 10.3099C0.83914 10.356 0.940989 10.3889 1.07291 10.3831C1.2051 10.3772 1.43897 10.3873 1.59279 10.4056C1.81905 10.4325 1.87316 10.4245 1.87514 10.3634C1.87655 10.3219 1.94433 10.2698 2.02562 10.2477ZM1.57422 9.61454C1.82473 9.63191 1.78806 9.64263 1.41074 9.66246C1.0026 9.68387 0.910179 9.72228 0.834994 9.90117C0.75917 10.0814 0.804668 10.1127 1.12981 10.1037C1.34141 10.0978 1.65055 10.1025 1.81693 10.114C2.04048 10.1295 2.1186 10.1276 2.11607 10.1067C2.11419 10.0911 1.98079 10.0692 1.81953 10.0581C1.60839 10.0434 1.60727 10.0341 1.81552 10.0249C1.97777 10.0177 2.08023 9.96493 2.04888 9.90469C2.01408 9.83794 1.95502 9.82057 1.89278 9.85873C1.72892 9.9588 1.29239 9.92888 1.27883 9.81665C1.26721 9.7205 1.57019 9.68083 1.89428 9.7361C1.96991 9.74902 2.03562 9.71079 2.03991 9.65112C2.04627 9.5666 1.95942 9.54269 1.64685 9.54288C1.16583 9.54317 1.12523 9.58339 1.57422 9.61454ZM1.23146 9.38254C1.5344 9.36908 1.57481 9.24101 1.27617 9.24134C1.16601 9.24146 1.05198 9.27589 1.02309 9.31784C0.991481 9.36388 1.07427 9.38954 1.23146 9.38254ZM1.53006 8.58074C1.43817 8.57045 1.24998 8.56209 1.11148 8.56218C0.967091 8.56226 0.889036 8.64879 0.927957 8.76509C0.991403 8.95381 1.29504 9.18732 1.44885 9.16568C1.75149 9.12313 1.82228 8.61348 1.53006 8.58074ZM1.70261 7.92625C1.54579 7.75038 1.44602 7.71475 1.1666 7.7348C0.929335 7.75183 0.850156 8.29821 1.08518 8.29807C1.54615 8.29779 1.86371 8.10659 1.70261 7.92625ZM0.999162 7.24532C1.2702 7.27545 1.37252 7.18389 1.20381 7.06229L1.04681 6.94919L0.939508 7.08797C0.880544 7.1643 0.90728 7.23511 0.999162 7.24532ZM1.17455 6.74048C1.17399 6.73589 1.05322 6.73223 0.906161 6.73232C0.759101 6.73241 0.639867 6.74148 0.641194 6.75246C0.64252 6.76343 0.763295 6.76712 0.90958 6.76061C1.05586 6.75411 1.1751 6.74506 1.17455 6.74048ZM1.12011 6.28996C1.12207 6.30612 1.00271 6.31419 0.854877 6.30787C0.707042 6.30154 0.585123 6.28839 0.583942 6.27862C0.582761 6.26885 0.702119 6.2608 0.849178 6.26071C0.996238 6.26062 1.11816 6.27379 1.12011 6.28996ZM1.26677 6.86418C1.34127 6.8434 1.29239 6.8217 1.15853 6.81597C1.02468 6.81024 0.917635 6.82728 0.920842 6.85382C0.927826 6.91162 1.0808 6.91621 1.26677 6.86418ZM0.981169 5.88803C1.05393 5.875 1.05137 5.85378 0.975471 5.84087C0.899838 5.82793 0.840426 5.83859 0.84356 5.86453C0.846695 5.89047 0.90867 5.90103 0.981169 5.88803ZM0.876321 5.02026C0.949085 5.00724 0.946521 4.98602 0.870623 4.9731C0.79499 4.96017 0.735578 4.97083 0.738712 4.99676C0.741846 5.0227 0.803822 5.03327 0.876321 5.02026ZM2.00089 2.51404C2.00144 2.51862 1.88221 2.52768 1.73592 2.53418C1.58964 2.54068 1.46886 2.537 1.46753 2.52602C1.46621 2.51504 1.58544 2.50597 1.7325 2.50588C1.87956 2.50579 2.00033 2.50946 2.00089 2.51404ZM1.5657 2.00172C1.65522 2.00793 1.66682 2.0242 1.59119 2.03785C1.50771 2.05295 1.4438 2.04852 1.42831 2.02655C1.41441 2.00668 1.47617 1.99551 1.5657 2.00172ZM6.08013 10.1298C6.08202 9.91966 5.99334 9.74781 5.88318 9.7479C5.64762 9.74808 5.66197 10.1213 5.90638 10.3516C6.02407 10.4625 6.07759 10.3942 6.08013 10.1298ZM6.04019 9.64872C6.05162 9.59942 6.01466 9.55912 5.95851 9.55916C5.72669 9.55929 5.65357 9.62909 5.83028 9.68186C5.99284 9.73044 6.02223 9.7258 6.04019 9.64872ZM6.09419 10.5825C6.16696 10.5695 6.16439 10.5483 6.0885 10.5354C6.01286 10.5224 5.95345 10.5331 5.95659 10.559C5.95972 10.585 6.0217 10.5955 6.09419 10.5825ZM7.126 12.4165C7.10122 12.3065 6.98518 12.2292 6.86484 12.2423C6.61544 12.2696 6.73209 12.5955 6.9955 12.6067C7.092 12.6109 7.15064 12.5252 7.126 12.4165ZM6.03526 3.58376C6.12478 3.58997 6.13637 3.60625 6.06074 3.61989C5.97727 3.635 5.91336 3.63057 5.89787 3.6086C5.88397 3.58872 5.94573 3.57755 6.03526 3.58376ZM6.49907 5.03457C6.5747 5.02092 6.56311 5.00464 6.47358 4.99844C6.38406 4.99223 6.3223 5.00339 6.3362 5.02327C6.35169 5.04524 6.4156 5.04967 6.49907 5.03457ZM7.78857 11.1391C7.8498 11.2564 7.8721 11.4431 7.83845 11.5541C7.80453 11.6651 7.75443 11.5692 7.72712 11.3409C7.69981 11.1127 7.72734 11.0218 7.78857 11.1391ZM7.90795 9.80996C7.9683 9.82918 7.90168 9.85322 7.76038 9.86336C7.59442 9.87527 7.55549 9.8629 7.65106 9.82841C7.7602 9.78886 7.82701 9.78407 7.90795 9.80996ZM6.88526 3.97943C6.97479 3.98564 6.98638 4.00192 6.91075 4.01557C6.82728 4.03067 6.76337 4.02624 6.74788 4.00427C6.73398 3.98439 6.79574 3.97322 6.88526 3.97943ZM7.85855 9.63797C7.92758 9.65596 7.93409 9.68992 7.87302 9.71342C7.81195 9.73693 7.75535 9.72221 7.7474 9.68071C7.73944 9.63921 7.78953 9.61997 7.85855 9.63797ZM7.82664 9.37387C7.89567 9.39186 7.90218 9.42582 7.84111 9.44932C7.78004 9.47283 7.72344 9.45811 7.71549 9.41661C7.70753 9.37511 7.75762 9.35587 7.82664 9.37387ZM7.7589 8.75122C7.82329 8.77954 7.83051 8.83047 7.77525 8.86441C7.71972 8.89834 7.66692 8.87519 7.65806 8.81294C7.64893 8.75069 7.69424 8.72291 7.7589 8.75122ZM7.7252 8.49663C7.79137 8.5198 7.7981 8.56224 7.74034 8.59095C7.6823 8.61966 7.62814 8.60071 7.61973 8.54884C7.61159 8.49696 7.65902 8.47347 7.7252 8.49663ZM7.42605 6.05395C7.49562 6.07206 7.49921 6.10179 7.43402 6.11998C7.3691 6.13817 7.31223 6.12335 7.30784 6.08704C7.30345 6.05072 7.35674 6.03585 7.42605 6.05395ZM7.3835 5.76156C7.4594 5.77447 7.46196 5.7957 7.3892 5.80872C7.3167 5.82172 7.25472 5.81116 7.25159 5.78522C7.24846 5.75928 7.30787 5.74862 7.3835 5.76156ZM0.5 17.6434C0.553692 17.6426 0.620604 17.6437 0.702769 17.6459C0.998388 17.6537 1.10914 17.6497 1.02679 17.6342C0.957572 17.6213 0.766169 17.6129 0.600974 17.6156C0.565715 17.6162 0.531711 17.6157 0.5 17.6144V17.6434ZM0.5 17.534C0.518505 17.5341 0.537852 17.5346 0.557865 17.5354C0.705699 17.5418 0.825567 17.5379 0.824241 17.527C0.822914 17.516 0.701505 17.5071 0.554446 17.5071C0.535217 17.5072 0.517075 17.507 0.5 17.5068V17.534ZM1.23953 23.1949C1.51428 23.1826 1.25118 23.1099 0.932734 23.1101C0.680059 23.1102 0.657215 23.1424 0.88274 23.181C0.958914 23.1939 1.11931 23.2002 1.23953 23.1949ZM1.20391 22.8824C1.20273 22.8726 1.08145 22.8647 0.934388 22.8648C0.787328 22.8649 0.668606 22.8782 0.67056 22.8944C0.672513 22.9105 0.793801 22.9185 0.940086 22.912C1.08637 22.9055 1.20509 22.8922 1.20391 22.8824ZM1.00459 22.7133C1.37123 22.6627 1.2685 22.525 0.864217 22.5253C0.7332 22.5253 0.633189 22.5784 0.641828 22.6433C0.656623 22.7525 0.683454 22.7577 1.00459 22.7133ZM0.877369 22.5036C1.22104 22.4952 1.27995 22.4693 0.959879 22.4672C0.853101 22.4665 0.718959 22.4761 0.66164 22.4886C0.60432 22.5011 0.701399 22.5078 0.877369 22.5036ZM1.51863 22.3335C1.79947 22.314 1.91796 22.2988 1.78195 22.2996C1.15642 22.3034 0.639448 22.3292 0.814992 22.348C0.945844 22.3621 1.17257 22.3574 1.51863 22.3335ZM1.38153 22.1393C1.37691 22.1011 0.945925 22.1016 0.741739 22.1401L0.707758 22.1465H0.707745H0.707732H0.70772C0.638933 22.1594 0.602579 22.1662 0.602785 22.1716C0.603016 22.1776 0.649188 22.1819 0.747113 22.1911L0.747153 22.1911L0.790637 22.1952C1.16228 22.2302 1.81182 22.2237 1.8488 22.1846C1.86873 22.1636 1.77234 22.1515 1.63483 22.1576C1.49759 22.1637 1.38348 22.1555 1.38153 22.1393ZM1.70037 21.9675C1.58926 21.9995 1.52665 21.997 1.24007 21.9489C0.911454 21.8938 0.908545 21.894 0.917985 21.981C0.926635 22.0615 0.968219 22.067 1.41503 22.0469C1.69614 22.0343 1.887 22.005 1.86579 21.9777C1.83603 21.9395 1.80451 21.9375 1.70037 21.9675ZM2.02562 21.7204C2.15248 21.6859 2.07975 21.6815 1.51703 21.6894C0.941491 21.6975 0.858649 21.709 0.846671 21.7825C0.83914 21.8286 0.940989 21.8616 1.07291 21.8557C1.2051 21.8498 1.43897 21.86 1.59279 21.8783C1.81905 21.9052 1.87316 21.8971 1.87514 21.8361C1.87655 21.7945 1.94433 21.7425 2.02562 21.7204ZM1.57422 21.0872C1.82473 21.1046 1.78806 21.1153 1.41074 21.1351C1.0026 21.1565 0.910179 21.1949 0.834994 21.3738C0.75917 21.5541 0.804668 21.5854 1.12981 21.5763C1.34141 21.5705 1.65055 21.5751 1.81693 21.5866C2.04048 21.6021 2.1186 21.6003 2.11607 21.5793C2.11419 21.5638 1.98079 21.5419 1.81953 21.5307C1.60839 21.5161 1.60727 21.5068 1.81552 21.4975C1.97777 21.4903 2.08023 21.4376 2.04888 21.3773C2.01408 21.3106 1.95502 21.2932 1.89278 21.3314C1.72892 21.4314 1.29239 21.4015 1.27883 21.2893C1.26721 21.1931 1.57019 21.1535 1.89428 21.2088C1.96991 21.2217 2.03562 21.1834 2.03991 21.1238C2.04627 21.0392 1.95942 21.0153 1.64685 21.0155C1.16583 21.0158 1.12523 21.056 1.57422 21.0872ZM1.23146 20.8552C1.5344 20.8417 1.57481 20.7137 1.27617 20.714C1.16601 20.7141 1.05198 20.7485 1.02309 20.7905C0.991481 20.8365 1.07427 20.8622 1.23146 20.8552ZM1.53006 20.0534C1.43817 20.0431 1.24998 20.0347 1.11148 20.0348C0.967091 20.0349 0.889036 20.1214 0.927957 20.2377C0.991403 20.4265 1.29504 20.66 1.44885 20.6383C1.75149 20.5958 1.82228 20.0861 1.53006 20.0534ZM1.70261 19.3989C1.54579 19.223 1.44602 19.1874 1.1666 19.2075C0.929335 19.2245 0.850156 19.7709 1.08518 19.7707C1.54615 19.7704 1.86371 19.5792 1.70261 19.3989ZM0.999162 18.718C1.2702 18.7481 1.37252 18.6565 1.20381 18.5349L1.04681 18.4218L0.939508 18.5606C0.880544 18.637 0.90728 18.7078 0.999162 18.718ZM1.17455 18.2131C1.17399 18.2085 1.05322 18.2049 0.906161 18.205C0.759101 18.2051 0.639867 18.2141 0.641194 18.2251C0.64252 18.2361 0.763295 18.2398 0.90958 18.2333C1.05586 18.2268 1.1751 18.2177 1.17455 18.2131ZM1.12011 17.7626C1.12207 17.7788 1.00271 17.7868 0.854877 17.7805C0.707042 17.7742 0.585123 17.761 0.583942 17.7513C0.582761 17.7415 0.702119 17.7334 0.849178 17.7334C0.996238 17.7333 1.11816 17.7464 1.12011 17.7626ZM1.26677 18.3368C1.34127 18.3161 1.29239 18.2943 1.15853 18.2886C1.02468 18.2829 0.917635 18.2999 0.920842 18.3265C0.927826 18.3843 1.0808 18.3889 1.26677 18.3368ZM0.981169 17.3607C1.05393 17.3477 1.05137 17.3264 0.975471 17.3135C0.899838 17.3006 0.840426 17.3112 0.84356 17.3372C0.846695 17.3631 0.90867 17.3737 0.981169 17.3607ZM0.876321 16.4929C0.949085 16.4799 0.946521 16.4587 0.870623 16.4458C0.79499 16.4328 0.735578 16.4435 0.738712 16.4694C0.741846 16.4954 0.803822 16.5059 0.876321 16.4929ZM6.08013 21.6024C6.08202 21.3923 5.99334 21.2205 5.88318 21.2205C5.64762 21.2207 5.66197 21.594 5.90638 21.8242C6.02407 21.9351 6.07759 21.8669 6.08013 21.6024ZM6.04019 21.1214C6.05162 21.0721 6.01466 21.0318 5.95851 21.0318C5.72669 21.0319 5.65357 21.1017 5.83028 21.1545C5.99284 21.2031 6.02223 21.1984 6.04019 21.1214ZM6.09419 22.0552C6.16696 22.0422 6.16439 22.0209 6.0885 22.008C6.01286 21.9951 5.95345 22.0058 5.95659 22.0317C5.95972 22.0576 6.0217 22.0682 6.09419 22.0552ZM7.126 23.8891C7.10122 23.7792 6.98518 23.7018 6.86484 23.715C6.61544 23.7423 6.73209 24.0681 6.9955 24.0794C7.092 24.0835 7.15064 23.9979 7.126 23.8891ZM6.49907 16.5072C6.5747 16.4936 6.56311 16.4773 6.47358 16.4711C6.38406 16.4649 6.3223 16.476 6.3362 16.4959C6.35169 16.5179 6.4156 16.5223 6.49907 16.5072ZM7.78857 22.6118C7.8498 22.729 7.8721 22.9158 7.83845 23.0268C7.80453 23.1378 7.75443 23.0418 7.72712 22.8136C7.69981 22.5853 7.72734 22.4945 7.78857 22.6118ZM7.90795 21.2826C7.9683 21.3018 7.90168 21.3259 7.76038 21.336C7.59442 21.3479 7.55549 21.3355 7.65106 21.3011C7.7602 21.2615 7.82701 21.2567 7.90795 21.2826ZM7.85855 21.1106C7.92758 21.1286 7.93409 21.1626 7.87302 21.1861C7.81195 21.2096 7.75535 21.1949 7.7474 21.1534C7.73944 21.1119 7.78953 21.0926 7.85855 21.1106ZM7.82664 20.8465C7.89567 20.8645 7.90218 20.8985 7.84111 20.922C7.78004 20.9455 7.72344 20.9308 7.71549 20.8893C7.70753 20.8478 7.75762 20.8285 7.82664 20.8465ZM7.7589 20.2239C7.82329 20.2522 7.83051 20.3031 7.77525 20.3371C7.71972 20.371 7.66692 20.3478 7.65806 20.2856C7.64893 20.2233 7.69424 20.1956 7.7589 20.2239ZM7.7252 19.9693C7.79137 19.9924 7.7981 20.0349 7.74034 20.0636C7.6823 20.0923 7.62814 20.0734 7.61973 20.0215C7.61159 19.9696 7.65902 19.9461 7.7252 19.9693ZM7.42605 17.5266C7.49562 17.5447 7.49921 17.5744 7.43402 17.5926C7.3691 17.6108 7.31223 17.596 7.30784 17.5597C7.30345 17.5234 7.35674 17.5085 7.42605 17.5266ZM7.3835 17.2342C7.4594 17.2471 7.46196 17.2683 7.3892 17.2814C7.3167 17.2944 7.25472 17.2838 7.25159 17.2579C7.24846 17.2319 7.30787 17.2213 7.3835 17.2342ZM0.702769 29.1205C0.620604 29.1183 0.553692 29.1172 0.5 29.118V29.089C0.531711 29.0903 0.565715 29.0908 0.600974 29.0902C0.766169 29.0875 0.957572 29.0959 1.02679 29.1088C1.10914 29.1243 0.998388 29.1283 0.702769 29.1205ZM0.557865 29.01C0.537852 29.0092 0.518505 29.0087 0.5 29.0086V28.9814C0.517075 28.9816 0.535217 28.9818 0.554446 28.9818C0.701505 28.9817 0.822914 28.9906 0.824241 29.0016C0.825567 29.0126 0.705699 29.0164 0.557865 29.01ZM0.932734 34.5847C1.25118 34.5845 1.51428 34.6573 1.23953 34.6695C1.11931 34.6748 0.958914 34.6685 0.88274 34.6556C0.657215 34.6171 0.680059 34.5848 0.932734 34.5847ZM0.934388 34.3394C1.08145 34.3393 1.20273 34.3472 1.20391 34.357C1.20509 34.3668 1.08637 34.3801 0.940086 34.3866C0.793801 34.3931 0.672513 34.3852 0.67056 34.369C0.668606 34.3528 0.787328 34.3395 0.934388 34.3394ZM0.864217 33.9999C1.2685 33.9996 1.37123 34.1373 1.00459 34.1879C0.683454 34.2323 0.656623 34.2271 0.641828 34.1179C0.633189 34.0531 0.7332 33.9999 0.864217 33.9999ZM0.959879 33.9418C1.27995 33.9439 1.22104 33.9698 0.877369 33.9782C0.701399 33.9824 0.60432 33.9757 0.66164 33.9632C0.718959 33.9507 0.853101 33.9411 0.959879 33.9418ZM1.78195 33.7743C1.91796 33.7735 1.79947 33.7887 1.51863 33.8081C1.17257 33.832 0.945844 33.8367 0.814992 33.8226C0.639448 33.8039 1.15642 33.778 1.78195 33.7743ZM0.741739 33.6147C0.945925 33.5762 1.37691 33.5757 1.38153 33.6139C1.38348 33.6301 1.49759 33.6383 1.63483 33.6322C1.77234 33.6261 1.86873 33.6383 1.8488 33.6592C1.81182 33.6983 1.16228 33.7048 0.790637 33.6698L0.747217 33.6657L0.747185 33.6657C0.64921 33.6566 0.603016 33.6522 0.602785 33.6462C0.602579 33.6408 0.638955 33.634 0.707783 33.6211L0.741739 33.6147ZM1.24007 33.4235C1.52665 33.4716 1.58926 33.4741 1.70037 33.4421C1.80451 33.4121 1.83603 33.4141 1.86579 33.4523C1.887 33.4796 1.69614 33.5089 1.41503 33.5216C0.968219 33.5416 0.926635 33.5361 0.917985 33.4556C0.908545 33.3687 0.911454 33.3684 1.24007 33.4235ZM1.51703 33.164C2.07975 33.1561 2.15248 33.1605 2.02562 33.195C1.94433 33.2171 1.87655 33.2692 1.87514 33.3107C1.87316 33.3717 1.81905 33.3798 1.59279 33.3529C1.43897 33.3346 1.2051 33.3244 1.07291 33.3303C0.940989 33.3362 0.83914 33.3032 0.846671 33.2571C0.858649 33.1836 0.941491 33.1721 1.51703 33.164ZM1.41074 32.6097C1.78806 32.5899 1.82473 32.5792 1.57422 32.5618C1.12523 32.5307 1.16583 32.4904 1.64685 32.4901C1.95942 32.49 2.04627 32.5139 2.03991 32.5984C2.03562 32.6581 1.96991 32.6963 1.89428 32.6834C1.57019 32.6281 1.26721 32.6678 1.27883 32.7639C1.29239 32.8761 1.72892 32.9061 1.89278 32.806C1.95502 32.7678 2.01408 32.7852 2.04888 32.8519C2.08023 32.9122 1.97777 32.9649 1.81552 32.9721C1.60727 32.9814 1.60839 32.9907 1.81953 33.0053C1.98079 33.0165 2.11419 33.0384 2.11607 33.0539C2.1186 33.0749 2.04048 33.0768 1.81693 33.0613C1.65055 33.0497 1.34141 33.0451 1.12981 33.0509C0.804668 33.06 0.75917 33.0287 0.834994 32.8484C0.910179 32.6695 1.0026 32.6311 1.41074 32.6097ZM1.27617 32.1886C1.57481 32.1883 1.5344 32.3163 1.23146 32.3298C1.07427 32.3368 0.991481 32.3111 1.02309 32.2651C1.05198 32.2231 1.16601 32.1887 1.27617 32.1886ZM1.11148 31.5094C1.24998 31.5094 1.43817 31.5177 1.53006 31.528C1.82228 31.5607 1.75149 32.0704 1.44885 32.1129C1.29504 32.1346 0.991403 31.9011 0.927957 31.7124C0.889036 31.5961 0.967091 31.5095 1.11148 31.5094ZM1.1666 30.6821C1.44602 30.662 1.54579 30.6976 1.70261 30.8735C1.86371 31.0538 1.54615 31.2451 1.08518 31.2453C0.850156 31.2455 0.929335 30.6991 1.1666 30.6821ZM1.20381 30.0096C1.37252 30.1312 1.2702 30.2227 0.999162 30.1926C0.90728 30.1824 0.880544 30.1116 0.939508 30.0352L1.04681 29.8964L1.20381 30.0096ZM0.906161 29.6796C1.05322 29.6795 1.17399 29.6832 1.17455 29.6877C1.1751 29.6923 1.05586 29.7014 0.90958 29.7079C0.763295 29.7144 0.64252 29.7107 0.641194 29.6997C0.639867 29.6887 0.759101 29.6797 0.906161 29.6796ZM0.854877 29.2551C1.00271 29.2615 1.12207 29.2534 1.12011 29.2372C1.11816 29.221 0.996238 29.2079 0.849178 29.208C0.702119 29.2081 0.582761 29.2161 0.583942 29.2259C0.585123 29.2356 0.707042 29.2488 0.854877 29.2551ZM1.15853 29.7632C1.29239 29.769 1.34127 29.7907 1.26677 29.8114C1.0808 29.8635 0.927826 29.8589 0.920842 29.8011C0.917635 29.7745 1.02468 29.7575 1.15853 29.7632ZM0.975471 28.7881C1.05137 28.801 1.05393 28.8223 0.981169 28.8353C0.90867 28.8483 0.846695 28.8377 0.84356 28.8118C0.840426 28.7858 0.899838 28.7752 0.975471 28.7881ZM0.870623 27.9204C0.946521 27.9333 0.949085 27.9545 0.876321 27.9675C0.803822 27.9805 0.741846 27.97 0.738712 27.944C0.735578 27.9181 0.79499 27.9074 0.870623 27.9204ZM5.88318 32.6952C5.99334 32.6951 6.08202 32.8669 6.08013 33.077C6.07759 33.3415 6.02407 33.4097 5.90638 33.2988C5.66197 33.0686 5.64762 32.6953 5.88318 32.6952ZM5.95851 32.5064C6.01466 32.5064 6.05162 32.5467 6.04019 32.596C6.02223 32.6731 5.99284 32.6777 5.83028 32.6291C5.65357 32.5763 5.72669 32.5066 5.95851 32.5064ZM6.0885 33.4826C6.16439 33.4956 6.16696 33.5168 6.09419 33.5298C6.0217 33.5428 5.95972 33.5322 5.95659 33.5063C5.95345 33.4804 6.01286 33.4697 6.0885 33.4826ZM6.86484 35.1896C6.98518 35.1764 7.10122 35.2538 7.126 35.3637C7.15064 35.4725 7.092 35.5581 6.9955 35.554C6.73209 35.5427 6.61544 35.2169 6.86484 35.1896ZM6.47358 27.9457C6.56311 27.9519 6.5747 27.9682 6.49907 27.9818C6.4156 27.9969 6.35169 27.9925 6.3362 27.9705C6.3223 27.9507 6.38406 27.9395 6.47358 27.9457ZM7.83845 34.5014C7.8721 34.3904 7.8498 34.2036 7.78857 34.0864C7.72734 33.9691 7.69981 34.0599 7.72712 34.2882C7.75443 34.5164 7.80453 34.6124 7.83845 34.5014ZM7.76038 32.8106C7.90168 32.8005 7.9683 32.7764 7.90795 32.7572C7.82701 32.7313 7.7602 32.7361 7.65106 32.7757C7.55549 32.8102 7.59442 32.8225 7.76038 32.8106ZM7.87302 32.6607C7.93409 32.6372 7.92758 32.6032 7.85855 32.5852C7.78953 32.5672 7.73944 32.5865 7.7474 32.628C7.75535 32.6695 7.81195 32.6842 7.87302 32.6607ZM7.84111 32.3966C7.90218 32.3731 7.89567 32.3391 7.82664 32.3211C7.75762 32.3031 7.70753 32.3224 7.71549 32.3639C7.72344 32.4054 7.78004 32.4201 7.84111 32.3966ZM7.77525 31.8117C7.83051 31.7777 7.82329 31.7268 7.7589 31.6985C7.69424 31.6702 7.64893 31.6979 7.65806 31.7602C7.66692 31.8224 7.71972 31.8456 7.77525 31.8117ZM7.74034 31.5382C7.7981 31.5095 7.79137 31.4671 7.7252 31.4439C7.65902 31.4207 7.61159 31.4442 7.61973 31.4961C7.62814 31.548 7.6823 31.5669 7.74034 31.5382ZM7.43402 29.0672C7.49921 29.049 7.49562 29.0193 7.42605 29.0012C7.35674 28.9831 7.30345 28.998 7.30784 29.0343C7.31223 29.0706 7.3691 29.0854 7.43402 29.0672ZM7.3892 28.756C7.46196 28.743 7.4594 28.7217 7.3835 28.7088C7.30787 28.6959 7.24846 28.7065 7.25159 28.7325C7.25472 28.7584 7.3167 28.769 7.3892 28.756Z" fill="#42476D"/>
<path fill-rule="evenodd" clip-rule="evenodd" d="M187.863 31.2367C185.772 31.2578 184.733 31.2384 185.314 31.1749L186.92 31L180.254 31.077C180.169 31.3073 179.995 31.4919 179.857 31.4943C179.685 31.4974 179.69 31.3033 179.794 31.0823L175.851 31.1279C175.441 31.3524 174.589 31.5436 174.029 31.4474C173.694 31.3895 173.328 31.4549 173.218 31.5926C173.108 31.7304 172.808 31.8468 172.551 31.8513C172.295 31.8559 172.175 31.7479 172.284 31.6115C172.422 31.4396 172.044 31.4193 171.056 31.5454C170.191 31.656 169.627 31.6408 169.622 31.5067C169.619 31.4105 170.119 31.2811 170.813 31.1861L166.753 31.233C166.841 31.2839 166.911 31.3451 166.95 31.4157C167.065 31.6189 167.113 31.8202 167.057 31.8629C167.002 31.9055 165.579 31.9928 163.896 32.0568C161.661 32.1417 160.797 32.0973 160.696 31.8918C160.619 31.7372 160.28 31.6153 159.943 31.6213C159.605 31.6274 159.418 31.7329 159.528 31.8558C159.645 31.9861 159.332 32.0864 158.777 32.0962C158.254 32.1055 157.823 32.011 157.819 31.8862C157.815 31.7614 157.294 31.6684 156.661 31.6797C155.771 31.6955 155.586 31.5167 156.019 31.357L120.071 31.7724C119.974 31.8728 119.923 31.8756 119.898 31.7744L59.397 32.4734C59.4064 32.4823 59.4152 32.4913 59.4233 32.5004C59.5331 32.6234 59.4048 32.7279 59.1385 32.7326C58.8721 32.7373 58.6506 32.6391 58.6464 32.5142C58.6461 32.5034 58.6467 32.4926 58.6483 32.4821L0.51031 33.1538C0.451804 33.2488 0.937962 33.3271 2.08901 33.4185C3.92006 33.5635 3.9933 33.5883 2.86957 33.6821C2.18732 33.7389 1.49965 33.8833 1.341 34.0027C1.16229 34.1371 2.46421 34.2014 4.76709 34.1715C7.63559 34.1344 8.28852 34.1789 7.63432 34.3665C7.14332 34.5076 6.79293 34.7796 6.80074 35.0138C6.81161 35.3415 6.27361 35.5082 3.95774 35.8946C2.38689 36.1566 1.36616 36.4035 1.68927 36.4429C2.15947 36.5004 2.19151 36.5564 1.84971 36.723C1.53577 36.8762 1.62836 36.9293 2.20001 36.9243C2.62744 36.9206 3.18603 37.009 3.44167 37.1207C3.95787 37.3464 3.82773 37.4061 2.18226 37.6986C1.7334 37.7783 1.29513 37.9896 1.2081 38.1683C1.07534 38.44 1.61353 38.4658 4.52188 38.3264C7.08781 38.2036 7.87435 38.2273 7.53587 38.4173C7.14974 38.6342 7.17535 38.6671 7.69833 38.6274C8.7349 38.5481 8.96475 38.6167 8.4835 38.8614C8.17157 39.02 8.61942 39.032 9.88399 38.8992L9.9896 38.8881L9.9897 38.8881C10.6574 38.8178 11.1198 38.7691 11.5837 38.7424C12.6288 38.6822 13.6816 38.7336 17.1053 38.9007L17.3473 38.9125C20.5752 39.0699 25.2979 39.0209 35.5316 38.7243C44.0264 38.4778 51.9943 38.3688 56.2005 38.4412C70.0629 38.6804 71.4413 38.69 71.2384 38.5442C71.1246 38.4624 69.5822 38.3658 67.8108 38.3297C66.0397 38.2937 64.4542 38.1752 64.2883 38.0669C63.8744 37.7965 90.6347 37.3422 100.082 37.4592C105.501 37.5264 146.402 37.119 160.627 36.8563C163.801 36.7976 177.634 36.2646 178.267 36.1766C178.789 36.1037 179.061 36.1459 178.951 36.2827C178.851 36.4076 178.91 36.5071 179.08 36.5041C179.251 36.5011 179.474 36.3949 179.576 36.2682C179.818 35.9662 180.964 35.9492 180.974 36.2474C180.98 36.4164 184.162 36.4242 187.863 36.3126V31.2367ZM163.327 31.2726C163.341 31.3182 163.325 31.3756 163.29 31.4465C163.167 31.6989 163.235 31.7922 163.488 31.7193C163.7 31.6581 163.835 31.494 163.787 31.3543C163.777 31.324 163.784 31.2946 163.805 31.2671L163.327 31.2726ZM165.129 31.2518C165.128 31.2679 165.121 31.2848 165.107 31.3024C165.005 31.4291 165.071 31.5302 165.251 31.5269C165.432 31.5237 165.577 31.419 165.573 31.2941C165.572 31.2773 165.574 31.2615 165.578 31.2466L165.129 31.2518ZM71.875 32.9585C72.0814 33.1894 73.2757 32.9522 73.2667 32.6819C73.2595 32.4674 72.728 32.4541 72.0978 32.6529C71.8851 32.7201 71.785 32.8574 71.875 32.9585ZM77.0227 32.8687C77.1836 32.8659 77.3117 32.7614 77.3076 32.6366C77.3034 32.5118 77.0818 32.4135 76.8155 32.4183C76.5492 32.423 76.4208 32.5275 76.5306 32.6504C76.6404 32.7734 76.8617 32.8716 77.0227 32.8687ZM79.8046 32.6674C80.6451 32.969 82.9119 32.8555 82.9005 32.5124C82.8968 32.4012 82.0199 32.3264 80.9515 32.3461C79.1532 32.3794 79.0682 32.4032 79.8046 32.6674ZM83.2583 32.5194C83.4017 32.8096 83.8295 32.8547 83.859 32.5825C83.8687 32.4918 83.7077 32.3797 83.5009 32.3334C83.2941 32.2872 83.185 32.3708 83.2583 32.5194ZM86.0727 33.0314C86.3977 33.2661 86.6503 33.3638 86.6346 33.2485C86.5617 32.7182 86.1259 32.2843 85.8197 32.4369C85.5906 32.5506 85.6722 32.7422 86.0727 33.0314ZM89.2688 32.8781C89.8991 32.8669 89.8819 32.5011 89.2436 32.3351L89.1379 32.3074C88.8766 32.2388 88.7664 32.2099 88.6654 32.2287C88.5918 32.2424 88.523 32.2817 88.4041 32.3495L88.338 32.3871C87.7672 32.7093 87.886 33.2594 88.5317 33.2834C88.877 33.2963 89.075 33.2122 88.972 33.0966C88.8686 32.9813 89.0025 32.8828 89.2688 32.8781ZM92.1058 33.116C91.5761 33.0278 91.6166 32.9742 92.4036 32.7217C93.306 32.4323 93.3013 32.4299 91.8683 32.4544C90.5432 32.4771 90.4526 32.5134 90.7913 32.8889C91.0047 33.1252 91.4907 33.2816 91.9401 33.2584C92.5697 33.2259 92.6014 33.1987 92.1058 33.116ZM96.1831 33.3451C96.7537 33.4462 96.8253 33.3836 96.6841 32.9075C96.5398 32.4204 96.3485 32.3523 95.1375 32.3561C94.3775 32.3585 93.8368 32.4512 93.9359 32.5621C94.0351 32.6732 93.872 32.8737 93.5736 33.0077C93.1346 33.2049 93.2682 33.2493 94.2744 33.2394C94.9583 33.2327 95.8172 33.2803 96.1831 33.3451ZM106.607 32.8414C106.325 33.0573 106.148 33.0282 105.815 32.7117C105.454 32.3693 104.82 32.2982 101.871 32.2684C98.9001 32.2383 98.3851 32.2829 98.5397 32.5572C98.6405 32.7357 98.5697 32.999 98.3826 33.1425C98.1312 33.3352 98.1639 33.4012 98.5085 33.395C98.7649 33.3905 99.1229 33.2731 99.3043 33.134C99.5417 32.952 99.6946 32.9493 99.8509 33.1243C99.9727 33.2607 100.843 33.3376 101.835 33.2996C102.934 33.2573 103.22 33.2039 102.59 33.1583C100.938 33.0382 101.423 32.6619 103.272 32.6291C104.856 32.6009 105.515 32.8506 104.61 33.1362C104.399 33.2029 105.03 33.2514 106.013 33.2437C107.406 33.233 107.798 33.1547 107.789 32.8894C107.776 32.4811 107.112 32.4543 106.607 32.8414ZM110.423 32.5062C110.651 32.7608 112.761 32.7708 112.75 32.5173C112.746 32.4238 112.177 32.3336 111.485 32.317C110.726 32.2989 110.305 32.3741 110.423 32.5062ZM123.639 32.6071C123.807 32.5271 123.941 32.3658 123.937 32.2482C123.933 32.1256 122.506 32.0758 120.591 32.131C117.483 32.2208 113.641 32.523 114 32.6495C114.707 32.8983 123.105 32.8614 123.639 32.6071ZM134.426 32.629C137.32 32.4624 137.906 32.3709 137.57 32.1375C137.285 31.9393 128.282 31.9761 128.288 32.1756C128.301 32.5669 131.457 32.8001 134.426 32.629ZM145.632 31.9022C145.14 32.138 146.651 32.2074 148.651 32.041L150.512 31.8862L148.223 31.8216C146.964 31.786 145.798 31.8222 145.632 31.9022ZM153.953 31.9549C154.028 31.9536 154.086 31.8504 154.082 31.7256C154.078 31.6007 153.926 31.5012 153.745 31.5045C153.565 31.5077 153.506 31.6109 153.616 31.7338C153.726 31.8568 153.877 31.9563 153.953 31.9549ZM161.374 31.823C161.108 31.8277 160.973 31.7279 161.074 31.6012C161.176 31.4745 161.39 31.3685 161.551 31.3656C161.712 31.3628 161.847 31.4626 161.851 31.5874C161.855 31.7122 161.641 31.8182 161.374 31.823ZM151.916 32.0568C152.26 32.1161 152.617 32.0705 152.709 31.9557C152.8 31.841 152.518 31.7534 152.08 31.7611C151.128 31.7781 151.056 31.9088 151.916 32.0568ZM167.994 31.6285C168.21 31.6878 168.559 31.6816 168.771 31.6147C168.983 31.548 168.806 31.4996 168.379 31.5072C167.951 31.5148 167.778 31.5694 167.994 31.6285ZM182.289 31.3743C182.505 31.4336 182.855 31.4274 183.066 31.3605C183.278 31.2938 183.101 31.2454 182.674 31.253C182.247 31.2606 182.074 31.3152 182.289 31.3743ZM98.2008 36.7646C101.663 36.7262 104.492 36.6182 104.489 36.5247C104.482 36.3248 98.332 36.408 94.5436 36.6593C92.718 36.7804 93.8435 36.8128 98.2008 36.7646ZM106.126 36.6391C106.938 36.6395 107.602 36.6004 107.6 36.5528C107.593 36.356 106.442 36.3072 105.576 36.4673C104.779 36.6145 104.856 36.6386 106.126 36.6391ZM90.7412 36.8628C90.9571 36.9221 91.3067 36.9158 91.5182 36.8489C91.7299 36.7823 91.5532 36.7339 91.1259 36.7415C90.6986 36.7491 90.5257 36.8037 90.7412 36.8628ZM60.5449 38.0878C62.3557 38.0458 63.6278 37.9326 63.409 37.8329C62.9549 37.6264 57.5883 37.7875 57.4074 38.0132C57.3411 38.0959 58.7529 38.1294 60.5449 38.0878ZM182.157 36.1503C182.383 36.2119 182.651 36.199 182.752 36.1218C182.852 36.0446 182.667 35.9943 182.34 36.0099C181.978 36.0272 181.906 36.0823 182.157 36.1503ZM81.6024 38.4071C79.6715 38.4814 76.5949 38.5359 74.7656 38.5285C72.9364 38.5208 74.5161 38.46 78.2764 38.3934C82.0366 38.3267 83.5335 38.3328 81.6024 38.4071ZM103.504 38.2554C103.188 38.3103 102.791 38.2583 102.621 38.1403C102.422 38.0017 102.625 37.9663 103.195 38.0409C103.848 38.126 103.929 38.1818 103.504 38.2554ZM106.336 38.1808C106.041 38.2428 105.482 38.2548 105.093 38.2074C104.705 38.16 104.947 38.1092 105.63 38.0945C106.314 38.0799 106.632 38.1187 106.336 38.1808ZM110.687 38.1034C110.392 38.1654 109.833 38.1774 109.444 38.13C109.056 38.0827 109.297 38.0318 109.981 38.0172C110.664 38.0025 110.982 38.0414 110.687 38.1034ZM120.944 37.9273C120.479 37.9874 119.64 38.0032 119.08 37.9628C118.52 37.9221 118.9 37.8729 119.926 37.8535C120.951 37.8339 121.41 37.8671 120.944 37.9273ZM125.139 37.8503C124.758 37.9109 124.059 37.9247 123.585 37.8811C123.111 37.8373 123.422 37.7877 124.276 37.7707C125.131 37.7539 125.519 37.7897 125.139 37.8503ZM165.378 37.1313C165.081 37.1938 164.592 37.2025 164.291 37.1507C163.99 37.099 164.233 37.0479 164.831 37.0373C165.429 37.0266 165.675 37.069 165.378 37.1313ZM170.195 37.0395C169.984 37.1064 169.634 37.1126 169.418 37.0533C169.203 36.9943 169.376 36.9397 169.803 36.9321C170.23 36.9245 170.407 36.9729 170.195 37.0395Z" fill="#42476D"/>
<path fill-rule="evenodd" clip-rule="evenodd" d="M187.863 2.23668C185.772 2.25778 184.733 2.23839 185.314 2.17495L186.92 2L180.254 2.07702C180.169 2.30735 179.995 2.49185 179.857 2.49431C179.685 2.49737 179.69 2.30331 179.794 2.08234L175.851 2.1279C175.441 2.35237 174.589 2.54359 174.029 2.44738C173.694 2.38954 173.328 2.45485 173.218 2.59261C173.108 2.73037 172.808 2.84676 172.551 2.85131C172.295 2.85587 172.175 2.74787 172.284 2.61149C172.422 2.43964 172.044 2.41932 171.056 2.54544C170.191 2.65598 169.627 2.6408 169.622 2.50667C169.619 2.41045 170.119 2.28106 170.813 2.18611L166.753 2.23301C166.841 2.2839 166.911 2.34513 166.95 2.41566C167.065 2.61891 167.113 2.82016 167.057 2.86294C167.002 2.90549 165.579 2.99279 163.896 3.05678C161.661 3.14171 160.797 3.09734 160.696 2.89181C160.619 2.73717 160.28 2.61534 159.943 2.62134C159.605 2.62735 159.418 2.73286 159.528 2.8558C159.645 2.98612 159.332 3.08638 158.777 3.09625C158.254 3.10554 157.823 3.01102 157.819 2.8862C157.815 2.76137 157.294 2.66844 156.661 2.67969C155.771 2.69552 155.586 2.51668 156.019 2.35704L120.071 2.77239C119.974 2.8728 119.923 2.87557 119.898 2.77439L59.397 3.47343C59.4064 3.48227 59.4152 3.49128 59.4233 3.50043C59.5331 3.62338 59.4048 3.72785 59.1385 3.73259C58.8721 3.73732 58.6506 3.63907 58.6464 3.51425C58.6461 3.50335 58.6467 3.49261 58.6483 3.48208L0.51031 4.15382C0.451804 4.24875 0.937962 4.32712 2.08901 4.41845C3.92006 4.56348 3.9933 4.58829 2.86957 4.68208C2.18732 4.73894 1.49965 4.88334 1.341 5.00266C1.16229 5.13709 2.46421 5.20137 4.76709 5.17155C7.63559 5.13439 8.28852 5.17888 7.63432 5.3665C7.14332 5.50763 6.79293 5.77956 6.80074 6.01377C6.81161 6.3415 6.27361 6.50821 3.95774 6.89457C2.38689 7.15663 1.36616 7.40346 1.68927 7.44291C2.15947 7.5004 2.19151 7.55638 1.84971 7.72301C1.53577 7.8762 1.62836 7.92928 2.20001 7.92434C2.62744 7.9206 3.18603 8.009 3.44167 8.12072C3.95787 8.34635 3.82773 8.40612 2.18226 8.69858C1.7334 8.77832 1.29513 8.98959 1.2081 9.16826C1.07534 9.43995 1.61353 9.46581 4.52188 9.32644C7.08781 9.2036 7.87435 9.22731 7.53587 9.41727C7.14974 9.6342 7.17535 9.66712 7.69833 9.62739C8.7349 9.5481 8.96475 9.61668 8.4835 9.86142C8.17157 10.02 8.61942 10.032 9.88399 9.89919L9.9896 9.88807L9.9897 9.88806C10.6574 9.81777 11.1198 9.7691 11.5837 9.74239C12.6288 9.68223 13.6816 9.7336 17.1053 9.90068L17.3473 9.91249C20.5752 10.0699 25.2979 10.0209 35.5316 9.72425C44.0264 9.47782 51.9943 9.36884 56.2005 9.4412C70.0629 9.68044 71.4413 9.68999 71.2384 9.54417C71.1246 9.4624 69.5822 9.36584 67.8108 9.32966C66.0397 9.29371 64.4542 9.1752 64.2883 9.06688C63.8744 8.79651 90.6347 8.34223 100.082 8.45923C105.501 8.52638 146.402 8.11904 160.627 7.85632C163.801 7.79761 177.634 7.26459 178.267 7.17658C178.789 7.10371 179.061 7.14587 178.951 7.28271C178.851 7.40758 178.91 7.50714 179.08 7.50411C179.251 7.50107 179.474 7.39491 179.576 7.26821C179.818 6.96619 180.964 6.94921 180.974 7.24743C180.98 7.41636 184.162 7.42416 187.863 7.31264V2.23668ZM163.327 2.27261C163.341 2.31824 163.325 2.37565 163.29 2.44646C163.167 2.6989 163.235 2.79216 163.488 2.71931C163.7 2.65808 163.835 2.494 163.787 2.35428C163.777 2.32399 163.784 2.29461 163.805 2.26708L163.327 2.27261ZM165.129 2.25177C165.128 2.26788 165.121 2.28481 165.107 2.30242C165.005 2.42913 165.071 2.53016 165.251 2.52694C165.432 2.52372 165.577 2.41896 165.573 2.29413C165.572 2.27734 165.574 2.2615 165.578 2.24659L165.129 2.25177ZM71.875 3.95847C72.0814 4.18938 73.2757 3.95218 73.2667 3.68188C73.2595 3.4674 72.728 3.45415 72.0978 3.65293C71.8851 3.72007 71.785 3.85743 71.875 3.95847ZM77.0227 3.86875C77.1836 3.86589 77.3117 3.76142 77.3076 3.63659C77.3034 3.51177 77.0818 3.41352 76.8155 3.41825C76.5492 3.42299 76.4208 3.52746 76.5306 3.65041C76.6404 3.77336 76.8617 3.87161 77.0227 3.86875ZM79.8046 3.66736C80.6451 3.96897 82.9119 3.85554 82.9005 3.51239C82.8968 3.40118 82.0199 3.32639 80.9515 3.34607C79.1532 3.37941 79.0682 3.40317 79.8046 3.66736ZM83.2583 3.51942C83.4017 3.80959 83.8295 3.85467 83.859 3.58254C83.8687 3.49176 83.7077 3.37972 83.5009 3.33343C83.2941 3.28715 83.185 3.37084 83.2583 3.51942ZM86.0727 4.03142C86.3977 4.26613 86.6503 4.36383 86.6346 4.24852C86.5617 3.7182 86.1259 3.28426 85.8197 3.43686C85.5906 3.55062 85.6722 3.74219 86.0727 4.03142ZM89.2688 3.87808C89.8991 3.86687 89.8819 3.5011 89.2436 3.3351L89.1379 3.30744C88.8766 3.23884 88.7664 3.2099 88.6654 3.2287C88.5918 3.24244 88.523 3.28165 88.4041 3.34949L88.338 3.38708C87.7672 3.70925 87.886 4.25943 88.5317 4.28337C88.877 4.29631 89.075 4.21216 88.972 4.09659C88.8686 3.98125 89.0025 3.88281 89.2688 3.87808ZM92.1058 4.11603C91.5761 4.0278 91.6166 3.97417 92.4036 3.72173C93.306 3.43227 93.3013 3.42985 91.8683 3.45443C90.5432 3.47708 90.4526 3.51344 90.7913 3.88893C91.0047 4.12517 91.4907 4.28162 91.9401 4.25841C92.5697 4.22587 92.6014 4.19874 92.1058 4.11603ZM96.1831 4.34511C96.7537 4.44624 96.8253 4.38365 96.6841 3.90745C96.5398 3.42041 96.3485 3.35228 95.1375 3.3561C94.3775 3.35848 93.8368 3.45122 93.9359 3.56209C94.0351 3.67319 93.872 3.87366 93.5736 4.00773C93.1346 4.20493 93.2682 4.24933 94.2744 4.23939C94.9583 4.23268 95.8172 4.28031 96.1831 4.34511ZM106.607 3.84136C106.325 4.05734 106.148 4.02824 105.815 3.71171C105.454 3.3693 104.82 3.29815 101.871 3.26838C98.9001 3.23832 98.3851 3.28291 98.5397 3.55721C98.6405 3.73573 98.5697 3.99905 98.3826 4.14249C98.1312 4.33522 98.1639 4.40117 98.5085 4.39504C98.7649 4.39049 99.1229 4.27307 99.3043 4.13405C99.5417 3.95201 99.6946 3.94929 99.8509 4.12433C99.9727 4.26069 100.843 4.33763 101.835 4.29955C102.934 4.2573 103.22 4.20386 102.59 4.15829C100.938 4.03823 101.423 3.66195 103.272 3.62907C104.856 3.60091 105.515 3.85057 104.61 4.13621C104.399 4.20287 105.03 4.25138 106.013 4.24366C107.406 4.23298 107.798 4.15469 107.789 3.88938C107.776 3.48109 107.112 3.45428 106.607 3.84136ZM110.423 3.50622C110.651 3.76083 112.761 3.77076 112.75 3.51729C112.746 3.42381 112.177 3.33355 111.485 3.31701C110.726 3.29895 110.305 3.37411 110.423 3.50622ZM123.639 3.60708C123.807 3.52711 123.941 3.36576 123.937 3.2482C123.933 3.12564 122.506 3.07585 120.591 3.13103C117.483 3.22082 113.641 3.52303 114 3.64949C114.707 3.89831 123.105 3.86138 123.639 3.60708ZM134.426 3.62896C137.32 3.46235 137.906 3.37088 137.57 3.13749C137.285 2.93931 128.282 2.9761 128.288 3.1756C128.301 3.56687 131.457 3.80006 134.426 3.62896ZM145.632 2.90216C145.14 3.13799 146.651 3.20742 148.651 3.04105L150.512 2.88624L148.223 2.82157C146.964 2.78604 145.798 2.82222 145.632 2.90216ZM153.953 2.95495C154.028 2.9536 154.086 2.85038 154.082 2.72555C154.078 2.60073 153.926 2.50123 153.745 2.50445C153.565 2.50767 153.506 2.6109 153.616 2.73384C153.726 2.85679 153.877 2.95629 153.953 2.95495ZM161.374 2.82297C161.108 2.82771 160.973 2.72792 161.074 2.60122C161.176 2.47451 161.39 2.36851 161.551 2.36565C161.712 2.36278 161.847 2.46258 161.851 2.5874C161.855 2.71223 161.641 2.81824 161.374 2.82297ZM151.916 3.05679C152.26 3.11608 152.617 3.07045 152.709 2.95573C152.8 2.841 152.518 2.75337 152.08 2.76115C151.128 2.77808 151.056 2.90882 151.916 3.05679ZM167.994 2.62851C168.21 2.6878 168.559 2.68158 168.771 2.61469C168.983 2.54802 168.806 2.49962 168.379 2.50721C167.951 2.51481 167.778 2.56944 167.994 2.62851ZM182.289 2.37431C182.505 2.4336 182.855 2.42738 183.066 2.36049C183.278 2.29382 183.101 2.24541 182.674 2.25301C182.247 2.26061 182.074 2.31523 182.289 2.37431ZM98.2008 7.76463C101.663 7.72623 104.492 7.61824 104.489 7.52473C104.482 7.3248 98.332 7.40804 94.5436 7.65934C92.718 7.78037 93.8435 7.81282 98.2008 7.76463ZM106.126 7.63915C106.938 7.63946 107.602 7.60042 107.6 7.55276C107.593 7.35599 106.442 7.30719 105.576 7.46725C104.779 7.61451 104.856 7.63857 106.126 7.63915ZM90.7412 7.86276C90.9571 7.92205 91.3067 7.91584 91.5182 7.84895C91.7299 7.78228 91.5532 7.73387 91.1259 7.74147C90.6986 7.74907 90.5257 7.80369 90.7412 7.86276ZM60.5449 9.0878C62.3557 9.04584 63.6278 8.93261 63.409 8.83295C62.9549 8.62642 57.5883 8.78748 57.4074 9.01324C57.3411 9.09595 58.7529 9.12943 60.5449 9.0878ZM182.157 7.15032C182.383 7.21193 182.651 7.19899 182.752 7.12181C182.852 7.04462 182.667 6.99432 182.34 7.0099C181.978 7.02724 181.906 7.08233 182.157 7.15032ZM81.6024 9.40711C79.6715 9.48142 76.5949 9.5359 74.7656 9.52846C72.9364 9.52079 74.5161 9.46 78.2764 9.39336C82.0366 9.32672 83.5335 9.3328 81.6024 9.40711ZM103.504 9.25543C103.188 9.31032 102.791 9.25834 102.621 9.14032C102.422 9.0017 102.625 8.9663 103.195 9.04087C103.848 9.12598 103.929 9.18178 103.504 9.25543ZM106.336 9.18075C106.041 9.24278 105.482 9.25477 105.093 9.2074C104.705 9.16003 104.947 9.10918 105.63 9.09453C106.314 9.07987 106.632 9.11873 106.336 9.18075ZM110.687 9.10339C110.392 9.16541 109.833 9.1774 109.444 9.13003C109.056 9.08266 109.297 9.03182 109.981 9.01716C110.664 9.00251 110.982 9.04137 110.687 9.10339ZM120.944 8.92735C120.479 8.9874 119.64 9.00323 119.08 8.96278C118.52 8.9221 118.9 8.87286 119.926 8.85349C120.951 8.83389 121.41 8.86707 120.944 8.92735ZM125.139 8.85027C124.758 8.91086 124.059 8.92465 123.585 8.88108C123.111 8.83728 123.422 8.78769 124.276 8.77068C125.131 8.75389 125.519 8.78968 125.139 8.85027ZM165.378 8.13131C165.081 8.19382 164.592 8.20253 164.291 8.15065C163.99 8.099 164.233 8.0479 164.831 8.03726C165.429 8.02663 165.675 8.06903 165.378 8.13131ZM170.195 8.03953C169.984 8.10642 169.634 8.11264 169.418 8.05335C169.203 7.99428 169.376 7.93965 169.803 7.93205C170.23 7.92445 170.407 7.97286 170.195 8.03953Z" fill="#42476D"/>
</svg>
