<svg width="70" height="70" viewBox="0 0 70 70" fill="none" xmlns="http://www.w3.org/2000/svg">
<path d="M57.3133 26.3667L43.1966 25.1417L37.6841 12.1625C36.6924 9.8 33.3091 9.8 32.3174 12.1625L26.8049 25.1708L12.7174 26.3667C10.1508 26.5708 9.10076 29.7792 11.0549 31.4708L21.7591 40.7458L18.5508 54.5125C17.9674 57.0208 20.6799 59.0042 22.8966 57.6625L35.0008 50.3708L47.1049 57.6917C49.3216 59.0333 52.0341 57.05 51.4508 54.5417L48.2424 40.7458L58.9466 31.4708C60.9008 29.7792 59.8799 26.5708 57.3133 26.3667ZM35.0008 44.9167L24.0341 51.5375L26.9508 39.0542L17.2674 30.6542L30.0424 29.5458L35.0008 17.7917L39.9883 29.575L52.7633 30.6833L43.0799 39.0833L45.9966 51.5667L35.0008 44.9167Z" fill="#F8F8F8"/>
</svg>
