<svg width="30" height="30" viewBox="0 0 30 30" fill="none" xmlns="http://www.w3.org/2000/svg">
<path d="M11.25 27.5H22.5C23.5375 27.5 24.425 26.875 24.8 25.975L28.575 17.1625C28.6875 16.875 28.75 16.575 28.75 16.25V13.75C28.75 12.375 27.625 11.25 26.25 11.25H18.3625L19.55 5.5375L19.5875 5.1375C19.5875 4.625 19.375 4.15 19.0375 3.8125L17.7125 2.5L9.475 10.7375C9.025 11.1875 8.75 11.8125 8.75 12.5V25C8.75 26.375 9.875 27.5 11.25 27.5ZM11.25 12.5L16.675 7.075L15 13.75H26.25V16.25L22.5 25H11.25V12.5ZM1.25 12.5H6.25V27.5H1.25V12.5Z" fill="#349749"/>
</svg>
