<svg width="32" height="32" viewBox="0 0 32 32" fill="none" xmlns="http://www.w3.org/2000/svg">
<g clip-path="url(#clip0_1533_2778)">
<path d="M5.15835 25.9492C5.70651 26.0504 6.26757 26.06 6.81889 25.9778C7.4081 25.9711 7.99113 25.8566 8.53916 25.64C8.73192 25.5215 8.79218 25.2692 8.6737 25.0764C8.621 24.9907 8.53856 24.9273 8.44218 24.8984C7.85613 24.8164 7.25994 24.8422 6.68316 24.9746C6.13138 25.0227 5.59131 25.1616 5.08473 25.3855C4.93822 25.4758 4.89263 25.6677 4.98283 25.8142C5.02283 25.8792 5.08526 25.9272 5.15835 25.9492Z" fill="white"/>
<path d="M10.492 25.7927C11.2305 25.7016 11.9739 25.7181 12.714 25.6379C12.9601 25.637 13.2739 25.3965 13.0683 25.1518C12.8971 24.9941 12.67 24.9112 12.4374 24.9214C11.7226 24.8542 11.0023 24.9656 10.3411 25.2455C10.1908 25.29 10.105 25.4479 10.1494 25.5981C10.1927 25.7446 10.344 25.8305 10.492 25.7927Z" fill="white"/>
<path d="M15.2802 25.5201C16.1689 25.3824 17.0689 25.6947 17.9461 25.5937C18.1517 25.5333 18.2694 25.3178 18.2091 25.1123C18.1914 25.052 18.1593 24.9968 18.1156 24.9517C17.9076 24.7729 17.6535 24.6565 17.3823 24.6158C16.613 24.4798 15.8211 24.558 15.0933 24.8421C14.906 24.8937 14.7961 25.0873 14.8477 25.2745C14.8993 25.4617 15.0929 25.5716 15.2802 25.5201Z" fill="white"/>
<path d="M20.3423 25.3452C20.9791 25.2768 21.723 25.3496 22.2741 24.9881C22.4266 24.9169 22.5193 24.7587 22.5068 24.5907C22.2293 23.8262 20.8288 24.3322 20.2365 24.3824C19.0906 24.5429 19.1788 25.4552 20.3423 25.3452Z" fill="white"/>
<path d="M7.51615 26.8274C6.96233 26.8934 6.41825 27.0246 5.89516 27.2184C5.72187 27.2722 5.62509 27.4564 5.67897 27.6296C5.72055 27.7632 5.84219 27.8559 5.98206 27.8605C6.75582 27.8181 7.53312 27.8443 8.30411 27.7558C8.68642 27.7366 9.71057 27.5207 9.16129 26.9985C8.64273 26.7768 8.06924 26.7171 7.51615 26.8274Z" fill="white"/>
<path d="M12.512 26.1367C12.0864 26.1676 11.6638 26.2315 11.2481 26.3277C11.0283 26.3907 10.9014 26.62 10.9644 26.8397C11.0149 27.0157 11.1749 27.1376 11.358 27.1395C11.917 27.1396 12.4732 27.061 13.0102 26.9059C13.2174 26.8466 13.3374 26.6305 13.2781 26.4232C13.2695 26.3931 13.2572 26.3641 13.2417 26.3369C13.0989 26.0748 12.7591 26.1547 12.512 26.1367Z" fill="white"/>
<path d="M16.5399 25.8563C16.1599 25.8364 15.7797 25.8919 15.4212 26.0196C15.2536 26.1221 15.2007 26.3412 15.3034 26.5088C15.3328 26.5569 15.3732 26.5973 15.4212 26.6267C16.0851 26.8306 16.8264 26.6822 17.5186 26.7828C17.8961 26.7406 19.7679 27.1568 19.5866 26.4896C19.3569 26.2446 19.0462 26.0909 18.712 26.0569C17.9992 25.8998 17.2694 25.8323 16.5399 25.8563Z" fill="white"/>
<path d="M21.9373 26.142C21.6766 26.2508 21.4589 26.5905 21.7572 26.7904C22.0915 27.0308 22.5228 26.9193 22.906 26.9181C23.3189 26.9386 23.7285 26.8348 24.0818 26.62C24.2484 26.5191 24.3018 26.3022 24.2009 26.1356C24.1714 26.0868 24.1305 26.0459 24.0818 26.0164C23.4216 25.7243 22.6043 25.9612 21.9373 26.142Z" fill="white"/>
<path d="M26.8147 25.9627C26.3421 25.9565 25.8726 26.0388 25.4302 26.2053C25.2639 26.3795 25.2703 26.6555 25.4445 26.8218C25.5231 26.8969 25.627 26.9398 25.7356 26.9424C26.0952 26.9478 26.4554 26.9822 26.8147 26.9638C27.7283 26.9823 27.7517 25.9116 26.8147 25.9627Z" fill="white"/>
<path d="M24.2516 24.6002C24.9074 24.7564 25.5864 24.7908 26.2546 24.7016C26.9392 24.7242 27.3579 23.9377 26.6564 23.5896C25.9313 23.4885 25.1387 23.6229 24.391 23.5703C24.1004 23.5783 23.8711 23.8204 23.8791 24.111C23.8854 24.3372 24.0353 24.5341 24.2516 24.6002Z" fill="white"/>
<path d="M27.445 2.92781C27.4743 3.22419 27.7383 3.44071 28.0347 3.41137C28.198 3.39518 28.345 3.30558 28.4342 3.16788C28.5392 2.93268 28.5924 2.67768 28.5902 2.42011L28.5692 2.57643C28.6 2.13649 28.6704 1.70024 28.7795 1.27294C28.8804 1.06905 28.8795 0.829579 28.7771 0.626486C27.8894 -0.329439 27.2444 2.34189 27.445 2.92781Z" fill="white"/>
<path d="M29.9857 3.41386C30.5174 3.02872 31.0046 2.58563 31.4383 2.09267C31.6323 1.92411 31.7657 1.69661 31.818 1.44497C31.9073 0.965229 31.2819 0.986545 31.0259 1.21536C30.6184 1.53003 30.2358 1.87569 29.8815 2.24925C29.6756 2.48241 29.3744 2.71885 29.3359 3.04109C29.3411 3.28254 29.5411 3.47406 29.7826 3.46886C29.8538 3.46728 29.9234 3.44846 29.9857 3.41386Z" fill="white"/>
<path d="M31.9153 3.85178C31.7891 3.6977 31.5795 3.64 31.3922 3.7077L31.4249 3.70329C31.2327 3.74618 31.0506 3.82625 30.889 3.93888C30.6911 4.01665 30.5151 4.14125 30.3758 4.30198C30.2614 4.5131 30.3399 4.77704 30.551 4.89139C30.6135 4.9252 30.6832 4.94323 30.7542 4.94389C31.3166 5.01711 32.293 4.50895 31.9153 3.85178Z" fill="white"/>
<path d="M31.2394 27.4748C30.7306 25.9513 30.1087 24.4679 29.379 23.0369C29.5001 22.3141 29.5096 21.577 29.407 20.8513C29.4848 20.7861 29.5365 20.6951 29.5527 20.5949C29.6706 19.2489 29.6947 17.8963 29.6247 16.5469C29.6296 15.2478 29.6323 13.9487 29.633 12.6497L29.6316 8.75253C29.6313 8.0599 29.6404 7.36654 29.6294 6.67404C29.6672 6.02495 29.6232 5.3737 29.4985 4.73567C29.4513 4.5633 29.3017 4.4385 29.1237 4.42284C29.0259 4.33139 28.8971 4.28028 28.7632 4.27988C22.9861 4.1958 17.2035 4.14225 11.4261 4.21139C9.98125 4.2287 8.53645 4.25685 7.09164 4.26574C6.07262 4.27199 4.92715 4.24547 4.12893 4.98975C3.51452 5.67594 3.17234 6.56311 3.16662 7.48411C3.03274 8.88405 3.02616 10.3045 3.00774 11.7098C2.9659 14.8907 3.04675 18.0707 3.18327 21.2484C3.18596 21.4061 3.27406 21.55 3.41333 21.6242C3.21458 22.2577 3.07899 22.9092 3.00853 23.5694C2.8784 23.8066 2.64557 24.0081 2.60432 24.2809C1.64675 25.3755 0.900756 26.6385 0.404438 28.0056C0.253385 28.5216 -0.255235 29.2614 0.159043 29.7448C-0.100761 30.0107 0.0206869 30.5183 0.227661 30.8458C0.633782 31.4882 1.41056 31.6036 2.11155 31.5749C10.9367 30.9595 19.7921 30.7458 28.6359 30.6162C29.6458 31.3914 31.5917 30.498 31.6932 29.2491C31.6579 28.634 31.5038 28.0314 31.2394 27.4748ZM4.14149 9.39128C4.18445 6.40035 4.0863 4.9987 7.61697 5.28666C14.5841 5.32265 21.5516 5.33429 28.5183 5.42469C28.4251 9.13332 28.449 12.8375 28.4157 16.5469C28.336 17.8956 28.3503 19.2482 28.4584 20.5949C28.4822 20.7508 28.5876 20.8819 28.7346 20.9388C28.7001 21.0895 28.6784 21.2429 28.6696 21.3973C28.1221 21.4321 27.5747 21.4738 27.0274 21.5223C27.1868 21.4162 27.2853 21.2399 27.2923 21.0486C27.452 18.7748 27.2282 16.4404 27.1984 14.1618C27.1302 11.8196 27.1976 9.4424 26.8597 7.13147C27.3467 7.15746 27.2868 6.53838 26.879 6.46568C24.3189 6.36048 21.7314 6.42785 19.1612 6.42463C19.103 5.82436 18.6098 5.35969 18.0071 5.33732C17.7627 5.33785 17.5602 5.52686 17.5427 5.77061C17.0025 5.35028 16.2276 5.89127 16.0186 6.4393C13.0144 6.33936 10.0069 6.41015 7.01072 6.65147C6.7996 6.66042 6.63565 6.83884 6.64466 7.04996C6.65315 7.25022 6.81479 7.41003 7.01512 7.41621C10.0284 7.59568 13.0495 7.5972 16.0629 7.42068C16.5654 8.71003 18.4742 8.53115 19.011 7.362C21.4751 7.33601 23.9336 7.2422 26.3961 7.18108C26.1426 9.49773 26.1629 11.8303 26.1316 14.1618C26.1179 16.3039 25.9371 18.4958 26.0601 20.6388C22.8108 21.0505 19.5655 21.5736 16.2822 21.6721C12.9659 21.87 9.65178 21.6017 6.34111 21.5101C6.40696 21.4391 6.44466 21.3465 6.44716 21.2497C6.54552 18.8694 6.46723 16.4739 6.52045 14.0908C6.50683 11.7061 6.77387 9.31253 6.59124 6.93595C6.55999 6.66384 6.13775 6.547 6.07019 6.86542C5.87255 8.00556 5.77143 9.1603 5.76795 10.3174C5.654 13.9535 5.47578 17.6141 5.63288 21.2497C5.63604 21.3977 5.72268 21.5311 5.85663 21.5942C4.49899 22.9046 10.4341 22.6496 11.0336 22.7188C12.6084 22.754 14.1836 22.7331 15.7581 22.6879C11.905 23.4077 8.00085 23.0448 4.13702 22.7242C4.11991 22.7009 4.09978 22.68 4.07728 22.662C4.09577 22.2763 4.35972 21.7653 4.07123 21.4419C4.15169 17.4386 3.92656 13.4027 4.14149 9.39128ZM17.5687 7.68226C17.118 7.66667 16.7653 7.28871 16.7808 6.83805C16.7956 6.40923 17.1398 6.06509 17.5687 6.05022C18.0193 6.06581 18.372 6.44377 18.3565 6.89443C18.3417 7.32325 17.9975 7.6674 17.5687 7.68226ZM1.22148 28.4282C1.72859 27.1115 2.30471 25.8225 2.94741 24.5663C3.12998 24.502 3.21827 24.324 3.33794 24.1842C3.61583 24.2194 3.70399 23.9379 3.83406 23.7633C3.88044 23.5698 3.96544 23.3875 4.08399 23.2276C7.90111 24.6233 12.0552 23.4523 16.0003 23.3797C20.1986 23.0967 24.3928 22.7055 28.5786 22.2742C28.5559 22.4942 28.5511 22.7157 28.564 22.9365C28.4099 23.0538 28.3563 23.2616 28.4344 23.4389C29.1196 25.0863 29.8432 26.7205 30.3782 28.4259C27.2854 28.3748 24.1787 28.5561 21.087 28.6443C21.4081 28.2387 21.0283 27.5248 20.6471 27.282C19.8123 26.8066 18.7979 27.0915 17.886 27.0723C16.4298 27.0926 13.8203 26.8921 13.773 28.9296C10.6048 29.0547 7.43539 29.163 4.26952 29.3384C3.04932 29.3527 1.83346 29.4872 0.639571 29.7397C0.930164 29.3521 1.12905 28.9037 1.22148 28.4282ZM20.6568 28.6595C20.4159 28.6684 20.1748 28.6755 19.9341 28.6849C20.1693 28.4568 20.3498 28.1782 20.4618 27.8702C20.7912 28.0891 20.6235 28.361 20.6568 28.6595ZM17.3296 27.7564C17.6251 27.7515 17.9175 27.736 18.2125 27.7225C17.8364 28.0493 17.5171 28.4345 17.1717 28.7927C16.7798 28.8089 16.3879 28.8248 15.9959 28.8405C16.4208 28.4598 17.0134 28.2404 17.3296 27.7564ZM15.7642 28.0887C15.4702 28.3108 15.2131 28.578 15.0027 28.8805C14.8179 28.8875 14.633 28.8956 14.4482 28.9027C14.562 28.1201 15.4277 27.8667 16.1092 27.8122C15.9913 27.9013 15.8764 27.995 15.7642 28.0887ZM19.1652 27.6902C19.4273 27.6748 19.6901 27.6745 19.9523 27.6895C19.618 27.9965 19.3201 28.3408 19.0644 28.7158C18.7483 28.7287 18.4321 28.7416 18.116 28.7543C18.4842 28.4404 19.0194 28.1745 19.1652 27.6902ZM29.7304 29.9998C29.3678 30.1633 28.7019 29.7758 28.5686 30.3003C20.1187 29.8936 11.6514 30.0287 3.21886 30.7049C2.4655 30.7314 1.15049 31.0883 0.815493 30.1945C3.17563 30.4218 5.56288 30.1203 7.93157 30.0676C10.4166 29.9614 12.9021 29.8662 15.3881 29.7819C17.8738 29.7015 20.3607 29.6722 22.8468 29.6064C25.3724 29.5394 27.9167 29.5752 30.4381 29.4254C30.542 29.4193 30.6413 29.3805 30.7219 29.3148C30.7334 29.3385 30.749 29.3601 30.768 29.3783C30.5108 29.7066 30.1412 29.9279 29.7304 29.9998Z" fill="white"/>
<path d="M9.02403 17.2344C9.79738 16.7348 10.5183 16.1585 11.176 15.5142C12.9722 13.9707 14.8223 12.494 16.7262 11.084C17.1248 10.858 17.4622 10.5378 17.7086 10.1513C17.8926 8.85862 15.525 10.9359 15.181 11.1571C13.0199 12.9191 10.734 14.6113 8.92764 16.744C8.80718 16.7707 8.80514 16.9327 8.75291 17.026C8.69008 17.1862 8.89481 17.3027 9.02403 17.2344Z" fill="white"/>
<path d="M12.5741 19.5175C14.6608 17.8855 16.7182 16.216 18.8392 14.6279C19.8691 13.8568 20.8966 13.0835 21.9432 12.335C22.9256 11.6325 24.0444 10.953 24.7643 9.9683C25.0714 8.20671 18.6133 13.4827 18.0977 13.8524C16.0125 15.4799 14.0199 17.2227 12.1292 19.0727C11.834 19.3667 12.2642 19.7599 12.5741 19.5175Z" fill="white"/>
<path d="M20.8298 15.5515C20.653 15.5438 20.4796 15.6011 20.3424 15.7128C19.6298 16.2631 18.9881 16.8945 18.3265 17.5034C18.1657 17.6702 18.1705 17.9358 18.3373 18.0966C18.4998 18.2533 18.7572 18.2533 18.9197 18.0966C19.591 17.5312 20.2845 16.9909 20.9076 16.3709C21.1518 16.1671 21.277 15.5677 20.8298 15.5515Z" fill="white"/>
</g>
<defs>
<clipPath id="clip0_1533_2778">
<rect width="32" height="32" fill="white"/>
</clipPath>
</defs>
</svg>
