<svg width="231" height="96" viewBox="0 0 231 96" fill="none" xmlns="http://www.w3.org/2000/svg">
<path fill-rule="evenodd" clip-rule="evenodd" d="M0.000828782 53.5869C-0.165838 82.9758 24.8342 95.7536 48.39 95.198C63.89 94.8647 72.445 89.1425 74.945 88.2536C74.945 88.2536 211.834 89.9203 214.445 90.6425C226.778 94.1425 228.223 89.3092 229.445 81.0314C231.834 64.6425 230.389 32.3647 225.556 27.8647C221.278 23.8647 219.057 24.5869 220.057 29.7536C221.501 37.1425 222.056 64.9758 221.334 76.2536C220.889 82.8092 217.001 83.8092 209.779 83.8092C209.723 83.8092 89.5567 82.2536 89.5011 82.2536C81.5011 81.9758 83.89 80.8092 86.7233 77.8092C99.1122 65.0314 104.057 51.5869 94.7789 32.5869C89.9456 22.698 83.89 24.0314 87.2789 33.3092C91.0567 43.5869 90.1672 55.198 84.6672 66.0314C82.0561 71.198 66.5011 88.9203 46.2233 88.9758C27.2232 89.0314 7.00089 73.6425 10.612 48.0869C13.6676 26.5869 32.9452 -2.02418 60.7783 5.14248C67.0561 6.75359 77.5567 15.3647 76.5011 18.0869C75.89 19.698 83.3895 22.2536 86.6672 20.9758C91.1672 19.2536 85.2228 15.4203 82.945 13.0869C76.445 6.64249 69.7233 2.58693 61.4456 0.975816C33.6676 -4.35752 0.278607 12.0314 0.000828782 53.5869ZM95.0567 14.3092C88.89 14.698 89.89 18.0869 96.7789 18.1425C96.8344 18.1425 200.723 19.0869 212.223 19.198C212.889 19.198 213.556 19.4203 214.112 19.8092L216.278 21.3092C221.501 24.9203 224.501 23.1425 220.167 18.9758C215.834 14.8092 214.112 13.5869 200.501 13.1425C182.167 12.5314 130.279 12.0314 95.0567 14.3092ZM44.8343 15.9203C44.4454 19.9758 44.6118 30.5314 44.6118 40.4758C44.1118 40.8647 38.7786 42.5314 38.3342 47.2536C37.9453 51.198 41.4452 55.2536 47.7228 55.9758C50.8339 56.3092 52.7783 58.1425 58.8894 66.4758C60.6672 68.9203 62.1678 69.5869 64.5567 69.0314C69.4455 67.8647 69.3344 64.5314 64.2233 58.5314C59.6122 53.1425 58.0006 50.4203 58.0006 48.1425C58.0006 45.8092 55.7783 43.0869 52.6672 41.5869L50.0567 40.3092C50.3344 25.5869 50.5567 18.8091 50.39 16.0869C50.2233 12.198 45.2232 12.2536 44.8343 15.9203Z" fill="white"/>
</svg>
