<svg width="183" height="187" viewBox="0 0 183 187" fill="none" xmlns="http://www.w3.org/2000/svg">
<path fill-rule="evenodd" clip-rule="evenodd" d="M182.237 90.5144C181.892 86.1373 181.301 84.9033 179.92 85.9685C177.751 87.6353 177.307 90.0439 177.357 98.9688C177.8 145.831 137.425 186.358 89.9007 175.559C78.7592 173.02 58.4974 163.601 49.525 156.776C-7.06994 113.738 -9.38698 55.2653 44.1022 18.7076C64.8076 4.57349 104.69 6.26798 129.29 22.3425C148.813 35.1285 172.328 62.6084 175.828 76.7994C176.864 81.0077 178.589 80.731 179.723 76.1653C183.223 61.8412 151.968 23.7501 125.79 10.4308C103.902 -0.695528 72.1039 -2.38663 52.6801 6.50822C8.60706 26.7749 -12.7886 85.9358 9.98742 124.64C26.3546 152.393 47.2573 169.4 79.9917 181.648C135.502 202.388 186.477 148.766 182.237 90.5144Z" fill="white"/>
</svg>
