<svg width="28" height="29" viewBox="0 0 28 29" fill="none" xmlns="http://www.w3.org/2000/svg">
<path d="M15.4087 5.38698L23.113 13.0913L8.46399 27.7404C7.95707 27.2333 7.67076 26.5466 7.6673 25.8296C7.66384 25.1126 7.9435 24.4232 8.4455 23.9113L8.44088 23.9067C7.93679 24.4218 7.24872 24.7156 6.52803 24.7234C5.80734 24.7312 5.11307 24.4524 4.59795 23.9483C4.08283 23.4442 3.78906 22.7561 3.78125 22.0354C3.77345 21.3147 4.05226 20.6205 4.55635 20.1053L4.54402 20.093C4.02961 20.5766 3.34732 20.8412 2.64138 20.8308C1.93544 20.8205 1.26119 20.536 0.761189 20.0375L15.4087 5.38698ZM27.0977 4.74906L23.7509 1.40229C23.173 0.824554 22.3893 0.5 21.5722 0.5C20.755 0.5 19.9713 0.824554 19.3934 1.40229L16.9496 3.84611L24.6539 11.5504L27.0977 9.10663C27.6754 8.52872 28 7.74501 28 6.92784C28 6.11068 27.6754 5.32697 27.0977 4.74906ZM0 23.8774V28.5H4.6226C4.6226 27.274 4.13558 26.0982 3.26867 25.2313C2.40177 24.3644 1.22599 23.8774 0 23.8774Z" fill="#42476D"/>
</svg>
