<svg width="164" height="61" viewBox="0 0 164 61" fill="none" xmlns="http://www.w3.org/2000/svg">
<g filter="url(#filter0_d_1911_1069)">
<path d="M8.47965 48.6225C8.72924 46.6829 9.4067 31.2188 9.6028 29.8862C9.95936 27.5639 11.029 4.43382 10.7795 4.26229C9.69196 3.45742 9.06797 4.65812 8.71141 8.29983L8.4975 10.4374C8.21226 4.51298 8.31919 4.67132 7.53476 4.36784C5.73416 3.68172 6.10854 4.93521 6.10854 7.60052C6.10854 12.4429 5.78764 20.4521 5.48457 23.5C5.34195 25.0306 4.23664 44.0308 4.11185 44.7697C3.86226 46.3135 3.98707 46.5641 4.93195 46.4982C5.37764 46.4718 5.48457 46.4058 5.48457 46.1287C5.48457 45.6273 6.16206 43.4898 6.32251 43.4898C6.39382 43.4898 6.4651 44.7829 6.4651 46.3794C6.4651 47.4086 6.46513 48.1079 6.50079 48.5829C6.62558 49.7836 7.78437 50.2323 8.47965 48.6225Z" fill="#E4C453"/>
<path d="M159.784 42.5497C159.463 39.0532 159.463 2.54371 159.784 2.35899C160.533 1.92357 158.572 1.02634 156.86 1.01314C154.614 0.999948 129.334 0.221466 115.589 0.0103527C113.877 -0.0160364 108.101 0.0103519 102.753 0.0631303C89.2751 0.195076 90.7013 0.327022 81.5378 0.590914C68.5592 0.960363 62.6939 1.26384 41.6036 2.64927C32.5649 3.24303 20.2994 4.24581 14.8977 4.79999C11.1004 5.19583 12.5623 5.78958 14.8799 5.92153C23.0451 6.35695 68.2027 6.37014 78.5784 5.86875C80.0581 5.80278 96.6201 5.20902 99.0447 5.07708C104.393 4.7604 109.171 4.60207 118.441 4.41735C125.376 4.2722 152.528 3.26942 153.972 3.15066C157.217 2.88677 156.95 2.3326 156.165 7.57085C155.505 12.0834 155.06 16.7279 154.899 20.5411C154.4 17.3349 153.776 15.1577 153.633 6.29098C153.633 6.09306 153.419 5.92153 153.152 5.89514C152.35 5.82917 152.243 12.057 152.92 19.037C153.063 20.462 153.259 22.7314 153.366 24.0773C153.901 30.9121 155.398 40.808 156.433 45.0831C156.486 45.347 156.397 45.6109 156.165 45.8088C155.933 46.0067 155.594 46.1255 155.238 46.1386C149.016 46.1914 133.345 46.0859 130.725 45.9407C118.37 45.2678 113.146 45.1491 94.6234 45.1359C73.1053 45.1227 64.7976 45.3734 43.5468 46.64C32.6541 47.2866 28.0189 47.656 20.0142 48.4873C15.8426 48.9227 11.6709 49.3317 10.7617 49.4109C7.98053 49.6352 7.69527 49.8067 8.78276 50.6116C9.47804 51.1262 9.72763 51.1262 17.4827 50.4137C27.1096 49.5297 30.2117 49.3845 47.3085 49.0283C50.7849 48.9491 54.6357 48.8303 55.8658 48.7644C58.2548 48.6192 75.3338 48.2234 77.7049 48.263C79.2915 48.2894 79.0419 48.3026 74.585 48.5005C69.3615 48.738 60.091 49.279 56.3115 49.556C41.568 50.6776 32.9393 51.1394 32.244 50.8623C30.9426 50.3477 24.1681 51.6144 24.6672 52.2873C25.7012 53.6596 26.4322 52.7096 36.5227 52.2477C40.6053 52.063 43.4577 51.8783 55.6876 50.9943C66.5447 50.2158 81.1635 49.5297 90.9866 49.3449C102.949 49.1206 128.3 48.0914 148.321 48.3158C159.178 48.4345 158.625 48.3949 156.736 47.0095L157.966 47.0755C160.23 47.181 160.194 47.2338 159.784 42.5497ZM86.6009 4.60207C84.2833 4.65485 80.2542 4.7736 77.6514 4.87916C72.6061 5.07708 48.414 5.32778 28.8748 5.18263C43.6183 4.44374 59.1105 3.98193 83.0354 4.24582C91.6997 4.33818 92.9298 4.45693 86.6009 4.60207ZM150.71 2.17427C149.266 2.31941 144.185 2.22704 139.068 2.49093C133.399 2.79441 127.444 2.72844 121.739 3.0583C112.523 3.58609 67.8461 2.99233 55.4201 3.3222L47.0411 3.5465C37.0575 3.81039 68.7197 2.25343 70.752 2.17427C78.0436 1.89718 96.5488 1.34301 97.1371 1.32981C99.33 1.23745 127.837 1.36939 133.506 1.50134C136.733 1.58051 148.374 2.04232 149.551 2.05551C151.334 2.0819 151.53 2.0951 150.71 2.17427Z" fill="#E4C453"/>
</g>
<defs>
<filter id="filter0_d_1911_1069" x="0" y="0" width="164" height="61" filterUnits="userSpaceOnUse" color-interpolation-filters="sRGB">
<feFlood flood-opacity="0" result="BackgroundImageFix"/>
<feColorMatrix in="SourceAlpha" type="matrix" values="0 0 0 0 0 0 0 0 0 0 0 0 0 0 0 0 0 0 127 0" result="hardAlpha"/>
<feOffset dy="4"/>
<feGaussianBlur stdDeviation="2"/>
<feComposite in2="hardAlpha" operator="out"/>
<feColorMatrix type="matrix" values="0 0 0 0 0 0 0 0 0 0 0 0 0 0 0 0 0 0 0.25 0"/>
<feBlend mode="normal" in2="BackgroundImageFix" result="effect1_dropShadow_1911_1069"/>
<feBlend mode="normal" in="SourceGraphic" in2="effect1_dropShadow_1911_1069" result="shape"/>
</filter>
</defs>
</svg>
