<svg width="366" height="327" viewBox="0 0 366 327" fill="none" xmlns="http://www.w3.org/2000/svg">
<path fill-rule="evenodd" clip-rule="evenodd" d="M328.551 11.8452C307.518 26.1953 297.098 34.6483 271.15 58.4341C248.937 78.6817 249.331 78.4851 243.041 71.998C230.067 58.0411 182.494 45.46 168.93 52.7334C162.443 56.0752 163.23 62.7588 170.11 62.7588C188.784 62.9554 206.084 71.6049 220.827 83.9892C233.997 95.1942 233.997 94.6043 215.323 113.082C195.272 132.74 166.768 165.175 150.845 186.209L138.657 202.328L128.435 187.193C104.256 151.021 78.1118 133.134 61.9925 141.586C56.095 144.731 57.078 146.697 74.7699 165.373C90.2995 181.689 106.419 204.884 117.82 227.49C127.059 245.773 149.863 245.773 165.392 219.432C176.598 200.362 205.494 163.997 229.279 139.227L250.511 117.014L255.621 128.416C301.228 230.44 189.964 348.582 96.3934 297.472C0.856798 245.183 22.4802 77.5021 126.667 62.5622C147.111 59.6137 147.503 52.7332 127.255 50.1779C74.9659 43.101 8.13026 105.022 1.0534 166.749C-12.3139 284.499 103.864 361.163 217.485 309.856C286.484 278.797 318.722 167.141 276.064 108.168C272.92 103.844 270.364 99.716 270.364 98.7322C270.364 94.6044 305.552 63.1518 342.901 34.4516C384.968 2.01636 363.149 -11.7442 328.551 11.8452Z" fill="#5FCA5D"/>
</svg>
