<svg width="219" height="74" viewBox="0 0 219 74" fill="none" xmlns="http://www.w3.org/2000/svg">
<path fill-rule="evenodd" clip-rule="evenodd" d="M157.964 0.389361C155.731 0.590717 153.778 0.827698 153.624 0.916501C153.47 1.00479 154.415 1.22318 155.724 1.40131C158.097 1.72451 158.094 1.72554 154.464 1.88456C152.462 1.97233 149.501 2.22687 147.885 2.44991C145.85 2.73077 146.886 2.78189 151.244 2.61564C161.206 2.23616 171.434 1.90057 172.749 1.90934C173.484 1.91451 173.888 1.71521 173.783 1.40131C173.669 1.0621 176.119 0.885007 180.922 0.885007C186.113 0.885007 188.18 1.04764 188.047 1.44571C187.929 1.79885 188.104 1.96201 188.521 1.88559C188.884 1.81847 189.371 1.9016 189.602 2.07043C189.833 2.23874 191.912 2.62493 194.222 2.92852C196.531 3.2321 198.894 3.68541 199.471 3.93581C200.049 4.1857 200.521 4.19809 200.521 3.96318C200.521 3.37666 199.78 3.03539 195.481 1.6419C194.943 1.46739 193.935 1.0843 193.242 0.791041C191.749 0.159091 164.027 -0.156367 157.964 0.389361ZM72.7093 0.933022C71.3934 1.2206 71.4312 1.24383 73.3393 1.32025C75.349 1.40027 75.9563 1.18188 74.7392 0.816339C74.3926 0.712047 73.4793 0.764708 72.7093 0.933022ZM69.6295 1.18704C69.3215 1.27533 67.9673 1.49682 66.6197 1.67907C65.2724 1.86133 64.1699 2.18143 64.1699 2.39105C64.1699 2.60015 64.5792 2.67914 65.0798 2.56607C65.7775 2.4086 65.8917 2.4876 65.5698 2.9058C65.2506 3.31987 65.4522 3.4381 66.4097 3.39732C67.5588 3.34878 67.5957 3.30954 66.8297 2.9502L65.9897 2.55626L67.0164 2.49483C67.5809 2.46127 68.0848 2.64094 68.1364 2.89444C68.1893 3.1562 69.2557 3.18821 70.6095 2.96827C73.1763 2.55213 73.1318 2.35336 70.4695 2.34252C69.5455 2.33839 69.1045 2.2217 69.4895 2.08282C70.1508 1.84429 71.0462 0.799302 70.4555 0.955224C70.3093 0.993946 69.9375 1.09824 69.6295 1.18704ZM166.165 1.26655C165.209 1.36723 163.571 1.36775 162.525 1.2681C161.479 1.16897 162.262 1.08636 164.263 1.08585C166.265 1.08481 167.121 1.16639 166.165 1.26655ZM170.073 1.2268C169.881 1.37033 169.566 1.37033 169.373 1.2268C169.181 1.08378 169.338 0.966582 169.723 0.966582C170.108 0.966582 170.266 1.08378 170.073 1.2268ZM191.352 1.74309C191.159 1.88663 190.844 1.88663 190.652 1.74309C190.459 1.60008 190.617 1.48288 191.002 1.48288C191.387 1.48288 191.544 1.60008 191.352 1.74309ZM193.317 1.74C193.127 1.88146 192.749 1.89024 192.477 1.7591C192.205 1.62796 192.36 1.51231 192.822 1.50198C193.284 1.49166 193.507 1.59853 193.317 1.74ZM73.4793 2.27333C73.7486 2.40344 74.1899 2.40344 74.4592 2.27333C74.7285 2.14374 74.5082 2.03738 73.9692 2.03738C73.4303 2.03738 73.2099 2.14374 73.4793 2.27333ZM76.1391 2.25939C76.3317 2.40292 76.6467 2.40292 76.8391 2.25939C77.0317 2.11638 76.8741 1.99918 76.4891 1.99918C76.1041 1.99918 75.9467 2.11638 76.1391 2.25939ZM22.5382 3.11232C22.4576 3.35291 20.9879 3.50212 19.2722 3.44378C16.1591 3.33897 10.7064 4.09896 9.78864 4.76602C9.4815 4.98906 9.32555 5.59416 9.3625 6.41869C9.4255 7.82199 9.4689 7.87208 11.0432 8.3543C12.3317 8.74927 12.4356 9.58464 11.1832 9.47983C10.3494 9.41013 10.28 9.52268 10.3539 10.8238C10.4245 12.067 10.3374 12.2446 9.65397 12.2513C8.67487 12.2616 8.32993 12.7206 8.25266 14.1167C8.20254 15.0249 8.38425 15.2717 9.30259 15.5422C10.789 15.9805 10.7087 16.6946 9.136 17.0214C7.89372 17.2795 6.34906 19.1393 6.64472 20.0211C6.71807 20.2405 6.40002 20.5735 5.93777 20.761C5.21121 21.0552 5.15129 21.2008 5.49539 21.8354C5.71434 22.2391 6.06012 22.5732 6.26366 22.5773C6.54253 22.5835 6.53273 22.7027 6.22391 23.0631C5.93693 23.3977 6.26422 23.5882 7.31836 23.7002C8.80422 23.8582 8.82242 23.8799 8.84762 25.5383C8.8619 26.4614 8.77874 27.2162 8.66339 27.2162C8.54804 27.2162 8.45341 27.6809 8.45341 28.2488C8.45341 29.014 8.25406 29.2995 7.68345 29.3516C7.01234 29.4131 6.99526 29.4508 7.55074 29.6475C8.36241 29.9345 9.83876 31.3394 9.33339 31.3435C9.11976 31.3451 9.02065 31.6688 9.10688 32.0834C9.33479 33.1784 8.78043 33.7691 6.93786 34.3948C5.28933 34.9545 4.57901 35.477 5.46683 35.477C5.72358 35.477 5.93357 35.8255 5.93357 36.2515C5.93357 36.854 5.56035 37.0259 4.25367 37.0259C2.44219 37.0259 1.87886 38.012 3.62371 38.1287C4.27355 38.1721 4.4337 38.2841 4.04369 38.423C3.69707 38.5459 3.41373 38.8469 3.41373 39.0921C3.41373 39.3374 3.15978 39.6864 2.84956 39.8681C2.53934 40.0493 2.35511 40.4051 2.43967 40.6575C2.5245 40.9105 2.17984 41.3375 1.67392 41.6065C0.879046 42.0293 1.03948 42.1042 2.85376 42.1579C5.0099 42.2219 5.08998 42.7656 3.04331 43.444C2.13589 43.7445 2.02529 43.9159 2.31843 44.567C2.59674 45.1855 2.71125 45.2046 2.90444 44.6656C3.09091 44.1446 3.2379 44.2221 3.56491 45.013C3.95045 45.945 3.93225 46.0725 3.34961 46.5372C2.80532 46.9708 2.9358 47.0844 4.25367 47.3271C5.63566 47.5811 5.73254 47.6746 5.19861 48.2389C4.87159 48.5848 4.05265 49.0226 3.37873 49.2116C1.28418 49.7991 1.16351 50.4146 3.13374 50.4615L4.95363 50.5044L2.57378 52.155L0.193931 53.8056L1.59384 54.0638L2.99375 54.3219L1.3441 55.0205C0.191411 55.5089 -0.187964 55.8563 0.0841783 56.1744C0.298645 56.4248 0.725897 56.6494 1.03388 56.6736C1.58992 56.7175 1.58992 56.7206 1.03892 57.1177C0.636304 57.4073 0.982362 57.6396 2.29884 57.9633C3.94317 58.3671 4.00841 58.4265 2.99375 58.5943C2.37779 58.696 1.75427 58.9965 1.60784 59.2613C1.44293 59.5597 2.61326 59.7585 4.68765 59.7838C7.2716 59.8153 7.85816 59.9428 7.26348 60.343C6.81719 60.644 6.49353 61.248 6.49353 61.7809C6.49353 62.5264 6.00412 62.8837 3.90733 63.6684C2.48503 64.2008 1.55856 64.7207 1.84834 64.8234C2.27 64.9731 2.29716 65.1017 1.98442 65.4667C1.69716 65.8023 1.77891 65.9267 2.2938 65.9386C2.67877 65.9474 3.1791 66.171 3.40589 66.4353C3.86394 66.9691 3.74495 67.0998 2.2546 67.6982C1.84807 67.8613 1.44713 68.3239 1.36342 68.7266C1.23575 69.339 1.71955 69.4195 4.34243 69.2202C6.65648 69.0447 7.36399 69.1304 7.05349 69.5486C6.69932 70.0261 6.72144 70.102 7.19349 70.0329C8.12919 69.8945 8.33413 70.0597 7.89344 70.5967C7.60786 70.9446 8.01075 70.9901 9.15336 70.7392C11.2448 70.2791 11.1379 70.274 15.8729 71.0711C18.7747 71.5595 23.0284 71.6391 32.2519 71.3783C39.908 71.1615 47.0856 71.2358 50.8707 71.5704C63.3453 72.6748 64.5862 72.7522 64.4078 72.4125C64.3079 72.222 62.922 71.9401 61.328 71.7862C59.7344 71.6329 58.3104 71.2993 58.1642 71.0464C57.7997 70.4149 81.9084 70.464 90.4112 71.1119C95.2885 71.4837 132.128 72.2111 144.945 72.1889C147.804 72.1838 160.275 71.5312 160.848 71.3567C161.32 71.2121 161.564 71.319 161.461 71.6256C161.367 71.9055 161.417 72.1342 161.571 72.1342C161.725 72.1342 161.928 71.9019 162.024 71.6179C162.25 70.941 163.284 70.9488 163.284 71.6272C163.284 72.2111 169.898 72.2457 174.728 71.6876C176.939 71.432 177.665 71.5069 177.767 72.001C177.842 72.3583 178.085 72.6505 178.309 72.6505C178.533 72.6505 178.638 72.4182 178.543 72.1342C178.447 71.8502 178.597 71.5781 178.876 71.5296C179.155 71.4811 179.572 71.3897 179.802 71.3262C180.033 71.2632 180.915 71.1832 181.762 71.1486C182.701 71.1104 183.159 70.9178 182.935 70.6565C182.572 70.2316 184.558 69.8362 190.162 69.2187C192.979 68.9084 194.254 68.0606 192.108 67.9253C191.423 67.882 190.736 67.7926 190.582 67.7266C190.428 67.6605 189.105 67.5479 187.642 67.4767L184.982 67.346L186.802 66.9444C187.803 66.7234 189.861 66.4699 191.374 66.3816C192.888 66.2928 194.187 66.0408 194.261 65.8214C194.334 65.602 194.647 65.4223 194.955 65.4223C195.263 65.4223 195.447 65.2204 195.364 64.9731C195.28 64.7238 194.682 64.714 194.018 64.9509C192.677 65.429 191.4 65.5493 191.601 65.1786C191.87 64.6809 197.671 62.8377 198.072 63.1217C198.307 63.2874 198.562 63.0649 198.656 62.6121C198.775 62.0416 199.253 61.784 200.303 61.7241L201.781 61.6399L200.241 61.3353C199.03 61.0952 198.862 60.9646 199.455 60.7225C199.87 60.5526 200.815 60.5867 201.555 60.7973C202.295 61.008 202.93 61.1334 202.965 61.0761C203 61.0183 202.827 60.4431 202.582 59.7972C202.287 59.0197 202.042 58.7967 201.858 59.1364C201.674 59.4766 201.283 59.4678 200.7 59.1095C199.136 58.1487 199.383 57.9324 201.83 58.1208C203.537 58.252 204.176 58.1399 204.04 57.7336C203.922 57.3815 204.097 57.1435 204.494 57.1151C205.07 57.0738 202.319 56.0427 200.101 55.4686C199.639 55.3488 200.206 55.2125 201.361 55.166C202.516 55.1191 203.65 54.8552 203.881 54.5801C204.229 54.1649 204.205 54.0767 203.741 54.0638C203.433 54.055 202.992 53.8025 202.761 53.5025C202.454 53.104 202.698 53.0451 203.67 53.2841C205.408 53.7106 205.775 53.2599 204.973 51.6862C204.618 50.9892 204.494 50.4497 204.689 50.4497C204.879 50.4497 204.956 50.2173 204.861 49.9334C204.766 49.6494 204.16 49.4135 203.514 49.4093C202.869 49.4047 202.152 49.1589 201.921 48.8626C201.619 48.4753 201.913 48.4185 202.971 48.6612C204.467 49.0035 205.033 48.3158 203.811 47.64C203.197 47.3002 203.195 47.2796 203.741 46.7958C204.185 46.4034 204.096 46.3451 203.314 46.5165C202.187 46.7638 201.003 45.6507 201.796 45.0895C202.044 44.9139 202.473 44.7704 202.75 44.7704C203.026 44.7704 203.409 44.4219 203.601 43.9959C203.875 43.3877 203.876 43.2215 203.605 43.2215C203.414 43.2215 203.333 42.8766 203.422 42.447C203.526 41.9493 203.411 41.6597 203.102 41.6364C202.703 41.606 202.717 41.528 203.181 41.1769C203.701 40.7835 203.685 40.7133 202.953 40.1805C202.519 39.8655 201.984 39.6074 201.763 39.6074C201.542 39.6074 201.361 39.3751 201.361 39.0911C201.361 38.8071 202.085 38.5521 202.971 38.5247L204.581 38.4746L203.531 37.68C202.393 36.8189 202.186 35.8043 202.988 35.0129C203.267 34.7377 204.905 34.3479 206.628 34.1465C208.351 33.9457 209.761 33.6013 209.761 33.3814C209.761 33.1614 209.414 32.7484 208.991 32.4629C208.346 32.0292 208.552 31.9378 210.251 31.9037C211.402 31.8805 212.28 31.6394 212.28 31.3466C212.28 31.0627 212.021 30.8303 211.704 30.8303C211.387 30.8303 211.202 30.6083 211.293 30.3367C211.384 30.0652 211.643 29.9738 211.869 30.1338C212.095 30.2934 212.28 30.2061 212.28 29.9397C212.28 29.6728 211.682 29.1957 210.951 28.8792C209.822 28.3908 210.255 28.3289 213.82 28.4683L218.02 28.633L214.38 27.6892C208.011 26.0375 208.125 26.0804 208.921 25.641C209.568 25.2832 209.575 25.2502 209.007 25.2027C208.153 25.1309 207.937 24.2403 208.706 23.9677C209.059 23.8422 208.823 23.7116 208.174 23.6724C207.532 23.6336 206.966 23.3729 206.914 23.0931C206.863 22.8132 205.372 22.394 203.601 22.1622C200.447 21.7491 200.406 21.7275 201.563 21.1064C202.317 20.7021 204.281 20.5142 206.987 20.587C210.904 20.6928 211.26 20.6241 211.627 19.6994C211.976 18.8181 212.445 18.6767 215.512 18.5259C218.293 18.3896 219 18.2063 219 17.6224C219 17.2197 218.891 16.8903 218.757 16.8903C218.363 16.8903 213.585 15.3347 213.05 15.0326C212.039 14.4606 212.617 13.7904 214.17 13.7331C215.763 13.6742 215.768 13.6691 214.66 13.2467C214.044 13.0118 212.532 12.7888 211.3 12.7516C209.107 12.6845 206.131 11.9828 206.961 11.7273C207.751 11.4841 204.863 10.7711 202.933 10.7329C201.251 10.6993 200.923 10.5305 200.357 9.40393L199.708 8.11319L200.885 8.06672L202.061 8.02025L201.104 7.51273C200.577 7.23393 199.916 7.11725 199.634 7.25303C199.352 7.38882 199.121 7.30673 199.121 7.07026C199.121 6.8338 198.901 6.53383 198.631 6.40372C198.362 6.27413 198.708 6.1115 199.401 6.04335L200.661 5.91892L199.401 5.52756C195.283 4.24921 165.998 3.54343 156.564 4.49548C153.869 4.76757 150.383 4.99577 148.818 5.00249C146.809 5.01178 145.929 5.20539 145.829 5.66077C145.722 6.1466 145.63 6.15745 145.454 5.7031C145.256 5.19403 139.442 4.60803 138.925 5.04482C138.42 5.4718 64.6657 5.41553 59.6901 4.98442C56.3794 4.69735 52.5996 4.37209 51.2907 4.2616C49.9818 4.15111 46.0858 3.93943 42.6334 3.79228C39.1806 3.64462 35.0859 3.37821 33.5339 3.20061C29.0464 2.68637 22.6981 2.63526 22.5382 3.11232ZM164.631 2.78653C164.833 2.93574 165.075 2.91716 165.168 2.74575C165.26 2.57434 165.095 2.45249 164.8 2.47469C164.474 2.49947 164.408 2.62183 164.631 2.78653ZM157.072 3.30283C157.273 3.45204 157.515 3.43346 157.608 3.26204C157.701 3.09063 157.536 2.96879 157.241 2.99099C156.915 3.01577 156.848 3.13813 157.072 3.30283ZM159.311 3.30283C159.513 3.45204 159.755 3.43346 159.848 3.26204C159.941 3.09063 159.776 2.96879 159.481 2.99099C159.154 3.01577 159.088 3.13813 159.311 3.30283ZM69.4195 4.34731C69.7661 4.47018 70.3328 4.47018 70.6794 4.34731C71.0261 4.22391 70.7424 4.12323 70.0495 4.12323C69.3565 4.12323 69.0729 4.22391 69.4195 4.34731ZM126.121 6.38668C125.932 6.52815 125.554 6.53693 125.281 6.40579C125.009 6.27465 125.164 6.159 125.626 6.14867C126.088 6.13834 126.311 6.24522 126.121 6.38668ZM197.925 6.35984C197.833 6.53125 197.591 6.54983 197.389 6.40062C197.166 6.23592 197.232 6.11356 197.558 6.08878C197.853 6.06658 198.018 6.18843 197.925 6.35984ZM156.204 7.27678C156.299 7.45284 155.38 7.62322 154.161 7.65574C152.942 7.68775 148.731 7.83232 144.805 7.97637C140.878 8.12093 126.979 8.4178 113.917 8.63723C100.856 8.85665 89.4825 9.1938 88.6428 9.38741C87.1001 9.74262 85.2536 9.33268 85.5921 8.70951C85.787 8.35068 88.4373 8.25465 103.297 8.07033C108.969 7.9996 112.607 7.7621 112.607 7.46213C112.607 7.19159 112.784 7.09556 113.001 7.2489C113.599 7.67226 122.923 7.6005 129.686 7.12035C136.297 6.65051 155.927 6.76668 156.204 7.27678ZM163.517 6.82296C163.315 7.19417 158.516 7.23909 158.317 6.87149C158.225 6.70266 159.39 6.56429 160.904 6.56429C162.418 6.56429 163.594 6.68046 163.517 6.82296ZM164.608 6.87613C164.515 7.04754 164.273 7.06613 164.071 6.91692C163.848 6.75222 163.914 6.62986 164.24 6.60508C164.535 6.58288 164.701 6.70472 164.608 6.87613ZM143.338 7.44561C143.686 7.56901 144.19 7.56436 144.458 7.43528C144.726 7.30621 144.441 7.20502 143.825 7.2107C143.209 7.21637 142.99 7.32222 143.338 7.44561ZM181.579 7.46781C181.65 7.68053 179.967 7.85504 177.839 7.85504C175.711 7.85504 173.876 7.68053 173.76 7.46781C173.644 7.2551 175.327 7.08059 177.499 7.08059C179.672 7.08059 181.508 7.2551 181.579 7.46781ZM183.022 7.59689C182.258 8.20302 182.042 8.20302 182.042 7.59689C182.042 7.31292 182.389 7.09711 182.812 7.11673C183.495 7.14926 183.518 7.20347 183.022 7.59689ZM131.873 7.94952C132.075 8.09873 132.317 8.08014 132.41 7.90873C132.503 7.73732 132.337 7.61548 132.042 7.63768C131.716 7.66246 131.65 7.78482 131.873 7.94952ZM133.54 7.9712C134.044 8.08582 134.8 8.08375 135.22 7.96604C135.641 7.84781 135.229 7.75384 134.305 7.75694C133.381 7.75952 133.037 7.85607 133.54 7.9712ZM77.0224 9.17624C76.8209 9.406 76.5417 9.46382 76.4026 9.30532C76.2634 9.14681 76.3144 8.82878 76.5157 8.59902C76.7173 8.36927 76.9964 8.31144 77.1356 8.46995C77.2747 8.62845 77.2237 8.94649 77.0224 9.17624ZM82.0887 8.74152C82.0887 8.96405 81.1754 9.11842 80.0588 9.08486C78.5523 9.03943 78.2454 8.92429 78.8689 8.63826C79.9438 8.14468 82.0887 8.21386 82.0887 8.74152ZM84.8885 8.38424C84.8885 8.93565 83.3769 9.69203 82.9505 9.35385C82.6016 9.07711 82.6557 8.92067 83.2086 8.60986C84.0637 8.12867 84.8885 8.01819 84.8885 8.38424ZM75.7793 9.17521C75.6894 9.44265 74.6471 9.65847 73.4628 9.65434C72.2784 9.64969 71.4567 9.4757 71.6367 9.26711C72.1351 8.68937 75.9706 8.60418 75.7793 9.17521ZM165.319 8.96817C165.129 9.10964 164.751 9.11842 164.479 8.98728C164.206 8.85614 164.361 8.74049 164.823 8.73016C165.285 8.71984 165.508 8.82671 165.319 8.96817ZM184.912 9.51029C184.566 9.63317 183.999 9.63317 183.652 9.51029C183.306 9.38689 183.589 9.28622 184.282 9.28622C184.975 9.28622 185.258 9.38689 184.912 9.51029ZM11.2532 16.374C11.2532 16.6579 11.1978 16.8903 11.1298 16.8903C11.0617 16.8903 10.9284 16.6579 10.8333 16.374C10.7381 16.09 10.7938 15.8577 10.9567 15.8577C11.1197 15.8577 11.2532 16.09 11.2532 16.374ZM3.64135 35.3133C3.84322 35.4625 4.08484 35.444 4.1778 35.2725C4.27075 35.1011 4.10556 34.9793 3.81046 35.0015C3.48428 35.0263 3.41793 35.1486 3.64135 35.3133ZM202.685 44.0496C202.592 44.221 202.351 44.2396 202.149 44.0904C201.925 43.9257 201.992 43.8033 202.318 43.7786C202.613 43.7564 202.778 43.8782 202.685 44.0496ZM5.93357 45.2867C5.93357 45.5706 5.80001 45.803 5.63706 45.803C5.47411 45.803 5.4184 45.5706 5.51359 45.2867C5.60879 45.0027 5.74206 44.7704 5.81009 44.7704C5.87813 44.7704 5.93357 45.0027 5.93357 45.2867ZM89.2397 53.0657C89.541 53.9646 89.198 54.1551 88.8139 53.3017C88.593 52.8112 88.5717 52.5149 88.7576 52.5149C88.9211 52.5149 89.1384 52.7627 89.2397 53.0657ZM106.994 54.3369C107.16 54.1474 107.224 53.7762 107.135 53.5118C107.043 53.2356 107.686 53.0312 108.647 53.0312C109.613 53.0312 110.364 53.2707 110.423 53.5981C110.479 53.9099 111.117 54.2883 111.84 54.4386C113.642 54.8134 113.232 55.6085 111.337 55.4118C110.198 55.2936 109.807 55.4309 109.807 55.9493C109.807 56.8259 108.782 56.8688 108.592 55.9999C108.511 55.6256 108.442 55.7469 108.429 56.2885C108.417 56.8022 108.303 57.1047 108.177 56.9602C108.05 56.8161 107.737 57.1507 107.48 57.7042C106.932 58.8855 105.607 59.0718 105.607 57.9685C105.607 57.4037 105.364 57.2994 104.59 57.5307C103.791 57.7697 103.602 57.6794 103.71 57.1115C103.786 56.7129 104.026 56.4108 104.245 56.4398C104.463 56.4687 104.814 56.1522 105.025 55.7371C105.357 55.0809 105.283 55.0282 104.457 55.3359C103.935 55.5306 103.297 55.798 103.041 55.9302C102.784 56.0629 102.501 55.9508 102.411 55.6823C102.321 55.4134 102.884 55.0318 103.662 54.8346C104.441 54.6368 105.229 54.1722 105.413 53.8015C105.687 53.249 105.832 53.2676 106.22 53.9042C106.479 54.3317 106.828 54.5264 106.994 54.3369ZM146.485 53.7473C146.485 54.1711 144.772 54.3844 144.636 53.9775C144.557 53.7411 144.94 53.5475 145.488 53.5475C146.036 53.5475 146.485 53.6373 146.485 53.7473ZM95.359 56.8559C95.1185 58.0119 94.766 57.4342 94.8506 56.0216C94.9556 54.2651 94.9623 54.2507 95.2568 55.181C95.4064 55.6534 95.4523 56.4072 95.359 56.8559ZM115.202 54.9187C115.012 55.0602 114.634 55.069 114.362 54.9378C114.09 54.8067 114.245 54.6911 114.707 54.6807C115.169 54.6704 115.391 54.7773 115.202 54.9187ZM124.646 55.1227C122.85 55.7118 116.467 55.6927 115.967 55.0963C115.688 54.7644 117.291 54.6152 120.726 54.6523C124.269 54.6916 125.508 54.8397 124.646 55.1227ZM130.456 54.9497C130.032 55.068 129.339 55.068 128.916 54.9497C128.492 54.8315 128.839 54.7349 129.686 54.7349C130.533 54.7349 130.879 54.8315 130.456 54.9497ZM133.115 54.9218C132.923 55.0654 132.608 55.0654 132.416 54.9218C132.223 54.7788 132.381 54.6616 132.765 54.6616C133.15 54.6616 133.308 54.7788 133.115 54.9218ZM135.915 54.9218C135.723 55.0654 135.408 55.0654 135.215 54.9218C135.023 54.7788 135.18 54.6616 135.565 54.6616C135.95 54.6616 136.108 54.7788 135.915 54.9218ZM88.2483 55.3488C88.2483 56.1005 87.2046 57.6753 86.7163 57.6608C86.1703 57.6443 86.1731 57.6056 86.7891 56.6587L87.4294 55.6741L86.2291 55.4753C85.175 55.3008 85.2248 55.2657 86.6384 55.1867C87.524 55.1371 88.2483 55.2099 88.2483 55.3488ZM89.5724 55.4082C89.4794 55.5796 89.2378 55.5982 89.0359 55.449C88.8125 55.2843 88.8788 55.1619 89.205 55.1371C89.5001 55.1149 89.6653 55.2368 89.5724 55.4082ZM106.727 55.6126C106.727 55.8966 106.861 56.1289 107.024 56.1289C107.187 56.1289 107.242 55.8966 107.147 55.6126C107.052 55.3287 106.919 55.0963 106.851 55.0963C106.783 55.0963 106.727 55.3287 106.727 55.6126ZM194.286 55.4082C194.193 55.5796 193.951 55.5982 193.749 55.449C193.526 55.2843 193.592 55.1619 193.918 55.1371C194.213 55.1149 194.379 55.2368 194.286 55.4082ZM196.391 55.4381C196.199 55.5817 195.884 55.5817 195.691 55.4381C195.499 55.2951 195.656 55.1779 196.041 55.1779C196.426 55.1779 196.584 55.2951 196.391 55.4381ZM76.1332 55.9245C76.0403 56.0959 75.7986 56.1145 75.5968 55.9653C75.3733 55.8006 75.4397 55.6782 75.7659 55.6534C76.061 55.6312 76.2262 55.7531 76.1332 55.9245ZM83.9845 56.226C83.9234 56.5632 83.7065 56.9416 83.5021 57.0671C83.2932 57.1956 83.2109 57.0567 83.3139 56.749C83.4167 56.4423 83.219 56.1042 82.8629 55.9782C82.4113 55.8181 82.4975 55.7329 83.1619 55.6829C83.7709 55.6369 84.0567 55.8259 83.9845 56.226ZM92.868 56.6452C92.7661 57.2374 92.8176 57.6778 92.9893 57.6778C93.1536 57.6778 93.288 57.8714 93.288 58.1079C93.288 58.7786 92.1496 58.458 91.9013 57.7171C91.7293 57.2044 91.5437 57.1889 91.0781 57.6484C90.7472 57.9747 90.3404 58.0867 90.1738 57.8967C89.8378 57.5137 91.7274 55.7211 92.5368 55.6545C92.9218 55.623 93.0024 55.8641 92.868 56.6452ZM145.785 56.1289C145.88 56.4129 145.824 56.6452 145.661 56.6452C145.498 56.6452 145.365 56.4129 145.365 56.1289C145.365 55.845 145.42 55.6126 145.488 55.6126C145.556 55.6126 145.689 55.845 145.785 56.1289ZM148.444 55.8403C148.444 55.9658 148.318 56.2116 148.165 56.3871C148.011 56.5626 147.885 56.4599 147.885 56.1594C147.885 55.8589 148.011 55.6126 148.165 55.6126C148.318 55.6126 148.444 55.7149 148.444 55.8403ZM189.397 55.9513C189.208 56.0928 188.83 56.1016 188.557 55.9704C188.285 55.8393 188.44 55.7237 188.902 55.7133C189.364 55.703 189.587 55.8099 189.397 55.9513ZM190.926 55.9245C190.833 56.0959 190.591 56.1145 190.389 55.9653C190.166 55.8006 190.232 55.6782 190.559 55.6534C190.854 55.6312 191.019 55.7531 190.926 55.9245ZM80.2688 56.6452C80.364 56.9292 80.3083 57.1615 80.1454 57.1615C79.9824 57.1615 79.8489 56.9292 79.8489 56.6452C79.8489 56.3613 79.9043 56.1289 79.9723 56.1289C80.0404 56.1289 80.1736 56.3613 80.2688 56.6452ZM113.371 56.4408C113.278 56.6122 113.036 56.6308 112.834 56.4816C112.611 56.3169 112.677 56.1945 113.004 56.1697C113.299 56.1475 113.464 56.2694 113.371 56.4408ZM114.771 56.4408C114.678 56.6122 114.436 56.6308 114.234 56.4816C114.011 56.3169 114.077 56.1945 114.403 56.1697C114.699 56.1475 114.864 56.2694 114.771 56.4408ZM117.366 56.9034C117.366 57.3293 117.492 57.6778 117.646 57.6778C117.8 57.6778 117.926 57.3877 117.926 57.0325C117.925 56.5533 118.54 56.4305 120.309 56.5544C121.751 56.6556 122.628 56.9189 122.526 57.2209C122.434 57.4951 122.137 57.5896 121.865 57.4305C121.593 57.2715 121.005 57.4935 120.559 57.9231C119.84 58.6149 119.736 58.616 119.656 57.9329C119.555 57.0707 118.335 56.875 118.066 57.6778C117.879 58.238 116.724 58.3867 116.453 57.8854C116.18 57.383 116.554 56.1289 116.976 56.1289C117.191 56.1289 117.366 56.4774 117.366 56.9034ZM143.125 56.9034C142.83 57.5591 142.891 57.6778 143.527 57.6778C143.956 57.6778 144.204 57.8988 144.105 58.1941C144.01 58.4781 143.666 58.7104 143.342 58.7104C143.017 58.7104 142.841 58.8767 142.952 59.0796C143.062 59.2825 144.172 59.377 145.418 59.2902C147.442 59.1488 147.665 59.2242 147.504 59.9971C147.386 60.566 147.444 60.7808 147.674 60.6254C147.867 60.4948 147.993 60.1272 147.955 59.8076C147.916 59.488 148.207 59.2267 148.601 59.2267C149.007 59.2267 149.243 59.4503 149.144 59.743C149.049 60.027 149.105 60.2593 149.268 60.2593C149.431 60.2593 149.564 60.027 149.564 59.743C149.564 58.8839 150.612 59.1648 150.801 60.075C150.898 60.5418 150.935 61.0013 150.884 61.0963C150.832 61.1907 149.549 61.3317 148.031 61.4091C146.017 61.5119 145.24 61.3761 145.155 60.9047C145.091 60.55 144.789 60.2593 144.485 60.2593C144.181 60.2593 144.01 60.4917 144.105 60.7756C144.206 61.0766 143.921 61.2919 143.421 61.2919C142.95 61.2919 142.565 61.0596 142.565 60.7756C142.565 60.4917 142.099 60.2593 141.529 60.2593C140.396 60.2593 140.541 59.4338 141.725 59.1415C142.251 59.0114 142.447 58.6165 142.513 57.5488C142.568 56.6783 142.771 56.1289 143.038 56.1289C143.393 56.1289 143.409 56.2714 143.125 56.9034ZM170.983 57.3195C171.291 57.4677 170.944 57.5653 170.213 57.5369C169.482 57.5085 168.883 57.2803 168.883 57.0304C168.883 56.78 169.151 56.7325 169.478 56.924C169.933 57.1899 170.019 57.1073 169.844 56.5714C169.665 56.0205 169.702 55.9968 170.019 56.4604C170.241 56.7852 170.675 57.1714 170.983 57.3195ZM135.985 57.1615C135.89 57.4455 135.694 57.6778 135.549 57.6778C135.404 57.6778 135.285 57.4455 135.285 57.1615C135.285 56.8776 135.482 56.6452 135.722 56.6452C135.962 56.6452 136.08 56.8776 135.985 57.1615ZM106.167 57.6778C106.71 58.3248 107.007 58.3248 107.007 57.6778C107.007 57.3939 106.724 57.1652 106.377 57.1693C105.868 57.176 105.828 57.2731 106.167 57.6778ZM132.486 57.9019C132.486 58.3212 132.819 58.7208 133.255 58.8235C133.873 58.9691 133.797 59.0538 132.87 59.2526C131.818 59.4782 131.716 59.3966 131.716 58.331C131.716 57.683 131.887 57.1615 132.101 57.1615C132.312 57.1615 132.486 57.4946 132.486 57.9019ZM141.165 57.6009C141.165 57.8601 140.658 58.0852 140.039 58.1012C139.42 58.1167 138.97 57.9603 139.04 57.7537C139.228 57.193 141.165 57.0536 141.165 57.6009ZM53.9505 58.1941C54.0457 58.4781 53.927 58.7104 53.687 58.7104C53.4471 58.7104 53.2506 58.4781 53.2506 58.1941C53.2506 57.9102 53.369 57.6778 53.514 57.6778C53.659 57.6778 53.8553 57.9102 53.9505 58.1941ZM109.527 58.2246C109.527 58.5251 109.387 58.6118 109.216 58.4167C109.045 58.2215 108.795 58.3821 108.66 58.7734C108.467 59.3362 108.415 59.2959 108.411 58.5814C108.409 58.0196 108.619 57.6778 108.967 57.6778C109.275 57.6778 109.527 57.9241 109.527 58.2246ZM113.447 58.0651C113.447 58.2778 113.144 58.4523 112.773 58.4523C112.403 58.4523 112.159 58.2778 112.23 58.0651C112.301 57.8523 112.604 57.6778 112.903 57.6778C113.202 57.6778 113.447 57.8523 113.447 58.0651ZM166.783 58.1941C166.688 58.4781 166.334 58.6939 165.997 58.6743C165.406 58.6392 165.404 58.6222 165.943 58.1941C166.714 57.5834 166.988 57.5834 166.783 58.1941ZM187.362 58.1941C187.362 58.4781 187.646 58.7141 187.992 58.7182C188.338 58.7228 188.811 58.9515 189.042 59.2267C189.352 59.5959 189.131 59.7559 188.202 59.836C187.509 59.8959 186.501 60.0368 185.962 60.1488C185.423 60.2614 180.635 60.4215 175.323 60.5046C170.01 60.5877 166.419 60.4824 167.343 60.2702C168.267 60.0585 169.653 59.7405 170.423 59.5639C173.381 58.886 176.969 58.7094 177.145 59.2324C177.242 59.5226 177.451 59.6124 177.609 59.4322C177.767 59.2525 178.19 59.3956 178.55 59.7508C178.91 60.106 179.434 60.2278 179.714 60.0213C179.993 59.8148 181.128 59.6052 182.234 59.5556C183.341 59.5061 184.328 59.3135 184.429 59.1276C184.53 58.9423 185.042 58.919 185.567 59.076C186.327 59.3031 186.522 59.1896 186.522 58.5199C186.522 58.0568 186.711 57.6778 186.942 57.6778C187.173 57.6778 187.362 57.9102 187.362 58.1941ZM195.598 58.3232C195.729 58.8395 195.794 58.8395 195.925 58.3232C196.101 57.6293 198.438 57.4083 198.658 58.0651C198.729 58.2778 198.233 58.3707 197.555 58.2711C196.785 58.158 196.321 58.3036 196.321 58.6583C196.321 59.5195 195.005 59.3388 194.82 58.4523C194.624 57.5106 195.362 57.3882 195.598 58.3232ZM130.666 58.7104C130.57 58.9944 130.154 59.2102 129.739 59.1906C129.066 59.1581 129.046 59.1064 129.546 58.7104C130.323 58.094 130.872 58.094 130.666 58.7104ZM156.984 58.7104C156.889 58.9944 157.07 59.2267 157.387 59.2267C157.704 59.2267 157.964 58.9944 157.964 58.7104C157.964 58.1007 158.506 58.2385 158.967 58.9655C159.39 59.632 157.953 60.8087 157.174 60.4333C156.873 60.2882 156.542 60.422 156.439 60.7307C156.336 61.0395 156.062 61.2919 155.831 61.2919C155.6 61.2919 155.495 61.0415 155.597 60.7359C155.727 60.3507 155.387 60.2893 154.494 60.5361C153.712 60.7524 153.204 60.6951 153.204 60.39C153.204 60.1137 153.927 59.7497 154.81 59.582C155.693 59.4142 156.459 59.0331 156.513 58.7352C156.566 58.4378 156.734 58.1941 156.884 58.1941C157.034 58.1941 157.079 58.4265 156.984 58.7104ZM164.989 58.6702C164.772 58.9237 164.224 59.0445 163.77 58.9386C163.136 58.7905 162.913 58.9794 162.802 59.7611C162.723 60.3192 162.551 60.7756 162.42 60.7756C162.117 60.7756 162.443 59.0946 162.843 58.5891C163.008 58.3805 163.648 58.2101 164.263 58.2101C165.028 58.2101 165.258 58.3563 164.989 58.6702ZM66.4097 59.1663C66.4097 59.7812 65.3273 60.2722 65.1484 59.7389C65.0703 59.5055 65.1646 59.1973 65.3581 59.0533C65.9315 58.6268 66.4097 58.6784 66.4097 59.1663ZM70.0495 59.2267C70.0495 59.5107 69.9311 59.743 69.786 59.743C69.641 59.743 69.4447 59.5107 69.3495 59.2267C69.2543 58.9428 69.3731 58.7104 69.613 58.7104C69.8529 58.7104 70.0495 58.9428 70.0495 59.2267ZM75.0892 59.1705C75.0892 59.9511 73.0447 60.1173 72.2969 59.3976C71.6417 58.7672 71.719 58.7166 73.3393 58.7135C74.3019 58.712 75.0892 58.9175 75.0892 59.1705ZM75.9501 59.3687C75.9154 59.9862 75.5315 59.8664 75.4111 59.2009C75.3495 58.8602 75.4503 58.6743 75.6351 58.7879C75.8199 58.9015 75.9616 59.1627 75.9501 59.3687ZM78.4294 60.9951C78.44 61.2579 78.2154 61.0255 77.9299 60.4788C77.5779 59.805 77.5102 59.3661 77.7199 59.1168C78.0001 58.7822 78.3795 59.7864 78.4294 60.9951ZM80.8058 59.0238C81.3756 59.4271 81.3801 60.2593 80.8123 60.2593C80.5723 60.2593 80.4489 60.4777 80.5385 60.7441C80.6278 61.0111 80.4469 61.1944 80.1364 61.151C79.5557 61.0704 79.4653 59.8148 79.9889 59.1054C80.3318 58.6407 80.2728 58.6464 80.8058 59.0238ZM190.722 59.2267C190.722 59.5107 190.501 59.7394 190.232 59.7353C189.813 59.7286 189.803 59.6542 190.162 59.2267C190.69 58.5969 190.722 58.5969 190.722 59.2267ZM83.6395 60.0306C82.9233 60.5727 82.8853 60.693 83.3596 60.915C83.8033 61.1231 83.7739 61.1835 83.2061 61.232C82.8007 61.2666 82.3679 60.8913 82.1828 60.3456C81.8891 59.4782 81.9717 59.3992 83.1655 59.4012C84.4565 59.4033 84.4607 59.409 83.6395 60.0306ZM87.4882 60.6259C87.601 61.7143 87.5347 61.8537 87.024 61.6007C86.6964 61.4386 85.9245 61.2955 85.3085 61.2832C84.4022 61.2651 84.2832 61.1587 84.6844 60.7281C84.9571 60.4354 85.11 59.9862 85.0241 59.7296C84.9381 59.4735 85.4278 59.2846 86.1121 59.3099C87.2026 59.3501 87.3728 59.5128 87.4882 60.6259ZM95.7152 60.55C96.0061 61.2832 96.1648 61.3565 96.4249 60.8768C96.8911 60.0172 97.4877 60.105 97.4877 61.0338C97.4877 61.6373 97.1322 61.7995 95.8778 61.7674C94.9923 61.7452 94.4256 61.6095 94.6179 61.4664C95.4411 60.8536 94.8551 60.2593 93.428 60.2593C91.7624 60.2593 91.3144 61.0952 92.798 61.4349C93.3639 61.564 93.1055 61.674 92.1146 61.7256C91.2203 61.7721 90.4386 61.562 90.3331 61.247C90.1976 60.8427 90.0598 60.8427 89.8406 61.247C89.6732 61.5558 89.3473 61.8082 89.1163 61.8082C88.8058 61.8082 88.7783 61.657 89.0104 61.2289C89.1832 60.9104 89.2549 60.3146 89.1695 59.9046C89.0384 59.2748 89.5035 59.1942 92.1776 59.3827C94.8318 59.5696 95.401 59.757 95.7152 60.55ZM101.966 60.3884C101.968 60.9651 100.068 60.8572 99.8709 60.2691C99.7685 59.964 100.15 59.8102 100.833 59.8819C101.455 59.9475 101.965 60.1757 101.966 60.3884ZM112.047 60.2289C112.047 60.4963 111.921 60.8577 111.768 61.0327C111.279 61.5893 103.716 61.3337 103.087 60.7395C102.768 60.4375 106.236 59.9057 109.037 59.8272C110.763 59.7792 112.047 59.9501 112.047 60.2289ZM124.325 60.5283C124.62 61.0725 124.091 61.2568 121.479 61.5186C118.801 61.7876 115.967 61.1298 115.967 60.2397C115.967 59.7859 124.075 60.0662 124.325 60.5283ZM134.305 60.757C132.499 61.0544 131.141 60.8355 131.591 60.3192C131.743 60.1442 132.794 60.1091 133.927 60.2407L135.985 60.4803L134.305 60.757ZM139.205 60.2593C139.205 60.5433 139.15 60.7756 139.082 60.7756C139.014 60.7756 138.88 60.5433 138.785 60.2593C138.69 59.9754 138.746 59.743 138.909 59.743C139.072 59.743 139.205 59.9754 139.205 60.2593ZM145.505 60.2593C145.409 60.5433 145.528 60.7756 145.768 60.7756C146.008 60.7756 146.205 60.5433 146.205 60.2593C146.205 59.9754 146.086 59.743 145.941 59.743C145.796 59.743 145.6 59.9754 145.505 60.2593ZM203.549 60.0957C203.75 60.2449 203.992 60.2263 204.085 60.0549C204.178 59.8835 204.013 59.7616 203.718 59.7838C203.392 59.8086 203.325 59.931 203.549 60.0957ZM137.961 60.7271C137.875 60.9842 137.553 61.0735 137.245 60.9248C136.474 60.5536 136.544 60.2593 137.402 60.2593C137.796 60.2593 138.048 60.47 137.961 60.7271ZM152.434 60.6011C152.242 60.7447 151.927 60.7447 151.734 60.6011C151.542 60.4581 151.699 60.3409 152.084 60.3409C152.469 60.3409 152.627 60.4581 152.434 60.6011ZM165.313 60.6011C165.121 60.7447 164.806 60.7447 164.613 60.6011C164.421 60.4581 164.578 60.3409 164.963 60.3409C165.348 60.3409 165.506 60.4581 165.313 60.6011ZM201.501 62.8408C201.596 63.1248 201.73 63.3571 201.798 63.3571C201.866 63.3571 201.921 63.1248 201.921 62.8408C201.921 62.5569 201.788 62.3245 201.625 62.3245C201.462 62.3245 201.406 62.5569 201.501 62.8408ZM208.868 62.6772C209.07 62.8264 209.312 62.8078 209.405 62.6364C209.498 62.465 209.332 62.3431 209.037 62.3653C208.711 62.3901 208.645 62.5125 208.868 62.6772ZM94.4074 69.1655C94.4077 69.3782 91.8565 69.5093 88.7383 69.4567C84.8135 69.3901 83.8011 69.2708 85.4485 69.0694C88.8671 68.6512 94.4068 68.7106 94.4074 69.1655ZM97.2078 69.355C97.2078 69.4634 96.6094 69.5253 95.8778 69.4918C94.7341 69.4391 94.6655 69.3813 95.3879 69.0787C96.1727 68.7499 97.2078 68.9073 97.2078 69.355ZM82.7187 69.3782C82.5263 69.5217 82.2113 69.5217 82.0187 69.3782C81.8264 69.2352 81.9837 69.118 82.3687 69.118C82.7537 69.118 82.9113 69.2352 82.7187 69.3782ZM57.3795 70.4789C57.5735 70.7144 56.4247 70.9204 54.793 70.9426C53.1783 70.9648 51.908 70.8316 51.9702 70.6462C52.1399 70.1402 56.9768 69.991 57.3795 70.4789ZM185.35 70.9379C185.552 71.0871 185.793 71.0686 185.886 70.8971C185.979 70.7257 185.814 70.6039 185.519 70.6261C185.193 70.6509 185.126 70.7732 185.35 70.9379ZM164.888 71.4134C164.795 71.5849 164.553 71.6034 164.351 71.4542C164.128 71.2895 164.194 71.1672 164.52 71.1424C164.815 71.1202 164.981 71.242 164.888 71.4134ZM67.5842 72.5194C69.2311 72.6102 72.0029 72.6107 73.7439 72.5199C75.4848 72.429 74.1372 72.3547 70.7494 72.3541C67.3617 72.3536 65.9374 72.428 67.5842 72.5194ZM92.6771 72.763C92.8263 73.0382 93.1825 73.1725 93.4683 73.0604C93.8533 72.9102 93.7827 72.7801 93.1967 72.5601C92.6858 72.3676 92.5018 72.4398 92.6771 72.763ZM179.47 72.4868C179.672 72.636 179.914 72.6175 180.007 72.446C180.1 72.2746 179.934 72.1528 179.639 72.175C179.313 72.1998 179.247 72.3221 179.47 72.4868ZM94.9013 73.0155C95.2496 73.1389 95.7535 73.1343 96.0212 73.0052C96.2889 72.8761 96.0038 72.7749 95.3879 72.7806C94.7719 72.7863 94.553 72.8921 94.9013 73.0155ZM98.821 73.0155C99.1693 73.1389 99.6733 73.1343 99.9409 73.0052C100.209 72.8761 99.9236 72.7749 99.3076 72.7806C98.6917 72.7863 98.4727 72.8921 98.821 73.0155ZM107.502 73.0248C108.005 73.1394 108.761 73.1374 109.182 73.0196C109.603 72.9014 109.191 72.8074 108.267 72.8105C107.343 72.8131 106.999 72.9097 107.502 73.0248ZM111.561 73.0212C111.986 73.1394 112.616 73.1363 112.961 73.014C113.305 72.8916 112.957 72.7945 112.187 72.7981C111.417 72.8023 111.135 72.9025 111.561 73.0212ZM148.234 73.0062C148.504 73.1363 148.945 73.1363 149.214 73.0062C149.484 72.8766 149.263 72.7703 148.724 72.7703C148.186 72.7703 147.965 72.8766 148.234 73.0062ZM152.854 72.9923C153.047 73.1358 153.362 73.1358 153.554 72.9923C153.747 72.8493 153.589 72.7321 153.204 72.7321C152.819 72.7321 152.662 72.8493 152.854 72.9923Z" fill="#42476D"/>
</svg>
