<svg width="268" height="74" viewBox="0 0 268 74" fill="none" xmlns="http://www.w3.org/2000/svg">
<path fill-rule="evenodd" clip-rule="evenodd" d="M193.307 0.283821C190.575 0.487936 188.185 0.728163 187.997 0.818183C187.808 0.907679 188.965 1.12906 190.566 1.30963C193.47 1.63726 193.466 1.63831 189.025 1.7995C186.575 1.88848 182.952 2.1465 180.973 2.37259C178.484 2.65731 179.751 2.70912 185.084 2.5406C197.274 2.15592 209.792 1.81573 211.401 1.82463C212.3 1.82986 212.795 1.62784 212.666 1.30963C212.527 0.965773 215.524 0.786257 221.403 0.786257C227.755 0.786257 230.285 0.951118 230.122 1.35464C229.977 1.71262 230.191 1.87801 230.701 1.80055C231.146 1.73251 231.742 1.81678 232.024 1.98792C232.307 2.15854 234.851 2.55002 237.678 2.85776C240.504 3.1655 243.395 3.62502 244.102 3.87886C244.809 4.13217 245.387 4.14473 245.387 3.9066C245.387 3.31205 244.479 2.9661 239.219 1.55352C238.56 1.37662 237.326 0.988278 236.478 0.691004C234.651 0.0503975 200.727 -0.269382 193.307 0.283821ZM88.9776 0.834929C87.3673 1.12645 87.4135 1.15 89.7485 1.22746C92.2079 1.30858 92.951 1.0872 91.4617 0.716649C91.0375 0.610928 89.9198 0.664311 88.9776 0.834929ZM85.2087 1.09243C84.8318 1.18192 83.1745 1.40645 81.5255 1.5912C79.8768 1.77595 78.5275 2.10044 78.5275 2.31293C78.5275 2.5249 79.0284 2.60497 79.641 2.49035C80.4949 2.33072 80.6347 2.4108 80.2406 2.83473C79.85 3.25448 80.0967 3.37433 81.2685 3.33298C82.6747 3.28378 82.7199 3.24401 81.7825 2.87974L80.7546 2.48041L82.011 2.41813C82.7017 2.38411 83.3184 2.56624 83.3815 2.82322C83.4462 3.08857 84.7513 3.12101 86.4079 2.89806C89.5491 2.47622 89.4946 2.27472 86.2366 2.26373C85.1059 2.25955 84.5663 2.14126 85.0374 2.00048C85.8467 1.75868 86.9424 0.699378 86.2195 0.857436C86.0406 0.896689 85.5856 1.00241 85.2087 1.09243ZM203.344 1.17303C202.174 1.27508 200.169 1.27561 198.889 1.1746C197.609 1.07411 198.567 0.990371 201.016 0.989848C203.466 0.988801 204.513 1.07149 203.344 1.17303ZM208.126 1.13273C207.891 1.27822 207.505 1.27822 207.269 1.13273C207.034 0.987754 207.227 0.86895 207.698 0.86895C208.169 0.86895 208.362 0.987754 208.126 1.13273ZM234.166 1.6561C233.93 1.8016 233.545 1.8016 233.309 1.6561C233.074 1.51113 233.266 1.39232 233.737 1.39232C234.208 1.39232 234.401 1.51113 234.166 1.6561ZM236.571 1.65296C236.339 1.79636 235.876 1.80526 235.543 1.67232C235.209 1.53939 235.399 1.42215 235.964 1.41169C236.53 1.40122 236.802 1.50955 236.571 1.65296ZM89.9198 2.1936C90.2494 2.32549 90.7894 2.32549 91.119 2.1936C91.4486 2.06223 91.179 1.95442 90.5194 1.95442C89.8599 1.95442 89.5902 2.06223 89.9198 2.1936ZM93.1748 2.17947C93.4105 2.32497 93.796 2.32497 94.0314 2.17947C94.2671 2.0345 94.0742 1.91569 93.6031 1.91569C93.132 1.91569 92.9394 2.0345 93.1748 2.17947ZM27.581 3.04408C27.4823 3.28797 25.6839 3.43923 23.5842 3.38008C19.7746 3.27384 13.1019 4.04424 11.9788 4.72044C11.6029 4.94653 11.4121 5.55992 11.4573 6.39575C11.5344 7.81827 11.5875 7.86904 13.5141 8.35787C15.0909 8.75825 15.218 9.60506 13.6854 9.49882C12.6651 9.42816 12.5801 9.54225 12.6706 10.8611C12.7569 12.1214 12.6503 12.3015 11.814 12.3083C10.6158 12.3187 10.1937 12.784 10.0991 14.1992C10.0378 15.1198 10.2602 15.37 11.384 15.6442C13.203 16.0886 13.1047 16.8124 11.1801 17.1437C9.6599 17.4054 7.76962 19.2906 8.13144 20.1845C8.2212 20.4069 7.83198 20.7445 7.26631 20.9345C6.37719 21.2328 6.30387 21.3804 6.72496 22.0236C6.99289 22.4329 7.41603 22.7715 7.66512 22.7757C8.00638 22.782 7.99439 22.9029 7.61647 23.2682C7.26528 23.6073 7.66581 23.8005 8.9558 23.914C10.7741 24.0742 10.7964 24.0962 10.8272 25.7772C10.8447 26.713 10.7429 27.4782 10.6018 27.4782C10.4606 27.4782 10.3448 27.9492 10.3448 28.5249C10.3448 29.3006 10.1009 29.59 9.40258 29.6428C8.58131 29.7051 8.56041 29.7433 9.24018 29.9427C10.2335 30.2337 12.0401 31.6578 11.4217 31.662C11.1603 31.6636 11.039 31.9917 11.1445 32.412C11.4234 33.5221 10.745 34.1208 8.49017 34.7551C6.47278 35.3225 5.60354 35.8521 6.69001 35.8521C7.00419 35.8521 7.26117 36.2054 7.26117 36.6372C7.26117 37.2479 6.80445 37.4222 5.20541 37.4222C2.98861 37.4222 2.29925 38.4219 4.4345 38.5402C5.22973 38.5841 5.42572 38.6977 4.94844 38.8385C4.52427 38.963 4.17753 39.2682 4.17753 39.5168C4.17753 39.7654 3.86677 40.1192 3.48714 40.3034C3.10751 40.4871 2.88206 40.8477 2.98553 41.1036C3.08934 41.3601 2.66757 41.7929 2.04844 42.0656C1.07573 42.4942 1.27205 42.5701 3.49227 42.6245C6.13084 42.6894 6.22883 43.2405 3.72423 43.9283C2.61378 44.2329 2.47844 44.4066 2.83717 45.0666C3.17774 45.6936 3.31788 45.713 3.55429 45.1665C3.78248 44.6385 3.96236 44.717 4.36254 45.5188C4.83434 46.4635 4.81207 46.5927 4.09906 47.0638C3.433 47.5034 3.59266 47.6185 5.20541 47.8645C6.89661 48.122 7.01516 48.2168 6.36177 48.7888C5.96158 49.1395 4.9594 49.5833 4.1347 49.7748C1.57151 50.3704 1.42384 50.9943 3.8349 51.0419L6.06197 51.0854L3.14965 52.7586L0.237322 54.4318L1.95045 54.6935L3.66359 54.9552L1.64483 55.6633C0.234239 56.1584 -0.23002 56.5106 0.103013 56.833C0.365465 57.0868 0.888312 57.3145 1.2652 57.3391C1.94566 57.3836 1.94566 57.3867 1.27137 57.7892C0.778674 58.0828 1.20216 58.3183 2.81319 58.6465C4.82544 59.0558 4.90527 59.116 3.66359 59.2861C2.90981 59.3892 2.14678 59.6938 1.96759 59.9623C1.76578 60.2648 3.19796 60.4663 5.73648 60.4919C8.89858 60.5238 9.61638 60.6531 8.88864 61.0587C8.3425 61.3638 7.94642 61.9762 7.94642 62.5163C7.94642 63.2721 7.34751 63.6342 4.78158 64.4297C3.04104 64.9693 1.90728 65.4964 2.2619 65.6005C2.7779 65.7523 2.81113 65.8826 2.42842 66.2526C2.07689 66.5928 2.17693 66.719 2.80702 66.731C3.27813 66.7399 3.89041 66.9665 4.16793 67.2345C4.72847 67.7757 4.58286 67.9081 2.75905 68.5147C2.26156 68.68 1.77092 69.149 1.66847 69.5572C1.51224 70.1779 2.10429 70.2596 5.31402 70.0576C8.14583 69.8796 9.01165 69.9665 8.63167 70.3904C8.19825 70.8745 8.22532 70.9515 8.80299 70.8813C9.94804 70.7411 10.1988 70.9086 9.65955 71.4529C9.31007 71.8056 9.80311 71.8517 11.2014 71.5973C13.7608 71.131 13.6299 71.1257 19.4244 71.9338C22.9754 72.4289 28.1809 72.5095 39.4681 72.2452C48.8372 72.0254 57.6208 72.1008 62.2527 72.4399C77.5185 73.5594 79.037 73.6379 78.8187 73.2936C78.6964 73.1004 77.0004 72.8147 75.0498 72.6587C73.0996 72.5033 71.357 72.1652 71.1782 71.9087C70.7321 71.2686 100.235 71.3184 110.64 71.9752C116.609 72.352 161.691 73.0894 177.375 73.0669C180.875 73.0617 196.136 72.4002 196.836 72.2233C197.414 72.0767 197.713 72.1851 197.587 72.4959C197.472 72.7796 197.533 73.0115 197.721 73.0115C197.91 73.0115 198.159 72.7759 198.275 72.4881C198.553 71.8019 199.817 71.8098 199.817 72.4975C199.817 73.0894 207.911 73.1245 213.822 72.5587C216.528 72.2997 217.416 72.3756 217.542 72.8764C217.633 73.2386 217.931 73.5348 218.205 73.5348C218.478 73.5348 218.607 73.2993 218.49 73.0115C218.374 72.7236 218.558 72.4478 218.899 72.3986C219.239 72.3494 219.75 72.2568 220.032 72.1924C220.315 72.1285 221.394 72.0474 222.431 72.0123C223.579 71.9736 224.14 71.7784 223.866 71.5136C223.421 71.0828 225.851 70.6819 232.709 70.056C236.157 69.7414 237.717 68.8821 235.091 68.7449C234.252 68.701 233.412 68.6104 233.223 68.5434C233.035 68.4764 231.416 68.3624 229.626 68.2901L226.371 68.1577L228.598 67.7505C229.823 67.5265 232.341 67.2696 234.193 67.1801C236.046 67.09 237.635 66.8346 237.726 66.6122C237.816 66.3898 238.198 66.2076 238.575 66.2076C238.951 66.2076 239.177 66.003 239.076 65.7523C238.973 65.4995 238.241 65.4896 237.428 65.7298C235.788 66.2144 234.224 66.3364 234.47 65.9606C234.8 65.4561 241.899 63.5876 242.39 63.8755C242.677 64.0435 242.989 63.8179 243.105 63.3589C243.25 62.7806 243.834 62.5194 245.119 62.4587L246.928 62.3734L245.044 62.0646C243.561 61.8213 243.356 61.6889 244.082 61.4434C244.589 61.2712 245.746 61.3057 246.652 61.5193C247.558 61.7328 248.334 61.86 248.377 61.8019C248.42 61.7433 248.209 61.1602 247.909 60.5055C247.547 59.7173 247.248 59.4912 247.023 59.8356C246.797 60.1805 246.319 60.1716 245.606 59.8084C243.692 58.8344 243.994 58.6151 246.988 58.8061C249.077 58.9391 249.859 58.8255 249.692 58.4136C249.548 58.0567 249.762 57.8154 250.249 57.7866C250.953 57.7447 247.586 56.6996 244.873 56.1176C244.307 55.9961 245.001 55.858 246.415 55.8109C247.828 55.7632 249.215 55.4958 249.498 55.2168C249.924 54.7961 249.895 54.7066 249.327 54.6935C248.95 54.6846 248.41 54.4286 248.128 54.1246C247.752 53.7205 248.051 53.6609 249.24 53.9032C251.367 54.3355 251.816 53.8786 250.835 52.2834C250.401 51.5768 250.249 51.0299 250.487 51.0299C250.719 51.0299 250.814 50.7944 250.697 50.5065C250.581 50.2187 249.839 49.9795 249.05 49.9753C248.26 49.9706 247.382 49.7214 247.1 49.421C246.73 49.0285 247.09 48.9709 248.385 49.2169C250.215 49.5639 250.907 48.8668 249.413 48.1817C248.661 47.8373 248.658 47.8164 249.327 47.326C249.87 46.9282 249.761 46.8691 248.804 47.0428C247.425 47.2935 245.976 46.1651 246.946 45.5962C247.25 45.4183 247.775 45.2728 248.114 45.2728C248.452 45.2728 248.921 44.9195 249.156 44.4877C249.491 43.8712 249.492 43.7027 249.161 43.7027C248.927 43.7027 248.827 43.3531 248.937 42.9176C249.063 42.4131 248.924 42.1195 248.545 42.0959C248.057 42.0651 248.073 41.986 248.642 41.6301C249.278 41.2313 249.259 41.1601 248.362 40.62C247.832 40.3008 247.177 40.0391 246.906 40.0391C246.636 40.0391 246.415 39.8036 246.415 39.5157C246.415 39.2279 247.301 38.9693 248.385 38.9416L250.355 38.8908L249.07 38.0853C247.677 37.2124 247.424 36.1839 248.406 35.3816C248.747 35.1026 250.751 34.7075 252.86 34.5034C254.968 34.2998 256.693 33.9507 256.693 33.7278C256.693 33.5048 256.269 33.0861 255.751 32.7967C254.962 32.357 255.214 32.2644 257.293 32.2299C258.702 32.2063 259.777 31.9619 259.777 31.6651C259.777 31.3773 259.459 31.1418 259.072 31.1418C258.684 31.1418 258.457 30.9167 258.569 30.6414C258.68 30.3661 258.997 30.2735 259.274 30.4357C259.55 30.5975 259.777 30.509 259.777 30.239C259.777 29.9684 259.044 29.4848 258.149 29.164C256.768 28.6688 257.298 28.606 261.661 28.7474L266.801 28.9143L262.347 27.9576C254.553 26.2833 254.692 26.3268 255.665 25.8814C256.458 25.5187 256.466 25.4852 255.771 25.437C254.727 25.3643 254.461 24.4615 255.403 24.1851C255.835 24.0579 255.546 23.9255 254.752 23.8858C253.967 23.8465 253.273 23.5822 253.21 23.2985C253.147 23.0149 251.323 22.5899 249.156 22.3549C245.296 21.9362 245.245 21.9142 246.661 21.2846C247.584 20.8748 249.987 20.6843 253.299 20.7581C258.092 20.8654 258.529 20.7958 258.977 19.8584C259.404 18.965 259.978 18.8216 263.731 18.6688C267.135 18.5306 268 18.3448 268 17.7529C268 17.3447 267.866 17.0108 267.702 17.0108C267.221 17.0108 261.374 15.4338 260.719 15.1277C259.481 14.5478 260.188 13.8684 262.09 13.8103C264.039 13.7507 264.045 13.7454 262.689 13.3173C261.936 13.0792 260.085 12.8531 258.578 12.8154C255.893 12.7474 252.252 12.0361 253.267 11.777C254.234 11.5305 250.7 10.8078 248.338 10.769C246.28 10.735 245.878 10.5639 245.185 9.42188L244.391 8.11345L245.831 8.06635L247.271 8.01924L246.1 7.50477C245.455 7.22215 244.646 7.10387 244.301 7.24152C243.956 7.37916 243.674 7.29595 243.674 7.05624C243.674 6.81654 243.404 6.51246 243.074 6.38057C242.744 6.2492 243.168 6.08434 244.016 6.01526L245.558 5.88912L244.016 5.49241C238.977 4.19654 203.139 3.48109 191.594 4.44619C188.296 4.72201 184.031 4.95334 182.115 4.96014C179.656 4.96956 178.58 5.16583 178.458 5.62744C178.327 6.11993 178.213 6.13092 177.998 5.67036C177.757 5.15431 170.642 4.56029 170.009 5.00306C169.39 5.43588 79.1343 5.37884 73.0455 4.94182C68.9939 4.65083 64.3685 4.32111 62.7667 4.2091C61.1649 4.0971 56.3973 3.88252 52.1723 3.73336C47.9471 3.58368 42.9361 3.31362 41.037 3.13358C35.5453 2.6123 27.7766 2.56048 27.581 3.04408ZM201.466 2.71383C201.713 2.86509 202.009 2.84625 202.123 2.67249C202.237 2.49873 202.034 2.37521 201.673 2.39772C201.274 2.42284 201.193 2.54688 201.466 2.71383ZM192.215 3.2372C192.462 3.38846 192.758 3.36962 192.872 3.19586C192.986 3.0221 192.784 2.89858 192.422 2.92109C192.023 2.94621 191.942 3.07025 192.215 3.2372ZM194.956 3.2372C195.203 3.38846 195.499 3.36962 195.613 3.19586C195.727 3.0221 195.525 2.89858 195.163 2.92109C194.764 2.94621 194.683 3.07025 194.956 3.2372ZM84.9518 4.29598C85.3759 4.42055 86.0694 4.42055 86.4936 4.29598C86.9177 4.1709 86.5707 4.06884 85.7227 4.06884C84.8747 4.06884 84.5276 4.1709 84.9518 4.29598ZM154.34 6.3633C154.108 6.5067 153.646 6.5156 153.312 6.38266C152.979 6.24973 153.169 6.13249 153.734 6.12202C154.299 6.11156 154.572 6.21989 154.34 6.3633ZM242.21 6.33608C242.096 6.50984 241.801 6.52868 241.554 6.37743C241.28 6.21047 241.361 6.08643 241.761 6.06131C242.122 6.03881 242.324 6.16232 242.21 6.33608ZM191.153 7.26559C191.27 7.44406 190.145 7.61677 188.654 7.64974C187.161 7.68219 182.009 7.82874 177.204 7.97476C172.399 8.1213 155.389 8.42224 139.406 8.64467C123.422 8.86711 109.504 9.20887 108.476 9.40513C106.588 9.76521 104.329 9.34965 104.743 8.71794C104.981 8.3542 108.225 8.25686 126.41 8.07001C133.35 7.99831 137.802 7.75756 137.802 7.45348C137.802 7.17923 138.019 7.08189 138.284 7.23733C139.017 7.66649 150.427 7.59375 158.702 7.10701C166.793 6.63074 190.815 6.7485 191.153 7.26559ZM200.103 6.80555C199.856 7.18185 193.983 7.22739 193.74 6.85474C193.627 6.6836 195.052 6.54334 196.905 6.54334C198.758 6.54334 200.197 6.6611 200.103 6.80555ZM201.438 6.85945C201.324 7.03321 201.028 7.05205 200.781 6.9008C200.508 6.73384 200.589 6.60981 200.988 6.58469C201.349 6.56218 201.551 6.68569 201.438 6.85945ZM175.409 7.43673C175.836 7.56182 176.452 7.55711 176.78 7.42626C177.107 7.29542 176.759 7.19284 176.005 7.1986C175.251 7.20436 174.983 7.31165 175.409 7.43673ZM222.206 7.45924C222.293 7.67487 220.233 7.85177 217.629 7.85177C215.025 7.85177 212.779 7.67487 212.638 7.45924C212.496 7.24361 214.555 7.06671 217.214 7.06671C219.873 7.06671 222.119 7.24361 222.206 7.45924ZM223.972 7.59008C223.037 8.20452 222.773 8.20452 222.773 7.59008C222.773 7.30223 223.197 7.08346 223.716 7.10335C224.55 7.13632 224.58 7.19127 223.972 7.59008ZM161.379 7.94754C161.626 8.0988 161.922 8.07995 162.036 7.90619C162.149 7.73244 161.947 7.60892 161.586 7.63143C161.187 7.65655 161.106 7.78059 161.379 7.94754ZM163.419 7.96952C164.035 8.08571 164.96 8.08362 165.475 7.96429C165.99 7.84444 165.486 7.74918 164.355 7.75232C163.225 7.75494 162.804 7.85281 163.419 7.96952ZM94.2558 9.19107C94.0091 9.42397 93.6675 9.48259 93.4972 9.32191C93.3269 9.16124 93.3893 8.83884 93.6356 8.60594C93.8823 8.37304 94.2239 8.31443 94.3942 8.4751C94.5645 8.63578 94.5021 8.95817 94.2558 9.19107ZM100.456 8.75039C100.456 8.97597 99.338 9.13246 97.9716 9.09844C96.1279 9.05238 95.7524 8.93567 96.5154 8.64572C97.8307 8.14538 100.456 8.21551 100.456 8.75039ZM103.882 8.38822C103.882 8.94718 102.032 9.71392 101.51 9.37111C101.083 9.09058 101.149 8.932 101.826 8.61693C102.872 8.12915 103.882 8.01715 103.882 8.38822ZM92.7345 9.19002C92.6245 9.46113 91.3489 9.6799 89.8996 9.67571C88.4503 9.671 87.4447 9.49463 87.665 9.28319C88.2749 8.69753 92.9685 8.61118 92.7345 9.19002ZM202.308 8.98015C202.076 9.12356 201.613 9.13245 201.28 8.99952C200.947 8.86658 201.136 8.74935 201.702 8.73888C202.267 8.72841 202.54 8.83675 202.308 8.98015ZM226.285 9.52969C225.861 9.65426 225.167 9.65426 224.743 9.52969C224.32 9.40461 224.666 9.30255 225.514 9.30255C226.362 9.30255 226.709 9.40461 226.285 9.52969ZM13.7711 16.4874C13.7711 16.7752 13.7032 17.0108 13.62 17.0108C13.5367 17.0108 13.3736 16.7752 13.2571 16.4874C13.1406 16.1995 13.2088 15.964 13.4082 15.964C13.6076 15.964 13.7711 16.1995 13.7711 16.4874ZM4.45608 35.6862C4.70312 35.8375 4.99881 35.8186 5.11256 35.6449C5.22631 35.4711 5.02416 35.3476 4.66303 35.3701C4.26387 35.3952 4.18267 35.5193 4.45608 35.6862ZM248.035 44.5422C247.921 44.7159 247.625 44.7348 247.378 44.5835C247.105 44.4166 247.186 44.2925 247.585 44.2674C247.946 44.2449 248.149 44.3684 248.035 44.5422ZM7.26117 45.7962C7.26117 46.084 7.09773 46.3195 6.89832 46.3195C6.69891 46.3195 6.63073 46.084 6.74723 45.7962C6.86372 45.5083 7.02681 45.2728 7.11007 45.2728C7.19333 45.2728 7.26117 45.5083 7.26117 45.7962ZM109.207 53.6818C109.575 54.593 109.156 54.7861 108.685 53.921C108.415 53.4238 108.389 53.1234 108.617 53.1234C108.817 53.1234 109.083 53.3746 109.207 53.6818ZM130.933 54.9703C131.137 54.7783 131.215 54.402 131.106 54.134C130.993 53.854 131.78 53.6467 132.956 53.6467C134.139 53.6467 135.057 53.8896 135.129 54.2214C135.198 54.5375 135.979 54.9211 136.864 55.0734C139.069 55.4534 138.567 56.2594 136.248 56.06C134.854 55.9401 134.376 56.0794 134.376 56.6048C134.376 57.4935 133.122 57.5369 132.889 56.6561C132.789 56.2767 132.705 56.3997 132.69 56.9487C132.675 57.4694 132.536 57.7761 132.381 57.6296C132.226 57.4836 131.842 57.8227 131.528 58.3838C130.857 59.5812 129.236 59.7702 129.236 58.6517C129.236 58.0792 128.939 57.9734 127.991 58.2079C127.014 58.4502 126.782 58.3586 126.914 57.7829C127.007 57.3789 127.302 57.0727 127.569 57.102C127.837 57.1313 128.266 56.8105 128.524 56.3897C128.93 55.7245 128.839 55.6711 127.829 55.9831C127.19 56.1804 126.41 56.4515 126.096 56.5855C125.782 56.72 125.435 56.6064 125.324 56.3342C125.214 56.0616 125.904 55.6748 126.856 55.4749C127.809 55.2744 128.773 54.8034 128.998 54.4276C129.334 53.8676 129.512 53.8864 129.986 54.5317C130.304 54.9651 130.73 55.1624 130.933 54.9703ZM179.26 54.3726C179.26 54.8023 177.164 55.0185 176.997 54.6061C176.9 54.3664 177.37 54.1701 178.04 54.1701C178.711 54.1701 179.26 54.2612 179.26 54.3726ZM116.695 57.5239C116.401 58.6957 115.969 58.11 116.073 56.6781C116.201 54.8976 116.21 54.8829 116.57 55.826C116.753 56.3049 116.809 57.0691 116.695 57.5239ZM140.978 55.5602C140.746 55.7036 140.283 55.7125 139.95 55.5795C139.616 55.4466 139.806 55.3294 140.372 55.3189C140.937 55.3084 141.21 55.4168 140.978 55.5602ZM152.535 55.7669C150.338 56.3641 142.526 56.3447 141.913 55.7402C141.573 55.4037 143.534 55.2524 147.738 55.2901C152.073 55.3299 153.589 55.4801 152.535 55.7669ZM159.644 55.5916C159.126 55.7114 158.278 55.7114 157.76 55.5916C157.242 55.4717 157.666 55.3739 158.702 55.3739C159.739 55.3739 160.163 55.4717 159.644 55.5916ZM162.899 55.5633C162.664 55.7088 162.278 55.7088 162.043 55.5633C161.807 55.4183 162 55.2995 162.471 55.2995C162.942 55.2995 163.135 55.4183 162.899 55.5633ZM166.326 55.5633C166.09 55.7088 165.705 55.7088 165.469 55.5633C165.234 55.4183 165.426 55.2995 165.897 55.2995C166.368 55.2995 166.561 55.4183 166.326 55.5633ZM107.993 55.9961C107.993 56.7582 106.716 58.3545 106.119 58.3398C105.45 58.3231 105.454 58.2838 106.208 57.3239L106.991 56.3259L105.522 56.1244C104.232 55.9475 104.293 55.9119 106.023 55.8318C107.107 55.7816 107.993 55.8554 107.993 55.9961ZM109.614 56.0563C109.5 56.2301 109.204 56.2489 108.957 56.0977C108.684 55.9307 108.765 55.8067 109.164 55.7816C109.525 55.7591 109.727 55.8826 109.614 56.0563ZM130.607 56.2636C130.607 56.5514 130.77 56.787 130.97 56.787C131.169 56.787 131.237 56.5514 131.121 56.2636C131.004 55.9757 130.841 55.7402 130.758 55.7402C130.675 55.7402 130.607 55.9757 130.607 56.2636ZM237.756 56.0563C237.642 56.2301 237.347 56.2489 237.1 56.0977C236.826 55.9307 236.907 55.8067 237.306 55.7816C237.668 55.7591 237.87 55.8826 237.756 56.0563ZM240.333 56.0867C240.098 56.2322 239.712 56.2322 239.476 56.0867C239.241 55.9417 239.434 55.8229 239.905 55.8229C240.376 55.8229 240.569 55.9417 240.333 56.0867ZM93.1676 56.5797C93.0538 56.7535 92.7581 56.7723 92.5111 56.6211C92.2377 56.4541 92.3189 56.3301 92.7181 56.3049C93.0792 56.2824 93.2813 56.4059 93.1676 56.5797ZM102.776 56.8854C102.701 57.2271 102.435 57.6107 102.185 57.7379C101.93 57.8682 101.829 57.7275 101.955 57.4155C102.081 57.1046 101.839 56.7618 101.403 56.6341C100.85 56.4719 100.956 56.3855 101.769 56.3348C102.514 56.2882 102.864 56.4797 102.776 56.8854ZM113.647 57.3103C113.522 57.9106 113.585 58.3571 113.795 58.3571C113.996 58.3571 114.161 58.5533 114.161 58.793C114.161 59.4729 112.768 59.1479 112.464 58.3969C112.253 57.8771 112.026 57.8614 111.456 58.3272C111.051 58.658 110.553 58.7716 110.35 58.579C109.938 58.1906 112.251 56.3735 113.241 56.306C113.713 56.2741 113.811 56.5185 113.647 57.3103ZM178.403 56.787C178.52 57.0748 178.451 57.3103 178.252 57.3103C178.053 57.3103 177.889 57.0748 177.889 56.787C177.889 56.4991 177.957 56.2636 178.04 56.2636C178.124 56.2636 178.287 56.4991 178.403 56.787ZM181.658 56.4944C181.658 56.6216 181.504 56.8707 181.315 57.0486C181.127 57.2266 180.973 57.1224 180.973 56.8178C180.973 56.5132 181.127 56.2636 181.315 56.2636C181.504 56.2636 181.658 56.3672 181.658 56.4944ZM231.774 56.6069C231.542 56.7503 231.079 56.7592 230.746 56.6263C230.412 56.4933 230.602 56.3761 231.168 56.3657C231.733 56.3552 232.006 56.4635 231.774 56.6069ZM233.644 56.5797C233.531 56.7535 233.235 56.7723 232.988 56.6211C232.715 56.4541 232.796 56.3301 233.195 56.3049C233.556 56.2824 233.758 56.4059 233.644 56.5797ZM98.2285 57.3103C98.345 57.5982 98.2768 57.8337 98.0774 57.8337C97.878 57.8337 97.7146 57.5982 97.7146 57.3103C97.7146 57.0225 97.7824 56.787 97.8657 56.787C97.949 56.787 98.112 57.0225 98.2285 57.3103ZM138.737 57.1031C138.623 57.2768 138.327 57.2957 138.08 57.1444C137.807 56.9775 137.888 56.8534 138.287 56.8283C138.649 56.8058 138.851 56.9293 138.737 57.1031ZM140.45 57.1031C140.336 57.2768 140.041 57.2957 139.794 57.1444C139.52 56.9775 139.601 56.8534 140.001 56.8283C140.362 56.8058 140.564 56.9293 140.45 57.1031ZM143.627 57.572C143.627 58.0038 143.781 58.3571 143.969 58.3571C144.158 58.3571 144.311 58.0629 144.311 57.7029C144.31 57.2172 145.063 57.0926 147.228 57.2182C148.992 57.3208 150.065 57.5877 149.941 57.8939C149.828 58.1718 149.464 58.2676 149.132 58.1064C148.799 57.9452 148.08 58.1702 147.533 58.6057C146.653 59.307 146.526 59.308 146.428 58.6156C146.304 57.7416 144.812 57.5432 144.483 58.3571C144.254 58.9249 142.841 59.0757 142.508 58.5675C142.175 58.0582 142.633 56.787 143.149 56.787C143.412 56.787 143.627 57.1402 143.627 57.572ZM175.148 57.572C174.787 58.2367 174.862 58.3571 175.641 58.3571C176.166 58.3571 176.468 58.5811 176.347 58.8804C176.231 59.1683 175.811 59.4038 175.413 59.4038C175.016 59.4038 174.801 59.5723 174.936 59.778C175.071 59.9837 176.429 60.0795 177.954 59.9916C180.432 59.8482 180.704 59.9246 180.508 60.7081C180.363 61.2848 180.434 61.5025 180.716 61.345C180.951 61.2126 181.106 60.8399 181.059 60.516C181.011 60.192 181.368 59.9272 181.85 59.9272C182.347 59.9272 182.635 60.1538 182.515 60.4506C182.398 60.7384 182.466 60.9739 182.666 60.9739C182.865 60.9739 183.029 60.7384 183.029 60.4506C183.029 59.5797 184.31 59.8644 184.542 60.7871C184.661 61.2602 184.706 61.726 184.643 61.8223C184.58 61.9181 183.009 62.061 181.152 62.1395C178.687 62.2436 177.737 62.106 177.633 61.6281C177.554 61.2686 177.185 60.9739 176.813 60.9739C176.44 60.9739 176.231 61.2094 176.347 61.4973C176.471 61.8024 176.123 62.0207 175.511 62.0207C174.935 62.0207 174.463 61.7852 174.463 61.4973C174.463 61.2094 173.892 60.9739 173.195 60.9739C171.809 60.9739 171.986 60.1371 173.435 59.8408C174.079 59.7089 174.318 59.3086 174.4 58.2262C174.466 57.3438 174.715 56.787 175.042 56.787C175.477 56.787 175.496 56.9314 175.148 57.572ZM209.24 57.9939C209.616 58.1441 209.192 58.243 208.297 58.2142C207.402 58.1854 206.67 57.9541 206.67 57.7008C206.67 57.4469 206.997 57.3988 207.398 57.5929C207.955 57.8625 208.06 57.7787 207.846 57.2355C207.626 56.677 207.672 56.653 208.06 57.123C208.332 57.4522 208.863 57.8436 209.24 57.9939ZM166.411 57.8337C166.295 58.1216 166.055 58.3571 165.877 58.3571C165.7 58.3571 165.555 58.1216 165.555 57.8337C165.555 57.5458 165.795 57.3103 166.089 57.3103C166.382 57.3103 166.528 57.5458 166.411 57.8337ZM129.921 58.3571C130.586 59.0129 130.949 59.0129 130.949 58.3571C130.949 58.0692 130.602 57.8374 130.178 57.8416C129.555 57.8484 129.506 57.9468 129.921 58.3571ZM162.128 58.5842C162.128 59.0092 162.537 59.4143 163.071 59.5184C163.826 59.666 163.733 59.7519 162.6 59.9534C161.311 60.1821 161.186 60.0994 161.186 59.0191C161.186 58.3623 161.396 57.8337 161.657 57.8337C161.916 57.8337 162.128 58.1713 162.128 58.5842ZM172.75 58.2791C172.75 58.5418 172.13 58.77 171.372 58.7862C170.615 58.8019 170.064 58.6434 170.149 58.434C170.379 57.8656 172.75 57.7243 172.75 58.2791ZM66.0216 58.8804C66.1381 59.1683 65.9928 59.4038 65.6992 59.4038C65.4056 59.4038 65.1651 59.1683 65.1651 58.8804C65.1651 58.5926 65.31 58.3571 65.4875 58.3571C65.665 58.3571 65.9051 58.5926 66.0216 58.8804ZM134.033 58.9113C134.033 59.2159 133.862 59.3039 133.652 59.106C133.443 58.9082 133.137 59.0709 132.972 59.4677C132.735 60.0381 132.672 59.9973 132.668 59.273C132.665 58.7035 132.922 58.3571 133.348 58.3571C133.725 58.3571 134.033 58.6067 134.033 58.9113ZM138.83 58.7496C138.83 58.9652 138.459 59.1421 138.006 59.1421C137.553 59.1421 137.254 58.9652 137.341 58.7496C137.428 58.534 137.799 58.3571 138.165 58.3571C138.531 58.3571 138.83 58.534 138.83 58.7496ZM204.1 58.8804C203.984 59.1683 203.551 59.3871 203.138 59.3672C202.414 59.3316 202.412 59.3143 203.072 58.8804C204.015 58.2613 204.351 58.2613 204.1 58.8804ZM229.283 58.8804C229.283 59.1683 229.63 59.4075 230.054 59.4117C230.478 59.4164 231.056 59.6482 231.339 59.9272C231.718 60.3014 231.448 60.4636 230.311 60.5448C229.463 60.6055 228.23 60.7484 227.57 60.8619C226.911 60.976 221.052 61.1383 214.55 61.2225C208.049 61.3068 203.655 61.2 204.785 60.9849C205.916 60.7703 207.612 60.4479 208.554 60.2689C212.174 59.5818 216.565 59.4028 216.78 59.9329C216.899 60.2271 217.154 60.3181 217.347 60.1355C217.541 59.9534 218.059 60.0983 218.5 60.4584C218.94 60.8185 219.581 60.942 219.924 60.7327C220.266 60.5233 221.654 60.3108 223.008 60.2606C224.362 60.2103 225.571 60.0151 225.694 59.8267C225.817 59.6388 226.444 59.6153 227.087 59.7744C228.016 60.0046 228.255 59.8895 228.255 59.2107C228.255 58.7412 228.487 58.3571 228.769 58.3571C229.052 58.3571 229.283 58.5926 229.283 58.8804ZM239.362 59.0113C239.522 59.5347 239.602 59.5347 239.762 59.0113C239.977 58.3079 242.837 58.0839 243.107 58.7496C243.194 58.9652 242.586 59.0594 241.757 58.9584C240.814 58.8438 240.247 58.9914 240.247 59.351C240.247 60.2239 238.636 60.0408 238.41 59.1421C238.17 58.1875 239.073 58.0635 239.362 59.0113ZM159.901 59.4038C159.785 59.6917 159.275 59.9104 158.768 59.8905C157.944 59.8576 157.919 59.8052 158.531 59.4038C159.483 58.7789 160.154 58.7789 159.901 59.4038ZM192.108 59.4038C191.992 59.6917 192.214 59.9272 192.602 59.9272C192.99 59.9272 193.307 59.6917 193.307 59.4038C193.307 58.7857 193.971 58.9255 194.535 59.6624C195.053 60.338 193.294 61.5308 192.341 61.1503C191.973 61.0032 191.568 61.1388 191.441 61.4518C191.315 61.7647 190.98 62.0207 190.697 62.0207C190.415 62.0207 190.286 61.7668 190.412 61.457C190.569 61.0666 190.155 61.0043 189.061 61.2545C188.104 61.4737 187.483 61.4157 187.483 61.1063C187.483 60.8263 188.367 60.4574 189.447 60.2873C190.528 60.1172 191.466 59.7309 191.532 59.4289C191.597 59.1275 191.802 58.8804 191.986 58.8804C192.17 58.8804 192.225 59.116 192.108 59.4038ZM201.904 59.363C201.639 59.62 200.968 59.7424 200.413 59.6351C199.636 59.4849 199.364 59.6765 199.228 60.4689C199.131 61.0346 198.921 61.4973 198.76 61.4973C198.39 61.4973 198.789 59.7932 199.278 59.2808C199.48 59.0694 200.263 58.8967 201.016 58.8967C201.952 58.8967 202.234 59.0448 201.904 59.363ZM81.2685 59.8659C81.2685 60.4893 79.9439 60.987 79.725 60.4464C79.6294 60.2098 79.7449 59.8974 79.9816 59.7513C80.6833 59.319 81.2685 59.3714 81.2685 59.8659ZM85.7227 59.9272C85.7227 60.215 85.5777 60.4506 85.4002 60.4506C85.2228 60.4506 84.9826 60.215 84.8661 59.9272C84.7496 59.6393 84.8949 59.4038 85.1885 59.4038C85.4821 59.4038 85.7227 59.6393 85.7227 59.9272ZM91.8899 59.8701C91.8899 60.6615 89.3881 60.83 88.4729 60.1004C87.6712 59.4614 87.7657 59.4101 89.7485 59.407C90.9265 59.4054 91.8899 59.6137 91.8899 59.8701ZM92.9435 60.0711C92.901 60.6971 92.4313 60.5756 92.284 59.901C92.2086 59.5556 92.3319 59.3672 92.5581 59.4823C92.7842 59.5975 92.9576 59.8623 92.9435 60.0711ZM95.9775 61.7197C95.9905 61.9861 95.7157 61.7506 95.3662 61.1964C94.9355 60.5134 94.8526 60.0685 95.1093 59.8157C95.4522 59.4766 95.9165 60.4945 95.9775 61.7197ZM98.8857 59.7215C99.5829 60.1303 99.5884 60.9739 98.8936 60.9739C98.5999 60.9739 98.4488 61.1953 98.5585 61.4654C98.6678 61.736 98.4464 61.9218 98.0665 61.8778C97.3559 61.7961 97.2452 60.5233 97.8859 59.8042C98.3056 59.3332 98.2333 59.3389 98.8857 59.7215ZM233.395 59.9272C233.395 60.215 233.125 60.4469 232.795 60.4427C232.283 60.4359 232.27 60.3605 232.709 59.9272C233.356 59.2887 233.395 59.2887 233.395 59.9272ZM102.353 60.7421C101.477 61.2916 101.43 61.4136 102.011 61.6386C102.554 61.8495 102.518 61.9108 101.823 61.96C101.327 61.995 100.797 61.6145 100.571 61.0613C100.211 60.1821 100.312 60.102 101.773 60.1041C103.353 60.1062 103.358 60.1119 102.353 60.7421ZM107.063 61.3455C107.201 62.4488 107.12 62.5901 106.495 62.3336C106.094 62.1693 105.15 62.0243 104.396 62.0118C103.287 61.9935 103.141 61.8856 103.632 61.4492C103.966 61.1524 104.153 60.6971 104.048 60.437C103.943 60.1774 104.542 59.9858 105.379 60.0114C106.714 60.0523 106.922 60.2171 107.063 61.3455ZM117.131 61.2686C117.487 62.0118 117.681 62.0861 117.999 61.5999C118.57 60.7285 119.3 60.8174 119.3 61.759C119.3 62.3708 118.865 62.5351 117.33 62.5027C116.246 62.4802 115.553 62.3425 115.788 62.1976C116.795 61.5763 116.078 60.9739 114.332 60.9739C112.294 60.9739 111.745 61.8213 113.561 62.1656C114.254 62.2965 113.937 62.408 112.725 62.4603C111.63 62.5074 110.674 62.2944 110.545 61.9751C110.379 61.5653 110.21 61.5653 109.942 61.9751C109.737 62.2881 109.338 62.544 109.056 62.544C108.676 62.544 108.642 62.3907 108.926 61.9568C109.137 61.6339 109.225 61.0299 109.121 60.6144C108.96 59.9759 109.529 59.8942 112.802 60.0852C116.05 60.2747 116.746 60.4647 117.131 61.2686ZM124.78 61.1048C124.783 61.6894 122.458 61.58 122.216 60.9839C122.091 60.6746 122.558 60.5186 123.394 60.5913C124.155 60.6578 124.779 60.8891 124.78 61.1048ZM137.117 60.943C137.117 61.2142 136.963 61.5805 136.775 61.7579C136.177 62.3221 126.922 62.0631 126.153 61.4607C125.761 61.1545 130.005 60.6154 133.433 60.5359C135.546 60.4872 137.117 60.6604 137.117 60.943ZM152.142 61.2466C152.503 61.7982 151.855 61.9851 148.659 62.2504C145.383 62.5231 141.913 61.8563 141.913 60.954C141.913 60.494 151.836 60.7782 152.142 61.2466ZM164.355 61.4785C162.145 61.7799 160.483 61.558 161.034 61.0346C161.22 60.8572 162.506 60.8216 163.892 60.9551L166.411 61.1979L164.355 61.4785ZM170.351 60.9739C170.351 61.2618 170.284 61.4973 170.2 61.4973C170.117 61.4973 169.954 61.2618 169.837 60.9739C169.721 60.6861 169.789 60.4506 169.989 60.4506C170.188 60.4506 170.351 60.6861 170.351 60.9739ZM178.061 60.9739C177.944 61.2618 178.089 61.4973 178.383 61.4973C178.677 61.4973 178.917 61.2618 178.917 60.9739C178.917 60.6861 178.772 60.4506 178.595 60.4506C178.417 60.4506 178.177 60.6861 178.061 60.9739ZM249.091 60.808C249.339 60.9593 249.634 60.9404 249.748 60.7667C249.862 60.5929 249.66 60.4694 249.298 60.4919C248.899 60.517 248.818 60.6411 249.091 60.808ZM168.829 61.4481C168.724 61.7087 168.329 61.7993 167.953 61.6486C167.01 61.2723 167.095 60.9739 168.145 60.9739C168.627 60.9739 168.935 61.1875 168.829 61.4481ZM186.541 61.3204C186.305 61.4659 185.92 61.4659 185.684 61.3204C185.449 61.1754 185.641 61.0566 186.112 61.0566C186.583 61.0566 186.776 61.1754 186.541 61.3204ZM202.301 61.3204C202.066 61.4659 201.681 61.4659 201.445 61.3204C201.209 61.1754 201.402 61.0566 201.873 61.0566C202.344 61.0566 202.537 61.1754 202.301 61.3204ZM246.586 63.5908C246.702 63.8786 246.865 64.1142 246.949 64.1142C247.032 64.1142 247.1 63.8786 247.1 63.5908C247.1 63.3029 246.936 63.0674 246.737 63.0674C246.538 63.0674 246.469 63.3029 246.586 63.5908ZM255.601 63.4249C255.848 63.5761 256.144 63.5573 256.258 63.3835C256.372 63.2098 256.169 63.0863 255.808 63.1088C255.409 63.1339 255.328 63.2579 255.601 63.4249ZM115.53 70.0021C115.531 70.2177 112.409 70.3506 108.593 70.2973C103.79 70.2297 102.551 70.1088 104.567 69.9047C108.751 69.4808 115.53 69.541 115.53 70.0021ZM118.957 70.1942C118.957 70.3041 118.225 70.3669 117.33 70.3328C115.93 70.2795 115.846 70.2208 116.73 69.9141C117.691 69.5808 118.957 69.7404 118.957 70.1942ZM101.227 70.2177C100.991 70.3632 100.606 70.3632 100.37 70.2177C100.135 70.0727 100.327 69.9539 100.798 69.9539C101.269 69.9539 101.462 70.0727 101.227 70.2177ZM70.2178 71.3335C70.4552 71.5722 69.0494 71.781 67.0526 71.8035C65.0767 71.826 63.5222 71.691 63.5982 71.5031C63.8059 70.9902 69.7251 70.839 70.2178 71.3335ZM226.821 71.7988C227.068 71.9501 227.363 71.9312 227.477 71.7575C227.591 71.5837 227.389 71.4602 227.028 71.4827C226.629 71.5078 226.547 71.6319 226.821 71.7988ZM201.78 72.2808C201.666 72.4546 201.371 72.4734 201.124 72.3222C200.85 72.1552 200.932 72.0312 201.331 72.0061C201.692 71.9836 201.894 72.1071 201.78 72.2808ZM82.7058 73.4019C84.7212 73.494 88.1132 73.4945 90.2436 73.4024C92.3741 73.3103 90.725 73.2349 86.5792 73.2344C82.4334 73.2339 80.6905 73.3093 82.7058 73.4019ZM113.413 73.6489C113.596 73.9279 114.032 74.064 114.381 73.9504C114.852 73.7981 114.766 73.6662 114.049 73.4432C113.424 73.248 113.199 73.3213 113.413 73.6489ZM219.626 73.3689C219.873 73.5202 220.168 73.5013 220.282 73.3276C220.396 73.1538 220.194 73.0303 219.833 73.0528C219.433 73.0779 219.352 73.202 219.626 73.3689ZM116.135 73.9049C116.561 74.0299 117.178 74.0252 117.505 73.8944C117.833 73.7635 117.484 73.661 116.73 73.6667C115.977 73.6725 115.709 73.7798 116.135 73.9049ZM120.932 73.9049C121.358 74.0299 121.975 74.0252 122.302 73.8944C122.63 73.7635 122.281 73.661 121.527 73.6667C120.773 73.6725 120.505 73.7798 120.932 73.9049ZM131.555 73.9143C132.171 74.0305 133.096 74.0284 133.611 73.909C134.126 73.7892 133.622 73.6939 132.491 73.6971C131.361 73.6997 130.939 73.7976 131.555 73.9143ZM136.522 73.9106C137.043 74.0305 137.814 74.0273 138.235 73.9033C138.656 73.7792 138.23 73.6808 137.288 73.6845C136.346 73.6887 136.001 73.7902 136.522 73.9106ZM181.401 73.8954C181.731 74.0273 182.271 74.0273 182.6 73.8954C182.93 73.7641 182.66 73.6562 182.001 73.6562C181.341 73.6562 181.072 73.7641 181.401 73.8954ZM187.054 73.8813C187.29 74.0268 187.676 74.0268 187.911 73.8813C188.147 73.7363 187.954 73.6175 187.483 73.6175C187.012 73.6175 186.819 73.7363 187.054 73.8813Z" fill="#7D95B1"/>
</svg>
