<svg width="254" height="107" viewBox="0 0 254 107" fill="none" xmlns="http://www.w3.org/2000/svg">
<path fill-rule="evenodd" clip-rule="evenodd" d="M187.672 7.34135C185.246 7.58684 183.124 7.87576 182.956 7.98403C182.789 8.09167 183.816 8.35793 185.238 8.57509C187.817 8.96913 187.813 8.97039 183.869 9.16427C181.693 9.27128 178.476 9.5816 176.719 9.85352C174.508 10.196 175.633 10.2583 180.37 10.0556C191.195 9.59293 202.311 9.18378 203.741 9.19448C204.539 9.20078 204.978 8.9578 204.864 8.57509C204.74 8.16154 207.402 7.94563 212.623 7.94563C218.264 7.94563 220.51 8.14391 220.366 8.62923C220.237 9.05978 220.427 9.25869 220.88 9.16553C221.275 9.0837 221.804 9.18504 222.055 9.39087C222.306 9.59608 224.566 10.0669 227.076 10.437C229.586 10.8072 232.153 11.3598 232.781 11.6651C233.409 11.9698 233.922 11.9849 233.922 11.6985C233.922 10.9834 233.116 10.5673 228.445 8.86842C227.859 8.65566 226.764 8.18861 226.011 7.83107C224.388 7.06061 194.261 6.67601 187.672 7.34135ZM95.0213 8.00417C93.5913 8.35478 93.6323 8.38311 95.706 8.47627C97.89 8.57383 98.55 8.30757 97.2273 7.86192C96.8506 7.73476 95.8581 7.79897 95.0213 8.00417ZM91.6743 8.31387C91.3396 8.4215 89.8679 8.69154 88.4034 8.91374C86.9392 9.13594 85.741 9.52621 85.741 9.78177C85.741 10.0367 86.1859 10.133 86.7299 9.99515C87.4882 9.80317 87.6123 9.89948 87.2624 10.4093C86.9155 10.9142 87.1346 11.0583 88.1752 11.0086C89.4239 10.9494 89.4641 10.9016 88.6316 10.4635L87.7188 9.98319L88.8346 9.90829C89.448 9.86737 89.9957 10.0864 90.0517 10.3955C90.1092 10.7146 91.2681 10.7537 92.7393 10.4855C95.5289 9.97816 95.4805 9.73582 92.5872 9.7226C91.5831 9.71756 91.1038 9.5753 91.5222 9.40598C92.2409 9.11517 93.214 7.84114 92.5719 8.03124C92.4131 8.07845 92.009 8.2056 91.6743 8.31387ZM196.585 8.4108C195.546 8.53355 193.766 8.53418 192.63 8.41269C191.493 8.29184 192.343 8.19112 194.519 8.19049C196.694 8.18923 197.624 8.28869 196.585 8.4108ZM200.832 8.36233C200.623 8.53732 200.281 8.53732 200.072 8.36233C199.863 8.18797 200.034 8.04509 200.452 8.04509C200.87 8.04509 201.042 8.18797 200.832 8.36233ZM223.957 8.99179C223.748 9.16678 223.406 9.16678 223.196 8.99179C222.987 8.81743 223.158 8.67455 223.577 8.67455C223.995 8.67455 224.166 8.81743 223.957 8.99179ZM226.093 8.98802C225.887 9.16049 225.476 9.17119 225.18 9.01131C224.884 8.85143 225.052 8.71043 225.554 8.69784C226.056 8.68525 226.299 8.81555 226.093 8.98802ZM95.8581 9.63825C96.1508 9.79687 96.6303 9.79687 96.923 9.63825C97.2158 9.48026 96.9763 9.35059 96.3906 9.35059C95.8048 9.35059 95.5654 9.48026 95.8581 9.63825ZM98.7487 9.62125C98.958 9.79624 99.3003 9.79624 99.5094 9.62125C99.7187 9.44689 99.5474 9.30401 99.129 9.30401C98.7107 9.30401 98.5396 9.44689 98.7487 9.62125ZM40.4975 10.6611C40.4098 10.9545 38.8127 11.1364 36.9481 11.0652C33.5649 10.9375 27.6392 11.864 26.6418 12.6773C26.308 12.9492 26.1385 13.6869 26.1787 14.6922C26.2471 16.4031 26.2943 16.4641 28.0052 17.052C29.4055 17.5336 29.5184 18.552 28.1574 18.4243C27.2512 18.3393 27.1758 18.4765 27.2561 20.0627C27.3328 21.5785 27.2382 21.795 26.4954 21.8032C25.4314 21.8158 25.0565 22.3754 24.9726 24.0774C24.9181 25.1846 25.1156 25.4855 26.1136 25.8154C27.729 26.3498 27.6416 27.2203 25.9325 27.6188C24.5825 27.9335 22.9038 30.2008 23.2251 31.2759C23.3048 31.5435 22.9592 31.9495 22.4568 32.1779C21.6672 32.5367 21.6021 32.7142 21.9761 33.4879C22.214 33.9801 22.5898 34.3874 22.811 34.3924C23.1141 34.3999 23.1034 34.5453 22.7678 34.9847C22.4559 35.3926 22.8116 35.6249 23.9572 35.7615C25.572 35.9541 25.5917 35.9805 25.6191 38.0023C25.6346 39.1278 25.5443 40.0481 25.4189 40.0481C25.2936 40.0481 25.1907 40.6146 25.1907 41.307C25.1907 42.2399 24.9741 42.588 24.354 42.6515C23.6246 42.7264 23.6061 42.7724 24.2097 43.0122C25.0918 43.3622 26.6963 45.075 26.147 45.08C25.9149 45.0819 25.8072 45.4765 25.9009 45.982C26.1486 47.3171 25.5461 48.0372 23.5437 48.8001C21.7521 49.4824 20.9802 50.1194 21.945 50.1194C22.224 50.1194 22.4523 50.5443 22.4523 51.0636C22.4523 51.7982 22.0467 52.0078 20.6266 52.0078C18.658 52.0078 18.0458 53.2101 19.942 53.3523C20.6482 53.4052 20.8223 53.5418 20.3984 53.7111C20.0217 53.861 19.7138 54.2279 19.7138 54.5269C19.7138 54.8259 19.4378 55.2514 19.1007 55.473C18.7636 55.6939 18.5633 56.1276 18.6552 56.4354C18.7474 56.7439 18.3729 57.2644 17.823 57.5924C16.9592 58.1079 17.1336 58.1992 19.1053 58.2647C21.4485 58.3427 21.5355 59.0055 19.3112 59.8326C18.3251 60.199 18.2049 60.408 18.5235 61.2017C18.8259 61.9558 18.9504 61.9791 19.1603 61.3219C19.363 60.6868 19.5227 60.7812 19.8781 61.7456C20.2971 62.8817 20.2773 63.0372 19.6441 63.6037C19.0526 64.1325 19.1944 64.271 20.6266 64.5668C22.1285 64.8765 22.2338 64.9904 21.6535 65.6784C21.2981 66.1002 20.4082 66.634 19.6758 66.8643C17.3995 67.5807 17.2684 68.331 19.4095 68.3883L21.3873 68.4405L18.801 70.4529L16.2147 72.4653L17.736 72.78L19.2574 73.0947L17.4646 73.9464C16.2119 74.5419 15.7996 74.9655 16.0954 75.3532C16.3285 75.6585 16.7928 75.9323 17.1275 75.9619C17.7318 76.0154 17.7318 76.0192 17.133 76.5032C16.6954 76.8564 17.0715 77.1396 18.5022 77.5343C20.2892 78.0265 20.3601 78.0989 19.2574 78.3035C18.588 78.4275 17.9104 78.7939 17.7512 79.1168C17.572 79.4806 18.8439 79.7229 21.0982 79.7538C23.9064 79.7922 24.5438 79.9477 23.8976 80.4355C23.4125 80.8025 23.0608 81.5389 23.0608 82.1885C23.0608 83.0975 22.5289 83.5331 20.2502 84.4898C18.7045 85.1388 17.6977 85.7727 18.0126 85.8979C18.4708 86.0805 18.5004 86.2372 18.1605 86.6822C17.8483 87.0914 17.9372 87.2431 18.4967 87.2576C18.9151 87.2683 19.4588 87.5408 19.7053 87.8631C20.2031 88.514 20.0738 88.6732 18.4541 89.4028C18.0123 89.6017 17.5766 90.1657 17.4856 90.6566C17.3469 91.4032 17.8726 91.5014 20.7231 91.2584C23.2379 91.0444 24.0068 91.1489 23.6693 91.6588C23.2844 92.241 23.3085 92.3335 23.8215 92.2492C24.8384 92.0805 25.0611 92.2819 24.5822 92.9366C24.2718 93.3608 24.7097 93.4162 25.9514 93.1103C28.2243 92.5494 28.1081 92.5431 33.2539 93.515C36.4074 94.1105 41.0302 94.2074 51.0539 93.8896C59.3743 93.6252 67.1746 93.7158 71.2881 94.1237C84.8449 95.4701 86.1935 95.5645 85.9997 95.1504C85.891 94.9181 84.3849 94.5744 82.6527 94.3868C80.9207 94.1999 79.3732 93.7932 79.2144 93.4848C78.8182 92.715 105.019 92.7748 114.259 93.5648C119.559 94.018 159.595 94.9049 173.524 94.8778C176.631 94.8715 190.185 94.0759 190.806 93.8631C191.32 93.6869 191.585 93.8172 191.473 94.1911C191.371 94.5322 191.425 94.8111 191.592 94.8111C191.759 94.8111 191.981 94.5278 192.084 94.1816C192.331 93.3564 193.454 93.3658 193.454 94.193C193.454 94.9049 200.641 94.947 205.89 94.2666C208.294 93.955 209.082 94.0463 209.194 94.6487C209.275 95.0843 209.54 95.4405 209.783 95.4405C210.026 95.4405 210.14 95.1573 210.036 94.8111C209.933 94.4649 210.096 94.1332 210.399 94.074C210.702 94.0148 211.155 93.9034 211.406 93.826C211.657 93.7492 212.615 93.6516 213.536 93.6094C214.555 93.5629 215.053 93.3281 214.81 93.0096C214.415 92.4915 216.573 92.0094 222.664 91.2565C225.726 90.8782 227.111 89.8446 224.779 89.6797C224.034 89.6269 223.288 89.518 223.12 89.4374C222.953 89.3568 221.515 89.2196 219.925 89.1327L217.035 88.9735L219.013 88.4838C220.1 88.2143 222.336 87.9053 223.982 87.7976C225.627 87.6894 227.038 87.3822 227.118 87.1147C227.198 86.8472 227.538 86.6281 227.872 86.6281C228.207 86.6281 228.407 86.382 228.318 86.0805C228.227 85.7765 227.576 85.7645 226.854 86.0534C225.397 86.6363 224.009 86.783 224.227 86.331C224.52 85.7242 230.824 83.477 231.261 83.8232C231.516 84.0253 231.793 83.754 231.895 83.202C232.024 82.5064 232.543 82.1923 233.684 82.1193L235.291 82.0167L233.618 81.6453C232.301 81.3526 232.119 81.1934 232.763 80.8981C233.214 80.691 234.241 80.7326 235.045 80.9894C235.85 81.2462 236.539 81.3992 236.577 81.3293C236.615 81.2588 236.428 80.5576 236.162 79.7701C235.841 78.8222 235.575 78.5503 235.375 78.9644C235.174 79.3792 234.75 79.3685 234.117 78.9317C232.417 77.7603 232.685 77.4965 235.344 77.7263C237.2 77.8862 237.894 77.7496 237.746 77.2542C237.617 76.8249 237.808 76.5347 238.24 76.5001C238.865 76.4497 235.875 75.1927 233.465 74.4928C232.963 74.3467 233.58 74.1805 234.835 74.1239C236.09 74.0666 237.322 73.745 237.573 73.4095C237.952 72.9034 237.926 72.7957 237.421 72.78C237.086 72.7693 236.607 72.4615 236.356 72.0958C236.022 71.6098 236.288 71.5381 237.344 71.8295C239.232 72.3494 239.632 71.7999 238.76 69.8813C238.375 69.0316 238.24 68.3738 238.451 68.3738C238.657 68.3738 238.742 68.0905 238.638 67.7443C238.535 67.3981 237.876 67.1105 237.175 67.1054C236.474 67.0997 235.694 66.8001 235.443 66.4388C235.115 65.9667 235.435 65.8975 236.584 66.1933C238.21 66.6107 238.825 65.7722 237.497 64.9483C236.83 64.5341 236.827 64.5089 237.421 63.9191C237.903 63.4407 237.807 63.3696 236.957 63.5786C235.732 63.8801 234.445 62.5229 235.307 61.8387C235.577 61.6247 236.043 61.4497 236.344 61.4497C236.644 61.4497 237.06 61.0248 237.269 60.5055C237.566 59.764 237.567 59.5613 237.273 59.5613C237.066 59.5613 236.977 59.1409 237.075 58.6171C237.187 58.0103 237.063 57.6572 236.727 57.6289C236.293 57.5918 236.308 57.4967 236.812 57.0687C237.378 56.589 237.36 56.5034 236.565 55.8538C236.094 55.4699 235.511 55.1551 235.271 55.1551C235.031 55.1551 234.835 54.8719 234.835 54.5257C234.835 54.1795 235.622 53.8685 236.584 53.8351L238.334 53.7741L237.193 52.8053C235.956 51.7554 235.731 50.5185 236.603 49.5536C236.906 49.2181 238.686 48.7428 240.559 48.4973C242.431 48.2525 243.963 47.8326 243.963 47.5645C243.963 47.2963 243.586 46.7927 243.126 46.4447C242.426 45.9159 242.649 45.8045 244.495 45.7629C245.747 45.7346 246.701 45.4407 246.701 45.0838C246.701 44.7376 246.419 44.4543 246.075 44.4543C245.73 44.4543 245.529 44.1836 245.628 43.8525C245.727 43.5214 246.009 43.41 246.255 43.6052C246.5 43.7997 246.701 43.6933 246.701 43.3685C246.701 43.0431 246.051 42.4614 245.256 42.0756C244.029 41.4801 244.5 41.4046 248.375 41.5745L252.939 41.7753L248.983 40.6247C242.062 38.611 242.186 38.6633 243.05 38.1276C243.754 37.6914 243.761 37.6511 243.144 37.5932C242.216 37.5057 241.981 36.4199 242.817 36.0875C243.201 35.9346 242.944 35.7753 242.239 35.7275C241.542 35.6803 240.925 35.3624 240.869 35.0212C240.814 34.68 239.193 34.1689 237.269 33.8863C233.842 33.3827 233.796 33.3563 235.054 32.5991C235.873 32.1062 238.008 31.8771 240.949 31.9658C245.205 32.0949 245.593 32.0111 245.991 30.8838C246.37 29.8093 246.88 29.6368 250.213 29.453C253.236 29.2868 254.004 29.0634 254.004 28.3515C254.004 27.8605 253.885 27.4589 253.739 27.4589C253.312 27.4589 248.119 25.5623 247.538 25.1941C246.439 24.4966 247.067 23.6796 248.755 23.6097C250.486 23.538 250.492 23.5317 249.288 23.0168C248.618 22.7304 246.975 22.4585 245.636 22.4131C243.252 22.3313 240.019 21.4759 240.92 21.1643C241.779 20.8678 238.641 19.9985 236.543 19.9519C234.715 19.911 234.358 19.7052 233.743 18.3317L233.038 16.7581L234.317 16.7014L235.595 16.6448L234.555 16.026C233.983 15.6861 233.264 15.5438 232.958 15.7094C232.651 15.8749 232.401 15.7749 232.401 15.4866C232.401 15.1983 232.161 14.8326 231.868 14.6739C231.575 14.5159 231.952 14.3177 232.705 14.2346L234.074 14.0829L232.705 13.6057C228.23 12.0472 196.404 11.1867 186.151 12.3474C183.222 12.6792 179.434 12.9574 177.733 12.9656C175.549 12.9769 174.594 13.213 174.485 13.7681C174.369 14.3605 174.268 14.3737 174.077 13.8198C173.862 13.1991 167.544 12.4847 166.982 13.0172C166.433 13.5378 86.2799 13.4691 80.8727 12.9435C77.2746 12.5936 73.1669 12.197 71.7445 12.0623C70.322 11.9276 66.088 11.6695 62.336 11.4901C58.5838 11.3101 54.1338 10.9853 52.4472 10.7688C47.5703 10.1418 40.6712 10.0795 40.4975 10.6611ZM194.918 10.2639C195.137 10.4458 195.4 10.4232 195.501 10.2142C195.602 10.0052 195.423 9.85667 195.102 9.88374C194.747 9.91395 194.675 10.0631 194.918 10.2639ZM186.703 10.8934C186.922 11.0753 187.185 11.0526 187.286 10.8437C187.387 10.6347 187.207 10.4861 186.886 10.5132C186.532 10.5434 186.46 10.6926 186.703 10.8934ZM189.137 10.8934C189.356 11.0753 189.619 11.0526 189.72 10.8437C189.821 10.6347 189.641 10.4861 189.321 10.5132C188.966 10.5434 188.894 10.6926 189.137 10.8934ZM91.4461 12.1668C91.8228 12.3166 92.4387 12.3166 92.8154 12.1668C93.1921 12.0164 92.8838 11.8936 92.1307 11.8936C91.3777 11.8936 91.0694 12.0164 91.4461 12.1668ZM153.067 14.6532C152.861 14.8256 152.45 14.8363 152.154 14.6764C151.858 14.5166 152.027 14.3756 152.529 14.363C153.031 14.3504 153.273 14.4807 153.067 14.6532ZM231.101 14.6204C231 14.8294 230.737 14.8521 230.518 14.6702C230.275 14.4694 230.347 14.3202 230.702 14.29C231.022 14.2629 231.202 14.4114 231.101 14.6204ZM185.759 15.7383C185.863 15.953 184.864 16.1607 183.539 16.2004C182.214 16.2394 177.639 16.4156 173.372 16.5913C169.104 16.7675 153.999 17.1295 139.805 17.397C125.61 17.6645 113.25 18.0755 112.337 18.3116C110.661 18.7446 108.654 18.2449 109.022 17.4851C109.234 17.0476 112.114 16.9305 128.263 16.7058C134.427 16.6196 138.38 16.33 138.38 15.9643C138.38 15.6345 138.573 15.5174 138.808 15.7044C139.459 16.2205 149.592 16.133 156.941 15.5476C164.126 14.9748 185.459 15.1164 185.759 15.7383ZM193.707 15.1851C193.488 15.6376 188.273 15.6924 188.056 15.2442C187.957 15.0384 189.222 14.8697 190.867 14.8697C192.513 14.8697 193.791 15.0113 193.707 15.1851ZM194.893 15.2499C194.792 15.4589 194.529 15.4815 194.31 15.2996C194.067 15.0988 194.139 14.9496 194.493 14.9194C194.814 14.8924 194.994 15.0409 194.893 15.2499ZM171.778 15.9442C172.156 16.0946 172.704 16.089 172.995 15.9316C173.286 15.7742 172.976 15.6509 172.307 15.6578C171.637 15.6647 171.399 15.7937 171.778 15.9442ZM213.336 15.9712C213.413 16.2306 211.584 16.4433 209.272 16.4433C206.959 16.4433 204.965 16.2306 204.839 15.9712C204.713 15.7119 206.542 15.4992 208.903 15.4992C211.264 15.4992 213.259 15.7119 213.336 15.9712ZM214.905 16.1286C214.074 16.8676 213.84 16.8676 213.84 16.1286C213.84 15.7824 214.216 15.5193 214.677 15.5432C215.418 15.5829 215.444 15.649 214.905 16.1286ZM159.318 16.5585C159.538 16.7404 159.8 16.7178 159.901 16.5088C160.002 16.2998 159.823 16.1513 159.502 16.1783C159.147 16.2086 159.075 16.3577 159.318 16.5585ZM161.13 16.585C161.677 16.7247 162.498 16.7222 162.956 16.5787C163.413 16.4345 162.965 16.32 161.961 16.3237C160.957 16.3269 160.583 16.4446 161.13 16.585ZM99.7087 18.0541C99.4896 18.3342 99.1862 18.4047 99.035 18.2115C98.8838 18.0182 98.9392 17.6305 99.1579 17.3504C99.377 17.0703 99.6804 16.9998 99.8316 17.193C99.9828 17.3863 99.9274 17.774 99.7087 18.0541ZM105.214 17.5241C105.214 17.7954 104.222 17.9836 103.009 17.9427C101.371 17.8873 101.038 17.747 101.715 17.3982C102.883 16.7965 105.214 16.8808 105.214 17.5241ZM108.257 17.0885C108.257 17.7608 106.614 18.683 106.151 18.2707C105.772 17.9333 105.831 17.7425 106.432 17.3636C107.361 16.777 108.257 16.6423 108.257 17.0885ZM98.3577 18.0529C98.26 18.3789 97.1272 18.642 95.8401 18.637C94.5531 18.6313 93.66 18.4192 93.8557 18.1649C94.3973 17.4605 98.5655 17.3567 98.3577 18.0529ZM195.665 17.8005C195.459 17.9729 195.049 17.9836 194.753 17.8237C194.456 17.6639 194.625 17.5229 195.127 17.5103C195.629 17.4977 195.871 17.628 195.665 17.8005ZM216.959 18.4614C216.582 18.6112 215.966 18.6112 215.589 18.4614C215.213 18.3109 215.521 18.1882 216.274 18.1882C217.027 18.1882 217.335 18.3109 216.959 18.4614ZM28.2334 26.8294C28.2334 27.1756 28.1732 27.4589 28.0993 27.4589C28.0253 27.4589 27.8805 27.1756 27.777 26.8294C27.6736 26.4832 27.7341 26.2 27.9112 26.2C28.0883 26.2 28.2334 26.4832 28.2334 26.8294ZM19.9612 49.9199C20.1806 50.1018 20.4431 50.0792 20.5442 49.8702C20.6452 49.6612 20.4657 49.5126 20.145 49.5397C19.7905 49.5699 19.7184 49.7191 19.9612 49.9199ZM236.274 60.571C236.173 60.78 235.91 60.8026 235.691 60.6207C235.448 60.4199 235.52 60.2707 235.874 60.2405C236.195 60.2135 236.375 60.362 236.274 60.571ZM22.4523 62.0792C22.4523 62.4254 22.3071 62.7086 22.13 62.7086C21.9529 62.7086 21.8924 62.4254 21.9958 62.0792C22.0993 61.733 22.2441 61.4497 22.3181 61.4497C22.392 61.4497 22.4523 61.733 22.4523 62.0792ZM112.986 71.5632C113.313 72.6591 112.941 72.8914 112.523 71.8509C112.283 71.2529 112.26 70.8916 112.462 70.8916C112.64 70.8916 112.876 71.1938 112.986 71.5632ZM132.28 73.113C132.461 72.882 132.53 72.4294 132.434 72.1071C132.333 71.7703 133.032 71.5211 134.077 71.5211C135.127 71.5211 135.942 71.8131 136.007 72.2122C136.068 72.5924 136.761 73.0538 137.547 73.237C139.506 73.694 139.059 74.6633 137.001 74.4235C135.762 74.2794 135.337 74.4468 135.337 75.0788C135.337 76.1476 134.224 76.1998 134.018 75.1405C133.929 74.6841 133.854 74.832 133.84 75.4923C133.827 76.1187 133.704 76.4875 133.566 76.3113C133.428 76.1356 133.088 76.5435 132.808 77.2183C132.213 78.6585 130.773 78.8858 130.773 77.5406C130.773 76.852 130.509 76.7248 129.668 77.0068C128.8 77.2983 128.594 77.1881 128.711 76.4957C128.794 76.0098 129.055 75.6415 129.293 75.6768C129.53 75.712 129.912 75.3262 130.141 74.8201C130.502 74.02 130.421 73.9558 129.524 74.331C128.956 74.5683 128.263 74.8944 127.984 75.0555C127.706 75.2173 127.398 75.0807 127.3 74.7533C127.202 74.4254 127.814 73.9602 128.66 73.7198C129.506 73.4787 130.362 72.9122 130.562 72.4602C130.86 71.7867 131.018 71.8094 131.439 72.5855C131.721 73.1067 132.1 73.344 132.28 73.113ZM175.197 72.3941C175.197 72.9109 173.336 73.1709 173.188 72.6749C173.102 72.3866 173.519 72.1505 174.114 72.1505C174.71 72.1505 175.197 72.2601 175.197 72.3941ZM119.636 76.1841C119.375 77.5935 118.992 76.8891 119.084 75.1669C119.198 73.0255 119.205 73.0079 119.525 74.1421C119.688 74.7181 119.737 75.6371 119.636 76.1841ZM141.201 73.8224C140.995 73.9949 140.584 74.0055 140.288 73.8457C139.992 73.6858 140.16 73.5448 140.662 73.5322C141.164 73.5196 141.407 73.6499 141.201 73.8224ZM151.464 74.071C149.513 74.7892 142.575 74.7659 142.032 74.0389C141.729 73.6342 143.471 73.4523 147.204 73.4976C151.054 73.5454 152.401 73.7261 151.464 74.071ZM157.778 73.8601C157.317 74.0043 156.564 74.0043 156.104 73.8601C155.644 73.716 156.02 73.5983 156.941 73.5983C157.861 73.5983 158.238 73.716 157.778 73.8601ZM160.668 73.8262C160.459 74.0011 160.117 74.0011 159.908 73.8262C159.699 73.6518 159.87 73.5089 160.288 73.5089C160.706 73.5089 160.878 73.6518 160.668 73.8262ZM163.711 73.8262C163.502 74.0011 163.16 74.0011 162.95 73.8262C162.741 73.6518 162.912 73.5089 163.331 73.5089C163.749 73.5089 163.92 73.6518 163.711 73.8262ZM111.908 74.3467C111.908 75.2632 110.774 77.1831 110.244 77.1654C109.65 77.1453 109.653 77.0981 110.323 75.9437L111.018 74.7433L109.714 74.5009C108.568 74.2882 108.623 74.2454 110.159 74.1491C111.121 74.0886 111.908 74.1774 111.908 74.3467ZM113.347 74.4191C113.246 74.6281 112.984 74.6507 112.764 74.4688C112.522 74.268 112.594 74.1189 112.948 74.0886C113.269 74.0616 113.448 74.2101 113.347 74.4191ZM131.99 74.6684C131.99 75.0146 132.136 75.2978 132.313 75.2978C132.49 75.2978 132.55 75.0146 132.447 74.6684C132.343 74.3222 132.199 74.0389 132.125 74.0389C132.051 74.0389 131.99 74.3222 131.99 74.6684ZM227.145 74.4191C227.044 74.6281 226.782 74.6507 226.562 74.4688C226.32 74.268 226.392 74.1189 226.746 74.0886C227.067 74.0616 227.246 74.2101 227.145 74.4191ZM229.434 74.4556C229.225 74.6306 228.883 74.6306 228.673 74.4556C228.464 74.2813 228.635 74.1384 229.054 74.1384C229.472 74.1384 229.643 74.2813 229.434 74.4556ZM98.7423 75.0486C98.6413 75.2576 98.3787 75.2802 98.1593 75.0983C97.9165 74.8975 97.9886 74.7483 98.3431 74.7181C98.6638 74.691 98.8433 74.8396 98.7423 75.0486ZM107.275 75.4162C107.208 75.8272 106.973 76.2886 106.75 76.4416C106.523 76.5983 106.434 76.429 106.546 76.0538C106.658 75.6799 106.443 75.2676 106.056 75.114C105.565 74.9189 105.659 74.815 106.381 74.754C107.043 74.698 107.353 74.9283 107.275 75.4162ZM116.929 75.9273C116.818 76.6493 116.874 77.1862 117.061 77.1862C117.239 77.1862 117.385 77.4223 117.385 77.7105C117.385 78.5282 116.148 78.1373 115.878 77.2341C115.692 76.609 115.49 76.5901 114.984 77.1503C114.624 77.5481 114.182 77.6847 114.001 77.4531C113.636 76.986 115.689 74.8006 116.569 74.7194C116.987 74.681 117.075 74.9749 116.929 75.9273ZM174.437 75.2978C174.54 75.644 174.479 75.9273 174.302 75.9273C174.125 75.9273 173.98 75.644 173.98 75.2978C173.98 74.9516 174.04 74.6684 174.114 74.6684C174.188 74.6684 174.333 74.9516 174.437 75.2978ZM177.327 74.946C177.327 75.0989 177.19 75.3985 177.023 75.6126C176.856 75.8266 176.719 75.7013 176.719 75.335C176.719 74.9686 176.856 74.6684 177.023 74.6684C177.19 74.6684 177.327 74.793 177.327 74.946ZM221.833 75.0813C221.627 75.2538 221.216 75.2645 220.92 75.1046C220.624 74.9447 220.793 74.8037 221.295 74.7911C221.797 74.7785 222.039 74.9088 221.833 75.0813ZM223.494 75.0486C223.393 75.2576 223.131 75.2802 222.911 75.0983C222.668 74.8975 222.74 74.7483 223.095 74.7181C223.416 74.691 223.595 74.8396 223.494 75.0486ZM103.237 75.9273C103.34 76.2735 103.28 76.5568 103.103 76.5568C102.925 76.5568 102.78 76.2735 102.78 75.9273C102.78 75.5811 102.841 75.2978 102.914 75.2978C102.988 75.2978 103.133 75.5811 103.237 75.9273ZM139.211 75.678C139.11 75.887 138.847 75.9097 138.628 75.7278C138.385 75.527 138.457 75.3778 138.811 75.3476C139.132 75.3205 139.312 75.469 139.211 75.678ZM140.732 75.678C140.631 75.887 140.368 75.9097 140.149 75.7278C139.906 75.527 139.978 75.3778 140.333 75.3476C140.653 75.3205 140.833 75.469 140.732 75.678ZM143.553 76.242C143.553 76.7613 143.69 77.1862 143.857 77.1862C144.024 77.1862 144.161 76.8325 144.161 76.3994C144.16 75.8152 144.828 75.6654 146.751 75.8165C148.318 75.9399 149.27 76.2609 149.16 76.6291C149.061 76.9634 148.737 77.0786 148.442 76.8847C148.146 76.6908 147.507 76.9615 147.022 77.4852C146.241 78.3287 146.128 78.3299 146.041 77.4972C145.931 76.446 144.606 76.2074 144.314 77.1862C144.11 77.8692 142.855 78.0505 142.56 77.4393C142.263 76.8268 142.67 75.2978 143.129 75.2978C143.362 75.2978 143.553 75.7227 143.553 76.242ZM171.546 76.242C171.225 77.0414 171.292 77.1862 171.983 77.1862C172.45 77.1862 172.718 77.4556 172.611 77.8157C172.507 78.1619 172.134 78.4451 171.781 78.4451C171.429 78.4451 171.238 78.6478 171.358 78.8952C171.478 79.1426 172.684 79.2578 174.038 79.152C176.238 78.9795 176.48 79.0714 176.305 80.0137C176.177 80.7074 176.24 80.9693 176.49 80.7798C176.699 80.6205 176.837 80.1724 176.795 79.7827C176.753 79.3931 177.069 79.0746 177.497 79.0746C177.939 79.0746 178.195 79.3471 178.088 79.7041C177.984 80.0503 178.045 80.3335 178.222 80.3335C178.399 80.3335 178.544 80.0503 178.544 79.7041C178.544 78.6566 179.682 78.9991 179.888 80.1088C179.993 80.6778 180.034 81.238 179.978 81.3539C179.922 81.4691 178.527 81.6409 176.878 81.7353C174.689 81.8606 173.845 81.695 173.752 81.1203C173.682 80.6879 173.355 80.3335 173.024 80.3335C172.693 80.3335 172.507 80.6168 172.611 80.963C172.721 81.3299 172.411 81.5924 171.868 81.5924C171.356 81.5924 170.937 81.3092 170.937 80.963C170.937 80.6168 170.431 80.3335 169.812 80.3335C168.581 80.3335 168.738 79.327 170.025 78.9707C170.597 78.8121 170.809 78.3306 170.881 77.0288C170.94 75.9676 171.161 75.2978 171.451 75.2978C171.838 75.2978 171.855 75.4716 171.546 76.242ZM201.821 76.7494C202.156 76.93 201.779 77.049 200.984 77.0144C200.19 76.9798 199.539 76.7015 199.539 76.3969C199.539 76.0916 199.83 76.0337 200.186 76.2672C200.68 76.5914 200.774 76.4907 200.584 75.8373C200.388 75.1656 200.429 75.1367 200.774 75.7019C201.015 76.0979 201.486 76.5687 201.821 76.7494ZM163.787 76.5568C163.684 76.903 163.47 77.1862 163.313 77.1862C163.155 77.1862 163.026 76.903 163.026 76.5568C163.026 76.2106 163.24 75.9273 163.501 75.9273C163.761 75.9273 163.89 76.2106 163.787 76.5568ZM131.382 77.1862C131.972 77.9749 132.295 77.9749 132.295 77.1862C132.295 76.84 131.987 76.5612 131.61 76.5662C131.057 76.5744 131.013 76.6927 131.382 77.1862ZM159.984 77.4594C159.984 77.9705 160.346 78.4577 160.82 78.583C161.492 78.7605 161.409 78.8637 160.402 79.1061C159.258 79.3811 159.147 79.2817 159.147 77.9825C159.147 77.1925 159.333 76.5568 159.565 76.5568C159.795 76.5568 159.984 76.9628 159.984 77.4594ZM169.416 77.0924C169.416 77.4084 168.866 77.6829 168.193 77.7024C167.52 77.7213 167.031 77.5305 167.106 77.2787C167.311 76.5952 169.416 76.4252 169.416 77.0924ZM74.6351 77.8157C74.7385 78.1619 74.6095 78.4451 74.3487 78.4451C74.088 78.4451 73.8744 78.1619 73.8744 77.8157C73.8744 77.4695 74.0031 77.1862 74.1607 77.1862C74.3183 77.1862 74.5316 77.4695 74.6351 77.8157ZM135.033 77.8528C135.033 78.2192 134.881 78.3249 134.695 78.087C134.509 77.849 134.237 78.0448 134.091 78.5219C133.881 79.208 133.824 79.1589 133.821 78.2878C133.818 77.6029 134.046 77.1862 134.425 77.1862C134.759 77.1862 135.033 77.4865 135.033 77.8528ZM139.293 77.6583C139.293 77.9176 138.964 78.1304 138.561 78.1304C138.159 78.1304 137.893 77.9176 137.971 77.6583C138.048 77.399 138.377 77.1862 138.702 77.1862C139.027 77.1862 139.293 77.399 139.293 77.6583ZM197.257 77.8157C197.154 78.1619 196.769 78.425 196.402 78.4011C195.76 78.3583 195.758 78.3375 196.344 77.8157C197.182 77.071 197.479 77.071 197.257 77.8157ZM219.621 77.8157C219.621 78.1619 219.929 78.4495 220.306 78.4546C220.682 78.4602 221.196 78.7391 221.447 79.0746C221.783 79.5247 221.544 79.7198 220.534 79.8174C219.781 79.8904 218.685 80.0622 218.1 80.1988C217.514 80.336 212.311 80.5312 206.537 80.6325C200.764 80.7339 196.861 80.6054 197.866 80.3467C198.87 80.0886 200.376 79.7009 201.213 79.4856C204.428 78.6591 208.327 78.4439 208.517 79.0815C208.623 79.4353 208.85 79.5448 209.021 79.3251C209.193 79.1061 209.654 79.2804 210.045 79.7135C210.436 80.1466 211.005 80.2951 211.309 80.0433C211.613 79.7915 212.846 79.536 214.049 79.4756C215.251 79.4151 216.324 79.1803 216.434 78.9537C216.543 78.7278 217.1 78.6994 217.67 78.8908C218.496 79.1677 218.708 79.0293 218.708 78.2129C218.708 77.6482 218.914 77.1862 219.165 77.1862C219.416 77.1862 219.621 77.4695 219.621 77.8157ZM228.572 77.973C228.714 78.6025 228.785 78.6025 228.927 77.973C229.118 77.127 231.658 76.8576 231.897 77.6583C231.975 77.9176 231.435 78.0309 230.698 77.9095C229.861 77.7716 229.358 77.9491 229.358 78.3816C229.358 79.4315 227.927 79.2112 227.726 78.1304C227.513 76.9823 228.315 76.8331 228.572 77.973ZM158.006 78.4451C157.902 78.7913 157.449 79.0544 156.999 79.0305C156.268 78.9909 156.245 78.9279 156.789 78.4451C157.634 77.6936 158.23 77.6936 158.006 78.4451ZM186.607 78.4451C186.504 78.7913 186.701 79.0746 187.046 79.0746C187.39 79.0746 187.672 78.7913 187.672 78.4451C187.672 77.7017 188.262 77.8698 188.763 78.7561C189.223 79.5687 187.66 81.0033 186.814 80.5456C186.487 80.3688 186.128 80.5318 186.015 80.9082C185.903 81.2846 185.606 81.5924 185.354 81.5924C185.103 81.5924 184.989 81.2871 185.101 80.9145C185.241 80.4449 184.873 80.37 183.902 80.6709C183.051 80.9346 182.5 80.8648 182.5 80.4928C182.5 80.156 183.285 79.7122 184.244 79.5077C185.204 79.3031 186.037 78.8385 186.095 78.4753C186.154 78.1128 186.335 77.8157 186.499 77.8157C186.662 77.8157 186.711 78.0989 186.607 78.4451ZM195.307 78.396C195.071 78.7051 194.475 78.8524 193.983 78.7234C193.293 78.5427 193.051 78.7731 192.931 79.7261C192.844 80.4065 192.657 80.963 192.515 80.963C192.186 80.963 192.54 78.9135 192.975 78.2972C193.155 78.0429 193.849 77.8352 194.519 77.8352C195.349 77.8352 195.6 78.0133 195.307 78.396ZM88.1752 79.0009C88.1752 79.7506 86.9989 80.3493 86.8045 79.699C86.7196 79.4145 86.8221 79.0387 87.0323 78.8631C87.6555 78.3432 88.1752 78.4061 88.1752 79.0009ZM92.1307 79.0746C92.1307 79.4208 92.002 79.7041 91.8444 79.7041C91.6868 79.7041 91.4735 79.4208 91.3701 79.0746C91.2666 78.7284 91.3956 78.4451 91.6564 78.4451C91.9172 78.4451 92.1307 78.7284 92.1307 79.0746ZM97.6077 79.006C97.6077 79.9577 95.3859 80.1604 94.5732 79.2829C93.8612 78.5144 93.9451 78.4527 95.706 78.4489C96.752 78.447 97.6077 78.6976 97.6077 79.006ZM98.5433 79.2477C98.5056 80.0005 98.0884 79.8545 97.9576 79.0431C97.8906 78.6277 98.0002 78.4011 98.201 78.5395C98.4018 78.678 98.5558 78.9965 98.5433 79.2477ZM101.238 81.2305C101.249 81.5509 101.005 81.2676 100.695 80.601C100.312 79.7796 100.239 79.2445 100.467 78.9405C100.771 78.5326 101.183 79.7569 101.238 81.2305ZM103.82 78.8272C104.44 79.3188 104.444 80.3335 103.827 80.3335C103.567 80.3335 103.432 80.5998 103.53 80.9246C103.627 81.25 103.43 81.4735 103.093 81.4206C102.462 81.3224 102.363 79.7915 102.932 78.9267C103.305 78.3602 103.241 78.3671 103.82 78.8272ZM223.272 79.0746C223.272 79.4208 223.033 79.6996 222.74 79.6946C222.285 79.6864 222.274 79.5958 222.664 79.0746C223.238 78.3067 223.272 78.3067 223.272 79.0746ZM106.9 80.0547C106.122 80.7156 106.08 80.8623 106.596 81.1329C107.078 81.3866 107.046 81.4602 106.429 81.5194C105.988 81.5616 105.518 81.104 105.317 80.4386C104.998 79.3811 105.087 79.2848 106.385 79.2873C107.788 79.2899 107.792 79.2968 106.9 80.0547ZM111.082 80.7804C111.205 82.1073 111.133 82.2773 110.578 81.9689C110.222 81.7712 109.383 81.5968 108.714 81.5817C107.729 81.5597 107.599 81.43 108.035 80.9051C108.332 80.5482 108.498 80.0005 108.404 79.6877C108.311 79.3755 108.843 79.1451 109.587 79.1759C110.772 79.225 110.957 79.4233 111.082 80.7804ZM120.023 80.6879C120.339 81.5817 120.512 81.6711 120.794 81.0863C121.301 80.0383 121.949 80.1453 121.949 81.2777C121.949 82.0135 121.563 82.2112 120.2 82.1722C119.238 82.1451 118.622 81.9795 118.831 81.8052C119.725 81.058 119.088 80.3335 117.538 80.3335C115.727 80.3335 115.241 81.3526 116.853 81.7668C117.468 81.9242 117.187 82.0582 116.11 82.1212C115.138 82.1778 114.289 81.9216 114.174 81.5377C114.027 81.0448 113.877 81.0448 113.639 81.5377C113.457 81.9141 113.103 82.2219 112.852 82.2219C112.514 82.2219 112.484 82.0375 112.737 81.5156C112.924 81.1273 113.002 80.4009 112.91 79.9011C112.767 79.1331 113.273 79.0349 116.179 79.2647C119.063 79.4926 119.682 79.721 120.023 80.6879ZM126.816 80.4909C126.819 81.194 124.754 81.0624 124.539 80.3455C124.428 79.9735 124.843 79.7859 125.585 79.8734C126.261 79.9533 126.815 80.2315 126.816 80.4909ZM137.772 80.2964C137.772 80.6224 137.635 81.0631 137.468 81.2764C136.937 81.955 128.718 81.6434 128.035 80.9189C127.687 80.5507 131.456 79.9023 134.501 79.8067C136.377 79.7481 137.772 79.9565 137.772 80.2964ZM151.115 80.6615C151.436 81.3249 150.86 81.5496 148.022 81.8688C145.112 82.1967 142.032 81.3948 142.032 80.3096C142.032 79.7563 150.843 80.0981 151.115 80.6615ZM161.961 80.9403C159.999 81.3029 158.523 81.036 159.011 80.4065C159.177 80.1931 160.319 80.1503 161.55 80.3109L163.787 80.6029L161.961 80.9403ZM167.286 80.3335C167.286 80.6797 167.226 80.963 167.152 80.963C167.078 80.963 166.933 80.6797 166.83 80.3335C166.726 79.9873 166.787 79.7041 166.964 79.7041C167.141 79.7041 167.286 79.9873 167.286 80.3335ZM174.132 80.3335C174.029 80.6797 174.158 80.963 174.419 80.963C174.679 80.963 174.893 80.6797 174.893 80.3335C174.893 79.9873 174.764 79.7041 174.607 79.7041C174.449 79.7041 174.236 79.9873 174.132 80.3335ZM237.212 80.134C237.431 80.3159 237.694 80.2932 237.795 80.0842C237.896 79.8753 237.716 79.7267 237.396 79.7538C237.041 79.784 236.969 79.9332 237.212 80.134ZM165.935 80.9038C165.841 81.2173 165.49 81.3262 165.156 81.1449C164.319 80.6923 164.394 80.3335 165.326 80.3335C165.754 80.3335 166.028 80.5903 165.935 80.9038ZM181.663 80.7502C181.454 80.9252 181.112 80.9252 180.902 80.7502C180.693 80.5759 180.864 80.433 181.283 80.433C181.701 80.433 181.872 80.5759 181.663 80.7502ZM195.66 80.7502C195.451 80.9252 195.108 80.9252 194.899 80.7502C194.69 80.5759 194.861 80.433 195.279 80.433C195.698 80.433 195.869 80.5759 195.66 80.7502ZM234.987 83.4808C235.09 83.827 235.235 84.1103 235.309 84.1103C235.383 84.1103 235.443 83.827 235.443 83.4808C235.443 83.1346 235.298 82.8514 235.121 82.8514C234.944 82.8514 234.883 83.1346 234.987 83.4808ZM242.993 83.2813C243.213 83.4632 243.475 83.4405 243.576 83.2315C243.677 83.0226 243.498 82.874 243.177 82.9011C242.822 82.9313 242.75 83.0805 242.993 83.2813ZM118.602 91.1917C118.602 91.451 115.83 91.6109 112.441 91.5467C108.176 91.4655 107.075 91.3201 108.866 91.0746C112.581 90.5647 118.601 90.6371 118.602 91.1917ZM121.645 91.4227C121.645 91.5549 120.995 91.6304 120.2 91.5895C118.957 91.5253 118.882 91.4548 119.667 91.0859C120.52 90.685 121.645 90.877 121.645 91.4227ZM105.899 91.451C105.69 91.626 105.348 91.626 105.138 91.451C104.929 91.2767 105.1 91.1338 105.519 91.1338C105.937 91.1338 106.108 91.2767 105.899 91.451ZM78.3615 92.793C78.5724 93.0801 77.3239 93.3312 75.5506 93.3583C73.7959 93.3854 72.4154 93.223 72.4829 92.997C72.6673 92.3801 77.9239 92.1982 78.3615 92.793ZM217.434 93.3526C217.654 93.5345 217.916 93.5119 218.017 93.3029C218.118 93.0939 217.939 92.9454 217.618 92.9724C217.264 93.0026 217.191 93.1518 217.434 93.3526ZM195.197 93.9324C195.096 94.1413 194.833 94.164 194.614 93.9821C194.371 93.7813 194.443 93.6321 194.798 93.6019C195.118 93.5748 195.298 93.7234 195.197 93.9324ZM89.4516 95.2807C91.2414 95.3914 94.2537 95.3921 96.1456 95.2813C98.0376 95.1705 96.5731 95.0799 92.8914 95.0792C89.2097 95.0786 87.6619 95.1692 89.4516 95.2807ZM116.721 95.5778C116.884 95.9133 117.271 96.0769 117.581 95.9403C118 95.7572 117.923 95.5985 117.286 95.3304C116.731 95.0956 116.531 95.1837 116.721 95.5778ZM211.045 95.241C211.264 95.4229 211.527 95.4003 211.628 95.1913C211.729 94.9823 211.549 94.8337 211.228 94.8608C210.874 94.891 210.802 95.0402 211.045 95.241ZM119.139 95.8856C119.517 96.036 120.065 96.0303 120.356 95.873C120.647 95.7156 120.337 95.5922 119.667 95.5992C118.998 95.6061 118.76 95.7351 119.139 95.8856ZM123.398 95.8856C123.777 96.036 124.325 96.0303 124.616 95.873C124.906 95.7156 124.597 95.5922 123.927 95.5992C123.258 95.6061 123.02 95.7351 123.398 95.8856ZM132.833 95.8969C133.38 96.0366 134.201 96.0341 134.658 95.8906C135.116 95.7465 134.668 95.6319 133.664 95.6357C132.66 95.6388 132.286 95.7565 132.833 95.8969ZM137.243 95.8925C137.706 96.0366 138.391 96.0329 138.765 95.8837C139.139 95.7345 138.761 95.6162 137.924 95.6206C137.087 95.6256 136.781 95.7477 137.243 95.8925ZM177.099 95.8742C177.392 96.0329 177.871 96.0329 178.164 95.8742C178.457 95.7162 178.217 95.5866 177.631 95.5866C177.046 95.5866 176.806 95.7162 177.099 95.8742ZM182.119 95.8572C182.329 96.0322 182.671 96.0322 182.88 95.8572C183.089 95.6829 182.918 95.54 182.5 95.54C182.081 95.54 181.91 95.6829 182.119 95.8572Z" fill="#E4C453"/>
<path fill-rule="evenodd" clip-rule="evenodd" d="M165.058 0.574939C165.227 0.511682 167.376 0.342874 169.833 0.199442C176.505 -0.189296 207.012 0.0354145 208.655 0.48557C209.417 0.694466 210.527 0.967354 211.12 1.09166C215.85 2.08428 216.666 2.32738 216.666 2.74518C216.666 2.91251 216.146 2.90369 215.51 2.72568C214.875 2.54731 212.275 2.22441 209.733 2.00816C207.191 1.7919 204.904 1.51681 204.649 1.39691C204.395 1.27665 203.86 1.21744 203.46 1.26525C203.001 1.31968 202.808 1.20346 202.939 0.951907C203.085 0.668353 200.81 0.552505 195.098 0.552505C189.812 0.552505 187.116 0.678651 187.241 0.920279C187.357 1.14389 186.912 1.28585 186.104 1.28217C184.657 1.27592 173.401 1.51497 162.439 1.78528C157.642 1.90371 156.503 1.8673 158.741 1.66723C160.521 1.50835 163.779 1.32704 165.982 1.26452C169.976 1.15124 169.98 1.15051 167.368 0.920279C165.928 0.793397 164.888 0.637829 165.058 0.574939ZM76.7076 0.862538C74.6078 0.808107 74.5662 0.791557 76.0143 0.586707C76.8616 0.466813 77.8667 0.429301 78.2481 0.503591C79.5874 0.763975 78.9192 0.919543 76.7076 0.862538ZM69.313 1.11814C70.7959 0.988317 72.2862 0.830542 72.6251 0.767652C72.964 0.704395 73.3732 0.630106 73.5341 0.602523C74.1842 0.491455 73.1988 1.23583 72.4711 1.40574C72.0474 1.50467 72.5327 1.58779 73.5494 1.59073C76.4792 1.59846 76.5282 1.74005 73.7035 2.03647C72.2138 2.19315 71.0402 2.17034 70.982 1.98388C70.9253 1.8033 70.3707 1.67532 69.7495 1.69922L68.6197 1.74299L69.544 2.0236C70.387 2.27957 70.3464 2.30752 69.0819 2.34209C68.0281 2.37115 67.8063 2.28693 68.1576 1.99197C68.5119 1.69408 68.3862 1.63781 67.6184 1.74998C67.0675 1.83052 66.617 1.77425 66.617 1.6253C66.617 1.47599 67.8303 1.24797 69.313 1.11814ZM174.853 0.825394C176.004 0.896374 177.806 0.896005 178.858 0.824289C179.91 0.752941 178.969 0.694833 176.766 0.695569C174.563 0.695937 173.702 0.754781 174.853 0.825394ZM182.389 0.795971C182.601 0.898212 182.947 0.898212 183.159 0.795971C183.371 0.694097 183.197 0.610613 182.774 0.610613C182.35 0.610613 182.177 0.694097 182.389 0.795971ZM205.805 1.16375C206.017 1.26599 206.363 1.26599 206.575 1.16375C206.787 1.06187 206.614 0.978388 206.19 0.978388C205.766 0.978388 205.593 1.06187 205.805 1.16375ZM207.813 1.17515C208.113 1.26856 208.529 1.26231 208.738 1.16154C208.946 1.06077 208.701 0.984639 208.193 0.991995C207.684 0.99935 207.514 1.08173 207.813 1.17515ZM77.4008 1.37338C77.9939 1.37338 78.2364 1.44914 77.94 1.54145C77.6436 1.63413 77.158 1.63413 76.8616 1.54145C76.5652 1.44914 76.8077 1.37338 77.4008 1.37338ZM80.5589 1.53152C80.3472 1.63376 80.0006 1.63376 79.7886 1.53152C79.577 1.42965 79.7501 1.34616 80.1738 1.34616C80.5974 1.34616 80.7709 1.42965 80.5589 1.53152ZM17.2091 2.37519C19.0972 2.41675 20.7144 2.31047 20.8032 2.13908C20.9791 1.79926 27.9651 1.83567 32.9035 2.20197C34.6113 2.32849 39.1174 2.51826 42.917 2.62344C46.7163 2.72826 51.0036 2.87905 52.444 2.95775C53.8844 3.03645 58.0439 3.26815 61.6873 3.47263C67.1627 3.77972 148.326 3.81981 148.882 3.51566C149.451 3.20452 155.849 3.62195 156.066 3.98457C156.26 4.30822 156.362 4.30049 156.48 3.95442C156.59 3.63004 157.557 3.49212 159.768 3.4855C161.491 3.48072 165.327 3.31817 168.293 3.12435C178.674 2.44617 210.902 2.94892 215.433 3.85953L216.82 4.1383L215.433 4.22694C214.671 4.27548 214.29 4.39133 214.586 4.48364C214.882 4.57632 215.125 4.79 215.125 4.95844C215.125 5.12688 215.379 5.18536 215.689 5.08863C216 4.99191 216.727 5.07502 217.307 5.27362L218.36 5.63514L217.066 5.66825L215.771 5.70134L216.485 6.62078C217.108 7.42326 217.469 7.54352 219.32 7.56743C221.444 7.59465 224.622 8.10254 223.752 8.27576C222.839 8.45781 226.114 8.95762 228.528 9.00543C229.884 9.03191 231.547 9.19079 232.225 9.35812C233.444 9.65896 233.439 9.66264 231.686 9.70457C229.976 9.74539 229.34 10.2228 230.454 10.6303C230.626 10.6934 231.202 10.8335 231.939 11H6.27291C6.26135 10.9977 6.2497 10.9955 6.23797 10.9932C5.22737 10.8005 5.02741 10.6247 5.08256 9.97782C5.1676 8.98336 5.54718 8.65641 6.62464 8.64905C7.37673 8.64427 7.47255 8.51776 7.39491 7.63216C7.31357 6.70537 7.38998 6.62519 8.30753 6.67484C9.6857 6.7495 9.57139 6.15444 8.15347 5.8731C6.42098 5.52959 6.37322 5.49392 6.3039 4.49431C6.26323 3.90697 6.43484 3.47594 6.77284 3.31706C7.78282 2.8419 13.7832 2.30054 17.2091 2.37519ZM177.761 1.87796C177.658 2.00006 177.392 2.0133 177.17 1.90702C176.924 1.7897 176.997 1.70253 177.356 1.68488C177.681 1.66907 177.863 1.75586 177.761 1.87796ZM169.442 2.24574C169.339 2.36784 169.073 2.38108 168.851 2.27479C168.605 2.15747 168.678 2.07031 169.037 2.05266C169.362 2.03684 169.544 2.12364 169.442 2.24574ZM171.907 2.24574C171.804 2.36784 171.538 2.38108 171.316 2.27479C171.07 2.15747 171.143 2.07031 171.502 2.05266C171.827 2.03684 172.009 2.12364 171.907 2.24574ZM73.0873 2.85918C73.8499 2.85918 74.162 2.9309 73.7805 3.0188C73.3991 3.10633 72.7755 3.10633 72.394 3.0188C72.0126 2.9309 72.3247 2.85918 73.0873 2.85918ZM133.867 4.48512C134.167 4.57853 134.583 4.57228 134.792 4.47151C135 4.37074 134.755 4.29461 134.247 4.30196C133.738 4.30932 133.568 4.3917 133.867 4.48512ZM213.219 4.48144C213.441 4.58772 213.707 4.57448 213.809 4.45238C213.912 4.33028 213.73 4.24349 213.405 4.2593C213.046 4.27695 212.973 4.36412 213.219 4.48144ZM165.648 5.3755C166.99 5.35233 168.001 5.23096 167.896 5.10555C167.592 4.74219 145.99 4.65944 138.714 4.99412C131.273 5.33615 121.012 5.38726 120.353 5.08569C120.115 4.97646 119.92 5.04487 119.92 5.23758C119.92 5.45126 115.916 5.62043 109.675 5.67082C93.3223 5.80211 90.4057 5.87052 90.1913 6.12612C89.8188 6.57003 91.8508 6.86204 93.5484 6.60901C94.4725 6.4711 106.988 6.23094 121.362 6.07463C135.735 5.91833 151.031 5.70686 155.352 5.60388C159.673 5.50128 164.306 5.3983 165.648 5.3755ZM170.222 4.81685C170.441 5.0787 175.722 5.04671 175.944 4.78228C176.029 4.68077 174.735 4.59802 173.068 4.59802C171.402 4.59802 170.121 4.69659 170.222 4.81685ZM176.554 4.84921C176.776 4.9555 177.042 4.94226 177.144 4.82016C177.247 4.69805 177.065 4.61126 176.74 4.62708C176.381 4.64473 176.308 4.73189 176.554 4.84921ZM154.971 5.21846C154.676 5.3104 154.122 5.31371 153.738 5.22581C153.355 5.13791 153.596 5.06252 154.274 5.05847C154.952 5.05443 155.265 5.12651 154.971 5.21846ZM191.705 5.51746C194.047 5.51746 195.899 5.39315 195.82 5.24163C195.742 5.0901 193.722 4.9658 191.331 4.9658C188.941 4.9658 187.089 5.0901 187.216 5.24163C187.343 5.39315 189.363 5.51746 191.705 5.51746ZM196.331 5.33357C196.331 5.76534 196.568 5.76534 197.409 5.33357C197.955 5.05333 197.929 5.01471 197.178 4.99154C196.712 4.97756 196.331 5.13129 196.331 5.33357ZM141.712 5.5557C141.61 5.67781 141.344 5.69105 141.122 5.58476C140.876 5.46744 140.949 5.38028 141.308 5.36263C141.632 5.34681 141.814 5.4336 141.712 5.5557ZM144.805 5.59653C144.342 5.68038 143.51 5.68185 142.956 5.60021C142.403 5.51819 142.781 5.44942 143.798 5.44758C144.815 5.44537 145.268 5.51231 144.805 5.59653ZM80.0786 6.55053C80.2317 6.66344 80.5389 6.62225 80.7607 6.45859C80.9823 6.29493 81.0383 6.06838 80.8852 5.95548C80.7321 5.84257 80.4249 5.88376 80.203 6.04742C79.9815 6.21108 79.9254 6.43763 80.0786 6.55053ZM84.1022 6.3935C85.3309 6.4174 86.3359 6.30744 86.3359 6.14893C86.3359 5.77306 83.9755 5.72378 82.7927 6.07537C82.1065 6.27912 82.4442 6.36113 84.1022 6.3935ZM87.2843 6.58511C87.7535 6.826 89.417 6.28721 89.417 5.89443C89.417 5.63367 88.5093 5.71238 87.5684 6.05514C86.9599 6.27654 86.9004 6.38798 87.2843 6.58511ZM76.8434 6.79915C78.1467 6.80209 79.2938 6.64836 79.3927 6.45786C79.6032 6.0511 75.3824 6.11178 74.834 6.52332C74.6358 6.6719 75.5401 6.79584 76.8434 6.79915ZM177.003 6.32399C177.302 6.4174 177.718 6.41115 177.927 6.31038C178.136 6.20961 177.89 6.13348 177.382 6.14083C176.874 6.14819 176.703 6.23057 177.003 6.32399ZM198.795 6.53693C198.033 6.53693 197.721 6.60864 198.102 6.69654C198.483 6.78407 199.108 6.78407 199.489 6.69654C199.87 6.60864 199.558 6.53693 198.795 6.53693Z" fill="#131841"/>
<path fill-rule="evenodd" clip-rule="evenodd" d="M70.7492 106.409C70.5826 106.473 68.4692 106.642 66.0528 106.785C59.4917 107.174 29.491 106.949 27.8755 106.499C27.1256 106.29 26.0348 106.017 25.4515 105.893C20.8 104.9 19.9976 104.657 19.9976 104.239C19.9976 104.072 20.5088 104.081 21.1339 104.259C21.7586 104.437 24.3153 104.76 26.815 104.976C29.3147 105.192 31.5644 105.468 31.8144 105.587C32.0644 105.708 32.591 105.767 32.9846 105.719C33.4354 105.665 33.6251 105.781 33.4969 106.032C33.3527 106.316 35.5897 106.432 41.2072 106.432C46.4057 106.432 49.0566 106.306 48.9336 106.064C48.8197 105.84 49.2575 105.699 50.0519 105.702C51.4754 105.708 62.5447 105.469 73.3246 105.199C78.0414 105.081 79.1618 105.117 76.9606 105.317C75.2108 105.476 72.0066 105.657 69.8402 105.72C65.9125 105.833 65.9086 105.834 68.4767 106.064C69.8932 106.191 70.9158 106.347 70.7492 106.409ZM157.633 106.122C159.698 106.176 159.739 106.193 158.315 106.398C157.481 106.518 156.493 106.555 156.118 106.481C154.801 106.22 155.458 106.065 157.633 106.122ZM164.905 105.866C163.446 105.996 161.981 106.154 161.648 106.217C161.314 106.28 160.912 106.354 160.754 106.382C160.114 106.493 161.083 105.749 161.799 105.579C162.216 105.48 161.738 105.397 160.739 105.394C157.857 105.386 157.809 105.244 160.587 104.948C162.052 104.791 163.206 104.814 163.263 105C163.319 105.181 163.865 105.309 164.475 105.285L165.586 105.241L164.677 104.961C163.848 104.705 163.888 104.677 165.132 104.642C166.168 104.613 166.386 104.697 166.041 104.992C165.692 105.29 165.816 105.347 166.571 105.234C167.113 105.154 167.556 105.21 167.556 105.359C167.556 105.508 166.363 105.736 164.905 105.866ZM61.1164 106.159C59.9847 106.088 58.2122 106.088 57.1775 106.16C56.143 106.231 57.069 106.29 59.2354 106.289C61.4018 106.288 62.2484 106.23 61.1164 106.159ZM53.7057 106.188C53.4973 106.086 53.1564 106.086 52.9483 106.188C52.7398 106.29 52.9104 106.374 53.327 106.374C53.7436 106.374 53.9139 106.29 53.7057 106.188ZM30.6782 105.821C30.4697 105.718 30.1288 105.718 29.9207 105.821C29.7122 105.923 29.8828 106.006 30.2994 106.006C30.716 106.006 30.8863 105.923 30.6782 105.821ZM28.703 105.809C28.4081 105.716 27.9991 105.722 27.794 105.823C27.5889 105.924 27.83 106 28.33 105.992C28.8299 105.985 28.9978 105.903 28.703 105.809ZM156.951 105.611C156.368 105.611 156.129 105.535 156.421 105.443C156.712 105.35 157.19 105.35 157.481 105.443C157.773 105.535 157.534 105.611 156.951 105.611ZM153.845 105.453C154.054 105.351 154.394 105.351 154.603 105.453C154.811 105.555 154.641 105.638 154.224 105.638C153.808 105.638 153.637 105.555 153.845 105.453ZM216.144 104.609C214.287 104.568 212.697 104.674 212.609 104.845C212.436 105.185 205.566 105.149 200.71 104.782C199.03 104.656 194.599 104.466 190.863 104.361C187.126 104.256 182.91 104.105 181.494 104.027C180.077 103.948 175.987 103.716 172.404 103.512C167.019 103.205 87.2033 103.165 86.6564 103.469C86.0968 103.78 79.8048 103.362 79.5912 103C79.4009 102.676 79.3006 102.684 79.1849 103.03C79.0764 103.354 78.125 103.492 75.9507 103.499C74.2563 103.504 70.4841 103.666 67.5677 103.86C57.3584 104.538 25.666 104.035 21.2096 103.125L19.8461 102.846L21.2096 102.757C21.9595 102.709 22.3343 102.593 22.0428 102.501C21.7514 102.408 21.5126 102.194 21.5126 102.026C21.5126 101.857 21.2629 101.799 20.9578 101.896C20.6527 101.992 19.937 101.909 19.3671 101.711L18.3311 101.349L19.6043 101.316L20.8778 101.283L20.1758 100.364C19.5631 99.5611 19.208 99.4409 17.3873 99.4169C15.2985 99.3897 12.1737 98.8818 13.0287 98.7086C13.9265 98.5266 10.7066 98.0268 8.33234 97.9789C6.99916 97.9525 5.36299 97.7936 4.69641 97.6263C3.49745 97.3254 3.50291 97.3217 5.22664 97.2798C6.90796 97.239 7.53334 96.7616 6.43863 96.3541C5.85991 96.139 0.689316 95.0309 0.263306 95.0309C0.118469 95.0309 -1.52548e-05 94.7962 -1.52548e-05 94.5094C-1.52548e-05 94.0934 0.765045 93.9629 3.77499 93.8658C7.0943 93.7584 7.60182 93.6576 7.97935 93.0298C8.37567 92.3711 8.76169 92.3222 13.0003 92.3976C15.929 92.4495 18.0545 92.3156 18.8705 92.0276C20.1228 91.5852 20.0776 91.5697 16.6647 91.2755C14.7482 91.1104 13.1348 90.8118 13.0793 90.6124C13.0236 90.4131 12.41 90.2274 11.7159 90.1998C11.0132 90.1718 10.7578 90.0788 11.1396 89.9894C11.9725 89.7952 11.738 89.1608 10.8142 89.1097C10.405 89.0872 10.2715 89.0692 10.4352 88.9844L227.428 88.9844C227.455 90.0531 227.525 90.0711 229.08 90.1799C230.221 90.2597 230.575 90.3954 230.265 90.6338C229.93 90.8905 229.92 90.9754 230.222 90.9798C230.442 90.9828 230.816 91.2207 231.053 91.5083C231.425 91.9603 231.36 92.064 230.574 92.2737C230.074 92.4072 229.73 92.6444 229.809 92.8007C230.129 93.4288 228.457 94.7536 227.113 94.9375C225.411 95.1703 225.324 95.6789 226.933 95.9911C227.927 96.1838 228.123 96.3596 228.069 97.0066C227.985 98.001 227.612 98.328 226.553 98.3353C225.813 98.3401 225.719 98.4666 225.795 99.3522C225.875 100.279 225.8 100.359 224.898 100.31C223.542 100.235 223.655 100.83 225.049 101.111C226.753 101.455 226.8 101.49 226.868 102.49C226.908 103.077 226.739 103.508 226.407 103.667C225.414 104.142 219.513 104.684 216.144 104.609ZM235.656 77.2208C235.688 77.1929 235.689 77.1694 235.656 77.1495V77.2208ZM235.656 69.2527L236.79 68.735L235.656 68.5974V69.2527ZM235.656 67.8384C236.817 67.5068 237.195 67.2674 236.909 67.0477C236.677 66.8693 236.214 66.7093 235.881 66.692C235.793 66.6875 235.718 66.6835 235.656 66.6792V67.8384ZM235.656 66.4809C235.717 66.451 235.79 66.4162 235.876 66.3757C236.154 66.2439 236.102 66.1288 235.656 66.0027V66.4809ZM58.257 105.106C58.3576 104.984 58.6191 104.971 58.8376 105.077C59.0794 105.195 59.0076 105.282 58.6546 105.299C58.3352 105.315 58.1564 105.229 58.257 105.106ZM66.4379 104.739C66.5385 104.617 66.8 104.603 67.0184 104.71C67.2602 104.827 67.1884 104.914 66.8354 104.932C66.5161 104.948 66.3373 104.861 66.4379 104.739ZM64.0139 104.739C64.1145 104.617 64.376 104.603 64.5945 104.71C64.8363 104.827 64.7645 104.914 64.4115 104.932C64.0921 104.948 63.9133 104.861 64.0139 104.739ZM160.511 103.966C160.886 103.878 161.5 103.878 161.875 103.966C162.25 104.053 161.943 104.125 161.193 104.125C160.443 104.125 160.136 104.053 160.511 103.966ZM101.422 102.499C101.127 102.406 100.718 102.412 100.513 102.513C100.308 102.614 100.549 102.69 101.049 102.682C101.549 102.675 101.716 102.593 101.422 102.499ZM23.3872 102.503C23.1688 102.397 22.9073 102.41 22.8067 102.532C22.7061 102.654 22.8849 102.741 23.2042 102.725C23.5572 102.707 23.629 102.62 23.3872 102.503ZM70.1684 101.609C68.8491 101.632 67.8544 101.753 67.9577 101.879C68.257 102.242 89.5003 102.325 96.6552 101.99C103.973 101.648 114.064 101.597 114.712 101.899C114.946 102.008 115.138 101.94 115.138 101.747C115.138 101.533 119.075 101.364 125.212 101.314C141.294 101.182 144.162 101.114 144.373 100.858C144.739 100.414 142.741 100.122 141.071 100.375C140.163 100.513 127.855 100.753 113.72 100.91C99.5849 101.066 84.543 101.278 80.2935 101.38C76.044 101.483 71.4879 101.586 70.1684 101.609ZM65.6704 102.168C65.455 101.906 60.2613 101.938 60.0435 102.202C59.9602 102.304 61.2327 102.386 62.8713 102.386C64.5099 102.386 65.7698 102.288 65.6704 102.168ZM59.4436 102.135C59.2251 102.029 58.9636 102.042 58.863 102.164C58.7624 102.286 58.9412 102.373 59.2606 102.357C59.6135 102.34 59.6853 102.252 59.4436 102.135ZM80.6686 101.766C80.9583 101.674 81.5037 101.671 81.8806 101.759C82.2575 101.846 82.0206 101.922 81.354 101.926C80.6874 101.93 80.379 101.858 80.6686 101.766ZM44.5441 101.467C42.2413 101.467 40.4201 101.591 40.497 101.743C40.574 101.894 42.5604 102.019 44.9117 102.019C47.2626 102.019 49.0836 101.894 48.9584 101.743C48.8333 101.591 46.8469 101.467 44.5441 101.467ZM39.9953 101.651C39.9953 101.219 39.7623 101.219 38.9348 101.651C38.3979 101.931 38.4236 101.97 39.162 101.993C39.6205 102.007 39.9953 101.853 39.9953 101.651ZM93.7074 101.429C93.808 101.307 94.0695 101.293 94.2879 101.4C94.5297 101.517 94.4579 101.604 94.1049 101.622C93.7856 101.638 93.6068 101.551 93.7074 101.429ZM90.6656 101.388C91.121 101.304 91.9391 101.303 92.4836 101.384C93.0281 101.466 92.6557 101.535 91.6558 101.537C90.6559 101.539 90.2102 101.472 90.6656 101.388ZM154.318 100.434C154.167 100.321 153.865 100.362 153.647 100.526C153.429 100.689 153.374 100.916 153.525 101.029C153.675 101.142 153.977 101.101 154.195 100.937C154.413 100.773 154.468 100.547 154.318 100.434ZM150.361 100.591C149.153 100.567 148.164 100.677 148.164 100.835C148.164 101.211 150.485 101.261 151.649 100.909C152.323 100.705 151.991 100.623 150.361 100.591ZM147.232 100.399C146.77 100.158 145.134 100.697 145.134 101.09C145.134 101.351 146.027 101.272 146.952 100.929C147.551 100.708 147.609 100.596 147.232 100.399ZM157.499 100.185C156.218 100.182 155.09 100.336 154.992 100.527C154.785 100.933 158.936 100.873 159.475 100.461C159.67 100.312 158.781 100.189 157.499 100.185ZM59.0024 100.66C58.7076 100.567 58.2986 100.573 58.0934 100.674C57.8883 100.775 58.1295 100.851 58.6294 100.844C59.1293 100.836 59.2972 100.754 59.0024 100.66ZM37.5713 100.447C38.3212 100.447 38.6278 100.376 38.253 100.288C37.8782 100.2 37.2644 100.2 36.8896 100.288C36.5148 100.376 36.8214 100.447 37.5713 100.447ZM224.955 95.0309C224.882 95.0309 224.822 95.1964 224.822 95.3986C224.822 95.6009 224.966 95.7664 225.143 95.7664C225.319 95.7664 225.379 95.6009 225.276 95.3986C225.173 95.1964 225.029 95.0309 224.955 95.0309Z" fill="#131841"/>
</svg>
