<svg width="275" height="281" viewBox="0 0 275 281" fill="none" xmlns="http://www.w3.org/2000/svg">
<path fill-rule="evenodd" clip-rule="evenodd" d="M244.18 6.24429C240.317 8.56249 231.625 16.8696 225.056 24.597C216.363 34.6427 212.112 38.3135 209.794 37.3475C152.611 13.3924 90.5986 25.3698 56.5974 47.3931L51.3811 50.8706L37.858 37.3475C19.6985 19.3811 -22.4165 11.8467 17.1866 53.1888L32.8349 69.4164C31.4826 74.0529 -28.2118 159.441 31.0964 232.079L39.9833 243.091L31.0964 255.648C14.096 279.99 33.2213 287.717 55.0514 265.114L61.4271 258.547L70.3129 263.182C141.406 299.308 221.579 255.842 221.772 255.648L229.499 264.148C242.637 278.83 256.352 283.661 267.751 277.479C281.853 269.944 249.591 248.114 246.693 245.217L238.193 236.91L241.671 231.694C285.137 165.236 285.909 95.8835 243.216 57.8252L236.261 51.6431C240.125 46.6203 244.374 40.8246 257.897 25.5629C275.671 5.4716 266.783 -7.6651 244.18 6.24429ZM196.658 56.6662C196.079 57.8253 135.61 127.565 134.258 127.373C132.326 127.179 73.7906 74.246 71.6656 70.7687C69.7337 67.4844 73.9839 62.655 81.325 57.6321C139.474 18.9948 200.714 50.0979 196.658 56.6662ZM224.862 76.9508C245.92 106.702 248.044 158.475 229.692 194.602C218.294 216.818 219.647 216.431 205.351 201.362C198.59 194.215 152.997 147.078 152.997 147.078C152.997 147.078 198.589 94.5305 205.543 86.4167C220.226 69.4162 219.647 69.6097 224.862 76.9508ZM79.7798 112.69C105.86 135.872 110.689 141.475 117.064 148.044L87.507 183.977C53.1201 225.704 56.7902 223.386 49.4492 208.125C34.3807 177.021 34.3808 137.611 49.6425 101.872C54.8586 89.8938 53.5065 89.5083 79.7798 112.69ZM202.453 237.682C202.261 237.682 138.508 290.228 81.1315 244.443L75.5294 240L137.156 167.555C184.486 217.784 184.68 218.171 202.453 237.682Z" fill="#C31850"/>
</svg>
