<svg width="160" height="15" viewBox="0 0 160 15" fill="none" xmlns="http://www.w3.org/2000/svg">
<path fill-rule="evenodd" clip-rule="evenodd" d="M159.937 4.56439C159.284 2.87252 153.675 2.16016 136.815 1.56652C121.084 1.00257 102.77 -0.629949 70.7728 0.26051C46.3149 0.943195 15.8612 3.67394 15.8612 5.18772C15.8612 6.28595 17.0485 6.31563 28.387 5.33613C38.8647 4.44567 44.2371 4.23789 50.7969 4.00044C24.4986 6.31563 18.8887 7.82942 4.87886 9.28383C-3.907 10.204 1.22798 12.8457 4.43363 12.5785C4.46332 12.5785 45.3354 9.25415 49.194 9.43224C49.5502 9.46193 45.6619 9.9962 40.5269 10.6195C26.1905 12.4004 28.9509 15.3683 39.6958 14.003C75.8484 9.40226 109.864 7.97752 136.073 9.96622C144.354 10.5895 145.275 10.5895 145.275 9.81781C145.275 8.45244 143.019 7.41387 139.487 7.2061C133.966 6.84991 112.713 5.84043 103.096 5.54361C102.354 5.51392 102.711 4.95026 103.364 4.8909C107.282 4.50503 138.388 4.80155 150.617 5.2171C159.611 5.51392 160.264 5.48453 159.937 4.56439Z" fill="#FBE346"/>
</svg>
