<svg width="50" height="7" viewBox="0 0 50 7" fill="none" xmlns="http://www.w3.org/2000/svg">
<path fill-rule="evenodd" clip-rule="evenodd" d="M3.50774 0.770076C0.7784 0.879931 0.469406 1.03371 1.24186 1.84663C2.09156 2.74744 3.86822 2.96721 17.6694 3.34072C1.73109 3.60437 0.263406 3.91192 0.907118 4.94456C1.73107 6.24084 7.00951 6.10902 32.7065 6.15296C40.4053 6.17493 44.6796 6.54841 46.8682 6.46053C49.9065 6.3287 49.1598 5.31808 47.8981 4.85669L48.5933 4.74684C50.4215 4.46122 49.3143 2.65962 46.9712 2.13232C44.9113 1.67093 33.067 1.18752 21.6604 1.09964C6.57181 1.01176 6.62331 0.638251 3.50774 0.770076Z" fill="white"/>
</svg>
