<svg width="183" height="16" viewBox="0 0 183 16" fill="none" xmlns="http://www.w3.org/2000/svg">
<path fill-rule="evenodd" clip-rule="evenodd" d="M182.103 5.00668C181.361 3.15087 174.992 2.36948 155.849 1.71832C137.986 1.09971 117.191 -0.690991 80.8599 0.285754C53.0888 1.03459 18.5098 4.02994 18.5098 5.69041C18.5098 6.89506 19.8579 6.92762 32.7323 5.8532C44.6294 4.87645 50.7296 4.64855 58.1779 4.38808C28.3173 6.92762 21.9475 8.58809 6.03977 10.1834C-3.93625 11.1927 1.89433 14.0904 5.53423 13.7974C5.56793 13.7974 51.9766 10.1509 56.358 10.3462C56.7624 10.3788 52.3474 10.9648 46.5168 11.6486C30.2383 13.602 33.3727 16.8575 45.5731 15.3598C86.6231 10.3133 125.246 8.75054 155.006 10.9319C164.409 11.6157 165.454 11.6157 165.454 10.7691C165.454 9.27147 162.892 8.13227 158.882 7.90437C152.613 7.51367 128.482 6.40636 117.562 6.08078C116.72 6.04822 117.124 5.42994 117.866 5.36483C122.314 4.94157 157.635 5.26682 171.52 5.72264C181.732 6.04822 182.474 6.01599 182.103 5.00668Z" fill="#42476D"/>
</svg>
