<svg width="30" height="30" viewBox="0 0 30 30" fill="none" xmlns="http://www.w3.org/2000/svg">
<path d="M18.75 2.5H7.5C6.4625 2.5 5.575 3.125 5.2 4.025L1.425 12.8375C1.3125 13.125 1.25 13.425 1.25 13.75V16.25C1.25 17.625 2.375 18.75 3.75 18.75H11.6375L10.45 24.4625L10.4125 24.8625C10.4125 25.375 10.625 25.85 10.9625 26.1875L12.2875 27.5L20.5125 19.2625C20.975 18.8125 21.25 18.1875 21.25 17.5V5C21.25 3.625 20.125 2.5 18.75 2.5ZM18.75 17.5L13.325 22.925L14.7125 16.25H3.75V13.75L7.5 5H18.75V17.5ZM23.75 2.5H28.75V17.5H23.75V2.5Z" fill="#D81E5B"/>
</svg>
